<?xml version="1.0" encoding="UTF-8"?>
<svg id="harsukhLogo" data-name="Layer 1" xmlns="http://www.w3.org/2000/svg" viewBox="0 0 5494.76 3090.8">
  <defs>
    <style>
      .cls-1 {
        font-family: GillSansMTPro-Medium, 'Gill Sans MT Pro';
        font-size: 25.83px;
        font-weight: 500;
      }

      .cls-1, .cls-2 {
        fill: #fff;
      }

      .cls-2 {
        stroke-width: 0px;
      }
    </style>
  </defs>
  <rect class="cls-2" x="2364.44" y="1005.31" width="125.35" height="1.25"/>
  <rect class="cls-2" x="2757.41" y="1005.31" width="125.35" height="1.25"/>
  <g>
    <path class="cls-2" d="M2376.65,948.49c0,10.25,0,13.07.23,21.52-1.8-.34-3.61-.68-6.08-.68s-4.51.34-6.42.68c1.13-20.05,1.46-26.36,1.46-41.12,0-8.67-.11-11.49-1.01-36.84,1.8.45,3.27.68,6.31.68s4.51-.23,6.31-.68c-.23,3.38-1.01,20.05-.79,32.78,7.44.23,14.98.45,22.42.45,8.79,0,13.97-.11,20.84-.34.23-15.32.11-17.01-.56-32.89,1.8.45,3.38.68,6.31.68s4.51-.23,6.31-.68c-1.01,18.81-1.24,37.29-1.24,54.07,0,9.12.11,12.84.68,23.88-2.14-.34-3.94-.68-5.86-.68-1.8,0-3.61.23-6.42.68.34-6.42.79-18.47.79-21.29v-16.9c-7.55-.34-10.36-.34-21.63-.34s-13.07,0-21.63.23v16.78Z"/>
    <path class="cls-2" d="M2462.05,940.49c-2.25,5.18-6.76,15.21-10.48,29.51-1.35-.23-2.48-.68-4.62-.68s-3.49.45-4.96.68c10.03-21.85,26.7-58.58,34.7-78.86.9.11,1.58.34,2.82.34,1.01,0,1.58-.11,2.48-.34,8.67,23.66,33.57,78.41,33.8,78.86-1.91-.34-3.83-.68-6.65-.68s-5.07.34-7.21.68c-3.94-13.52-8.56-23.32-11.38-29.51h-28.5ZM2476.13,906.92l-11.83,27.94h23.99l-12.17-27.94Z"/>
    <path class="cls-2" d="M2584.28,970.01c-2.37-.34-4.17-.68-6.65-.68s-4.96.34-8.11.68c-10.7-16.9-18.93-27.49-27.6-37.74h-2.93c0,8-.11,19.71.79,37.74-1.91-.45-4.51-.68-6.53-.68-3.04,0-4.28.34-5.97.68.56-13.29.79-26.7.79-43.15,0-10.48-.34-22.19-.68-34.81,4.28.45,7.44.45,9.8.45,2.03,0,11.27-.11,13.07-.11,13.41,0,17.57,1.69,21.29,4.73,4.28,3.49,5.75,8.11,5.75,13.52,0,16.11-15.21,18.93-22.08,20.17,4.17,6.42,27.71,35.94,29.06,37.85v1.35ZM2546.2,897.01c-3.27,0-5.63.34-7.1.56-.23,5.07-.23,10.25-.23,15.32s.11,13.07.11,15.43c2.14.23,3.27.23,5.97.11,5.07-.23,20.62-.9,20.62-16.56,0-13.18-11.15-14.87-19.38-14.87Z"/>
    <path class="cls-2" d="M2633.73,906.36c-1.46-4.28-5.3-10.48-15.66-10.48-12.28,0-14.42,9.01-14.42,12.96,0,8.9,7.44,11.94,13.18,14.19,12.28,4.73,14.42,5.52,18.36,8.79,5.18,4.17,6.31,10.14,6.31,14.42,0,11.72-8.22,25.12-28.28,25.12-7.44,0-14.64-1.8-20.5-6.2,1.69-5.75,1.91-9.12,2.03-10.59h1.46c3.27,6.76,9.91,11.72,18.81,11.72,11.83,0,16.67-7.77,16.67-14.98,0-9.12-6.42-12.5-13.97-15.55-13.18-5.52-14.64-6.08-17.69-8.79-3.83-3.15-5.63-8.79-5.63-13.97,0-14.53,11.72-21.85,25.01-21.85,8.79,0,16.45,3.38,19.15,5.18-.9,1.69-2.93,6.2-3.27,10.03h-1.58Z"/>
    <path class="cls-2" d="M2658.74,892.05c2.37.34,4.62.68,6.65.68,2.48,0,4.62-.34,6.53-.68-1.01,14.76-1.01,36.16-1.01,38.53,0,14.19.45,22.08,4.96,27.6,3.6,4.51,10.93,7.32,18.02,7.32,3.15,0,18.48-.68,22.19-16.45,1.8-7.66,1.91-20.39,1.91-23.21,0-4.28-.45-26.47-1.58-33.8,1.46.34,2.7.68,5.3.68s3.6-.34,4.96-.68c-1.46,10.25-1.91,23.09-1.91,39.77,0,10.93-.56,23.09-8.11,30.87-4.73,4.96-11.94,8.9-24.78,8.9-8.67,0-20.5-2.03-27.49-11.38-4.17-5.63-4.73-11.83-4.73-21.52,0-30.3,0-32.56-.9-46.64Z"/>
    <path class="cls-2" d="M2745.94,892.05c1.91.34,3.83.68,6.87.68,2.82,0,4.17-.34,5.75-.68-.34,3.15-.56,9.58-.79,14.31-.23,6.08-.11,11.15,0,21.97,8-6.53,11.15-9.01,25.12-23.88,7.66-8.11,8.34-9.01,10.7-12.39,2.03.45,3.83.68,5.86.68,1.91,0,3.49-.34,5.07-.68l.23.68c-4.84,3.38-32.11,30.19-36.39,34.02,8.56,9.69,22.19,25.12,30.76,34.7,1.13,1.13,3.6,3.94,5.63,5.97v2.59c-1.47-.34-5.07-.68-7.1-.68s-5.63.23-8,.68c-4.17-7.1-10.03-13.86-15.66-20.39-8.9-10.36-11.15-12.73-16-17.91l-.34.45v6.98c.11,17.35.11,20.17.9,30.87-1.8-.34-3.94-.68-6.31-.68s-4.39.34-6.65.68c1.13-19.71,1.35-22.87,1.35-37.96,0-24.67-.34-28.95-1.01-39.99Z"/>
    <path class="cls-2" d="M2827.39,948.49c0,10.25,0,13.07.23,21.52-1.8-.34-3.61-.68-6.08-.68s-4.51.34-6.42.68c1.13-20.05,1.46-26.36,1.46-41.12,0-8.67-.11-11.49-1.01-36.84,1.8.45,3.27.68,6.31.68s4.51-.23,6.31-.68c-.23,3.38-1.01,20.05-.79,32.78,7.44.23,14.98.45,22.42.45,8.79,0,13.97-.11,20.84-.34.23-15.32.11-17.01-.56-32.89,1.8.45,3.38.68,6.31.68s4.51-.23,6.31-.68c-1.01,18.81-1.24,37.29-1.24,54.07,0,9.12.11,12.84.68,23.88-2.14-.34-3.94-.68-5.86-.68-1.8,0-3.6.23-6.42.68.34-6.42.79-18.47.79-21.29v-16.9c-7.55-.34-10.36-.34-21.63-.34s-13.07,0-21.63.23v16.78Z"/>
  </g>
  <text class="cls-1" transform="translate(2508.87 1012.56)"><tspan x="0" y="0">RESIDENCIES</tspan></text>
</svg>