<?xml version="1.0" encoding="UTF-8"?>
<svg id="road" xmlns="http://www.w3.org/2000/svg" viewBox="0 0 5494.76 3090.8">
  <defs>
    <style>
      .cls-1 {
        letter-spacing: .02em;
      }

      .cls-2 {
        letter-spacing: -.04em;
      }

      .cls-3 {
        letter-spacing: -.04em;
      }

      .cls-4, .cls-5, .cls-6 {
        isolation: isolate;
      }

      .cls-7 {
        letter-spacing: -.02em;
      }

      .cls-5 {
        fill: none;
        stroke: #fff;
        stroke-miterlimit: 10;
      }

      .cls-5, .cls-6 {
        font-family: GillSansMTPro-Medium, 'Gill Sans MT Pro';
        font-size: 41.15px;
        font-weight: 500;
      }

      .cls-6 {
        fill: #096069;
      }
    </style>
  </defs>
  <g class="cls-4">
    <text class="cls-6" transform="translate(2869.92 1370.41) rotate(-86.05)"><tspan class="cls-3" x="0" y="0">A</tspan><tspan x="25.6" y="0">yubia </tspan><tspan class="cls-2" x="122.75" y="0">R</tspan><tspan x="145.96" y="0">d</tspan></text>
    <text class="cls-5" transform="translate(2869.92 1370.41) rotate(-86.05)"><tspan class="cls-3" x="0" y="0">A</tspan><tspan x="25.6" y="0">yubia </tspan><tspan class="cls-2" x="122.75" y="0">R</tspan><tspan x="145.96" y="0">d</tspan></text>
  </g>
  <g class="cls-4">
    <text class="cls-6" transform="translate(3048.36 859.57) rotate(-49.99)"><tspan class="cls-3" x="0" y="0">A</tspan><tspan x="25.6" y="0">yubia </tspan><tspan class="cls-2" x="122.75" y="0">R</tspan><tspan x="145.96" y="0">d</tspan></text>
    <text class="cls-5" transform="translate(3048.36 859.57) rotate(-49.99)"><tspan class="cls-3" x="0" y="0">A</tspan><tspan x="25.6" y="0">yubia </tspan><tspan class="cls-2" x="122.75" y="0">R</tspan><tspan x="145.96" y="0">d</tspan></text>
  </g>
  <g class="cls-4">
    <text class="cls-6" transform="translate(3134.25 149.07) rotate(-126.27)"><tspan class="cls-3" x="0" y="0">A</tspan><tspan x="25.6" y="0">yubia </tspan><tspan class="cls-2" x="122.75" y="0">R</tspan><tspan x="145.96" y="0">d</tspan></text>
    <text class="cls-5" transform="translate(3134.25 149.07) rotate(-126.27)"><tspan class="cls-3" x="0" y="0">A</tspan><tspan x="25.6" y="0">yubia </tspan><tspan class="cls-2" x="122.75" y="0">R</tspan><tspan x="145.96" y="0">d</tspan></text>
  </g>
  <g class="cls-4">
    <text class="cls-6" transform="translate(1761.66 1538.97) rotate(-16.36)"><tspan x="0" y="0">Abbot</tspan><tspan class="cls-1" x="105.59" y="0">t</tspan><tspan x="120.69" y="0">ab</tspan><tspan class="cls-7" x="158.84" y="0">a</tspan><tspan x="175.58" y="0">d </tspan><tspan class="cls-2" x="208.01" y="0">R</tspan><tspan x="231.22" y="0">d</tspan></text>
    <text class="cls-5" transform="translate(1761.66 1538.97) rotate(-16.36)"><tspan x="0" y="0">Abbot</tspan><tspan class="cls-1" x="105.59" y="0">t</tspan><tspan x="120.69" y="0">ab</tspan><tspan class="cls-7" x="158.84" y="0">a</tspan><tspan x="175.58" y="0">d </tspan><tspan class="cls-2" x="208.01" y="0">R</tspan><tspan x="231.22" y="0">d</tspan></text>
  </g>
  <g class="cls-4">
    <text class="cls-6" transform="translate(2552.59 2042.21) rotate(-44.44)"><tspan x="0" y="0">Abbot</tspan><tspan class="cls-1" x="105.59" y="0">t</tspan><tspan x="120.69" y="0">ab</tspan><tspan class="cls-7" x="158.84" y="0">a</tspan><tspan x="175.58" y="0">d </tspan><tspan class="cls-2" x="208.01" y="0">R</tspan><tspan x="231.22" y="0">d</tspan></text>
    <text class="cls-5" transform="translate(2552.59 2042.21) rotate(-44.44)"><tspan x="0" y="0">Abbot</tspan><tspan class="cls-1" x="105.59" y="0">t</tspan><tspan x="120.69" y="0">ab</tspan><tspan class="cls-7" x="158.84" y="0">a</tspan><tspan x="175.58" y="0">d </tspan><tspan class="cls-2" x="208.01" y="0">R</tspan><tspan x="231.22" y="0">d</tspan></text>
  </g>
  <g class="cls-4">
    <text class="cls-6" transform="translate(2146.3 2692.78) rotate(-51.28)"><tspan x="0" y="0">Abbot</tspan><tspan class="cls-1" x="105.59" y="0">t</tspan><tspan x="120.69" y="0">ab</tspan><tspan class="cls-7" x="158.84" y="0">a</tspan><tspan x="175.58" y="0">d </tspan><tspan class="cls-2" x="208.01" y="0">R</tspan><tspan x="231.22" y="0">d</tspan></text>
    <text class="cls-5" transform="translate(2146.3 2692.78) rotate(-51.28)"><tspan x="0" y="0">Abbot</tspan><tspan class="cls-1" x="105.59" y="0">t</tspan><tspan x="120.69" y="0">ab</tspan><tspan class="cls-7" x="158.84" y="0">a</tspan><tspan x="175.58" y="0">d </tspan><tspan class="cls-2" x="208.01" y="0">R</tspan><tspan x="231.22" y="0">d</tspan></text>
  </g>
  <g class="cls-4">
    <text class="cls-6" transform="translate(1459.82 1063.86) rotate(-39.54)"><tspan x="0" y="0">Abbot</tspan><tspan class="cls-1" x="105.59" y="0">t</tspan><tspan x="120.69" y="0">ab</tspan><tspan class="cls-7" x="158.84" y="0">a</tspan><tspan x="175.58" y="0">d </tspan><tspan class="cls-2" x="208.01" y="0">R</tspan><tspan x="231.22" y="0">d</tspan></text>
    <text class="cls-5" transform="translate(1459.82 1063.86) rotate(-39.54)"><tspan x="0" y="0">Abbot</tspan><tspan class="cls-1" x="105.59" y="0">t</tspan><tspan x="120.69" y="0">ab</tspan><tspan class="cls-7" x="158.84" y="0">a</tspan><tspan x="175.58" y="0">d </tspan><tspan class="cls-2" x="208.01" y="0">R</tspan><tspan x="231.22" y="0">d</tspan></text>
  </g>
  <g class="cls-4">
    <text class="cls-6" transform="translate(1607.49 268.75) rotate(22.49)"><tspan x="0" y="0">Abbot</tspan><tspan class="cls-1" x="105.59" y="0">t</tspan><tspan x="120.69" y="0">ab</tspan><tspan class="cls-7" x="158.84" y="0">a</tspan><tspan x="175.58" y="0">d </tspan><tspan class="cls-2" x="208.01" y="0">R</tspan><tspan x="231.22" y="0">d</tspan></text>
    <text class="cls-5" transform="translate(1607.49 268.75) rotate(22.49)"><tspan x="0" y="0">Abbot</tspan><tspan class="cls-1" x="105.59" y="0">t</tspan><tspan x="120.69" y="0">ab</tspan><tspan class="cls-7" x="158.84" y="0">a</tspan><tspan x="175.58" y="0">d </tspan><tspan class="cls-2" x="208.01" y="0">R</tspan><tspan x="231.22" y="0">d</tspan></text>
  </g>
</svg>