<?xml version="1.0" encoding="UTF-8"?>
<!-- <svg id="road" id="Layer_1" xmlns="http://www.w3.org/2000/svg" viewBox="0 0 5490.68 3072"> -->
  <svg id="road" xmlns="http://www.w3.org/2000/svg" version="1.1" xmlns:xlink="http://www.w3.org/1999/xlink" viewBox="0 0 5494.8 3090.8">

  <defs>
    <style>
      .cls-1 {
        fill: #096069;
        font-size: 41.15px;
      }

      .cls-1, .cls-2 {
        font-family: GillSansMTPro-Medium, 'Gill Sans MT Pro';
        font-weight: 500;
      }

      .cls-3, .cls-2 {
        fill: #fff;
      }

      .cls-2 {
        font-size: 30.67px;
      }
    </style>
  </defs>
  <text class="cls-1" transform="translate(2857.85 1473.58) rotate(-84.83)"><tspan x="0" y="0">Ayubia Rd</tspan></text>
  <text class="cls-1" transform="translate(3214.52 341.1) rotate(-109.06)"><tspan x="0" y="0">Ayubia Rd</tspan></text>
  <text class="cls-1" transform="translate(2097.81 1336.14) rotate(52.35)"><tspan x="0" y="0">Abbottabad Rd</tspan></text>
  <text class="cls-1" transform="translate(2185.51 2637.31) rotate(-51.07)"><tspan x="0" y="0">Abbottabad Rd</tspan></text>
  <text class="cls-1" transform="translate(1548.31 246.22) rotate(20.01)"><tspan x="0" y="0">Abbottabad Rd</tspan></text>
  <g>
    <rect class="cls-3" x="2225.9" y="1077.93" width="148.84" height="1.48"/>
    <rect class="cls-3" x="2692.51" y="1077.93" width="148.84" height="1.48"/>
    <g>
      <path class="cls-3" d="M2240.4,1010.46c0,12.17,0,15.52.27,25.55-2.14-.4-4.28-.8-7.22-.8s-5.35.4-7.63.8c1.34-23.81,1.74-31.3,1.74-48.82,0-10.3-.13-13.64-1.2-43.74,2.14.53,3.88.8,7.49.8s5.35-.27,7.49-.8c-.27,4.01-1.2,23.81-.94,38.93,8.83.27,17.79.54,26.62.54,10.43,0,16.59-.13,24.75-.4.27-18.19.13-20.2-.67-39.06,2.14.53,4.01.8,7.49.8s5.35-.27,7.49-.8c-1.2,22.34-1.47,44.28-1.47,64.21,0,10.83.13,15.25.8,28.36-2.54-.4-4.68-.8-6.96-.8-2.14,0-4.28.27-7.63.8.4-7.62.94-21.94.94-25.28v-20.07c-8.96-.4-12.31-.4-25.68-.4s-15.52,0-25.68.27v19.93Z"/>
      <path class="cls-3" d="M2341.8,1000.96c-2.67,6.15-8.03,18.06-12.44,35.05-1.61-.27-2.94-.8-5.48-.8s-4.15.53-5.89.8c11.91-25.95,31.7-69.56,41.2-93.64,1.07.13,1.87.4,3.34.4,1.2,0,1.87-.13,2.94-.4,10.3,28.09,39.86,93.1,40.13,93.64-2.27-.4-4.55-.8-7.89-.8s-6.02.4-8.56.8c-4.68-16.05-10.17-27.69-13.51-35.05h-33.84ZM2358.52,961.1l-14.05,33.17h28.49l-14.45-33.17Z"/>
      <path class="cls-3" d="M2486.93,1036.01c-2.81-.4-4.95-.8-7.89-.8s-5.89.4-9.63.8c-12.71-20.06-22.47-32.64-32.77-44.81h-3.48c0,9.5-.13,23.41.94,44.81-2.27-.53-5.35-.8-7.76-.8-3.61,0-5.08.4-7.09.8.67-15.78.94-31.7.94-51.23,0-12.44-.4-26.35-.8-41.33,5.08.53,8.83.53,11.64.53,2.41,0,13.38-.13,15.52-.13,15.92,0,20.87,2.01,25.28,5.62,5.08,4.15,6.82,9.63,6.82,16.05,0,19.13-18.06,22.47-26.22,23.94,4.95,7.63,32.91,42.67,34.51,44.94v1.61ZM2441.72,949.33c-3.88,0-6.69.4-8.43.67-.27,6.02-.27,12.17-.27,18.19s.13,15.52.13,18.33c2.54.27,3.88.27,7.09.13,6.02-.27,24.48-1.07,24.48-19.66,0-15.65-13.24-17.66-23.01-17.66Z"/>
      <path class="cls-3" d="M2545.66,960.43c-1.74-5.08-6.29-12.44-18.59-12.44-14.58,0-17.12,10.7-17.12,15.38,0,10.57,8.83,14.18,15.65,16.85,14.58,5.62,17.12,6.55,21.8,10.43,6.15,4.95,7.49,12.04,7.49,17.12,0,13.91-9.77,29.83-33.58,29.83-8.83,0-17.39-2.14-24.35-7.36,2.01-6.82,2.27-10.83,2.41-12.57h1.74c3.88,8.03,11.77,13.91,22.34,13.91,14.05,0,19.8-9.23,19.8-17.79,0-10.83-7.62-14.85-16.59-18.46-15.65-6.55-17.39-7.22-21-10.43-4.55-3.75-6.69-10.43-6.69-16.59,0-17.26,13.91-25.95,29.7-25.95,10.43,0,19.53,4.01,22.74,6.15-1.07,2.01-3.48,7.36-3.88,11.9h-1.87Z"/>
      <path class="cls-3" d="M2575.35,943.44c2.81.4,5.48.8,7.89.8,2.94,0,5.48-.4,7.76-.8-1.2,17.52-1.2,42.94-1.2,45.75,0,16.85.54,26.22,5.89,32.77,4.28,5.35,12.97,8.69,21.4,8.69,3.75,0,21.94-.8,26.35-19.53,2.14-9.1,2.27-24.21,2.27-27.56,0-5.08-.53-31.43-1.87-40.13,1.74.4,3.21.8,6.29.8s4.28-.4,5.89-.8c-1.74,12.17-2.27,27.42-2.27,47.22,0,12.97-.67,27.42-9.63,36.65-5.62,5.89-14.18,10.57-29.43,10.57-10.3,0-24.35-2.41-32.64-13.51-4.95-6.69-5.62-14.05-5.62-25.55,0-35.98,0-38.66-1.07-55.38Z"/>
      <path class="cls-3" d="M2678.89,943.44c2.27.4,4.55.8,8.16.8,3.34,0,4.95-.4,6.82-.8-.4,3.75-.67,11.37-.94,16.99-.27,7.22-.13,13.24,0,26.08,9.5-7.76,13.24-10.7,29.83-28.36,9.1-9.63,9.9-10.7,12.71-14.71,2.41.53,4.55.8,6.96.8,2.27,0,4.15-.4,6.02-.8l.27.8c-5.75,4.01-38.12,35.85-43.21,40.4,10.17,11.5,26.35,29.83,36.52,41.2,1.34,1.34,4.28,4.68,6.69,7.09v3.08c-1.74-.4-6.02-.8-8.43-.8s-6.69.27-9.5.8c-4.95-8.43-11.91-16.45-18.59-24.21-10.57-12.31-13.24-15.12-18.99-21.27l-.4.53v8.29c.13,20.6.13,23.94,1.07,36.65-2.14-.4-4.68-.8-7.49-.8s-5.22.4-7.89.8c1.34-23.41,1.61-27.15,1.61-45.08,0-29.29-.4-34.38-1.2-47.49Z"/>
      <path class="cls-3" d="M2775.6,1010.46c0,12.17,0,15.52.27,25.55-2.14-.4-4.28-.8-7.22-.8s-5.35.4-7.62.8c1.34-23.81,1.74-31.3,1.74-48.82,0-10.3-.13-13.64-1.2-43.74,2.14.53,3.88.8,7.49.8s5.35-.27,7.49-.8c-.27,4.01-1.2,23.81-.94,38.93,8.83.27,17.79.54,26.62.54,10.43,0,16.59-.13,24.75-.4.27-18.19.13-20.2-.67-39.06,2.14.53,4.01.8,7.49.8s5.35-.27,7.49-.8c-1.2,22.34-1.47,44.28-1.47,64.21,0,10.83.13,15.25.8,28.36-2.54-.4-4.68-.8-6.96-.8-2.14,0-4.28.27-7.62.8.4-7.62.94-21.94.94-25.28v-20.07c-8.96-.4-12.31-.4-25.68-.4s-15.52,0-25.68.27v19.93Z"/>
    </g>
    <text class="cls-2" transform="translate(2397.4 1086.54)"><tspan x="0" y="0">RESIDENCIES</tspan></text>
  </g>
</svg>