<svg id="Layer_1" data-name="Layer 1" xmlns="http://www.w3.org/2000/svg" viewBox="0 0 1920 1080"><defs><style>.cls-1{fill:#fff;opacity:0.5;}</style></defs><polygon class="cls-1" points="628.84 711.01 628.84 757.33 551.8 749.99 551.8 712.38 628.84 711.01"/><polygon class="cls-1" points="664.15 711.01 758.62 711.01 756.79 774.29 664.15 761.45 664.15 711.01"/><polygon class="cls-1" points="266.55 711.01 361.02 724.4 361.02 711.01 266.55 711.01"/><polygon class="cls-1" points="431.49 711.01 361.02 711.01 361.02 724.4 431.49 734.39 431.49 711.01"/><rect class="cls-1" x="812.28" y="711.01" width="121.07" height="74.75"/><rect class="cls-1" x="970.04" y="711.01" width="121.07" height="74.75"/><rect class="cls-1" x="1128.71" y="711.01" width="119.69" height="74.75"/><rect class="cls-1" x="1292.43" y="711.01" width="97.22" height="74.75"/><rect class="cls-1" x="1429.4" y="711.01" width="91.8" height="74.75"/><rect class="cls-1" x="1521.2" y="711.01" width="91.8" height="74.75"/></svg>