<svg id="Layer_1" data-name="Layer 1" xmlns="http://www.w3.org/2000/svg" viewBox="0 0 1920 1080"><defs><style>.cls-1{fill:#096069;opacity:0.5;}</style></defs><polygon class="cls-1" points="739.98 261.27 689.22 261.27 689.22 375.92 739.98 375.92 739.98 439.21 711.85 439.21 711.85 530.01 905.61 528.94 905.61 468.18 957.66 468.18 957.66 530.01 1064.28 528.71 1064.28 530.01 1087.67 530.01 1152.56 530.01 1152.56 439.52 1123.67 439.98 1123.67 374.39 1175.03 374.62 1175.03 263.41 1123.9 263.64 1120.23 263.64 1120.23 258.6 1079.18 258.6 1079.18 222.37 784.53 222.37 784.53 258.83 746.47 258.83 746.47 267.54 740.74 267.54 739.98 261.27"/></svg>