<svg id="Layer_1" data-name="Layer 1" xmlns="http://www.w3.org/2000/svg" viewBox="0 0 1920 1080"><defs><style>.cls-1{fill:#096069;opacity:0.5;}</style></defs><polygon class="cls-1" points="1277.53 303.54 1402.95 362.7 1443.77 362.7 1443.77 345.96 1502.93 345.96 1502.93 362.7 1495.29 362.7 1495.29 375.24 1501.48 375.24 1501.48 408.33 1495.21 408.33 1495.21 420.94 1508.05 420.94 1508.05 412.61 1540.36 412.61 1540.36 473.97 1540.36 529.25 1444.69 529.25 1223.03 529.25 1223.03 440.43 1251.77 440.43 1251.77 425.76 1200.71 425.76 1200.71 329.15 1251.77 329.15 1251.77 375.92 1263.69 375.92 1263.69 368.89 1277.45 368.89 1277.53 303.54"/></svg>