<svg id="Layer_1" data-name="Layer 1" xmlns="http://www.w3.org/2000/svg" viewBox="0 0 1920 1080"><defs><style>.cls-1{fill:#096069;opacity:0.5;}</style></defs><polygon class="cls-1" points="711.16 575.95 711.16 663.54 740.28 663.54 740.28 722.01 688.92 722.01 688.92 835.98 740.28 835.98 740.28 846.06 784.53 846.06 784.53 868.08 1078.73 868.08 1078.73 840.79 1123.67 840.79 1123.67 835.75 1174.57 835.75 1174.57 724.53 1123.67 724.53 1123.67 663.77 1152.79 663.77 1152.79 574.34 1026.67 574.34 962.47 574.34 962.47 614.7 876.71 614.7 876.71 613.5 874.88 613.5 874.88 574.34 768.88 574.34 768.88 573.48 746.24 573.48 746.24 574.17 739.99 574.17 739.99 576.29 711.16 575.95"/></svg>