<svg id="Layer_1" data-name="Layer 1" xmlns="http://www.w3.org/2000/svg" viewBox="0 0 1920 1080"><defs><style>.cls-1{fill:#096069;opacity:0.5;}</style></defs><polygon class="cls-1" points="348.79 574.5 357.96 574.5 435.62 574.5 612.33 574.5 612.33 575.87 640.76 575.87 640.76 663.62 611.87 663.62 611.87 752.13 662.32 752.13 662.32 862.8 611.57 862.8 611.57 867.85 599.03 867.85 599.03 863.11 586.34 863.11 586.34 917.07 483.77 917.07 483.77 912.94 470.93 912.94 470.93 907.75 458.09 907.75 458.09 966.75 332.13 912.79 352.76 912.79 352.76 900.02 349.25 900.02 349.25 844.31 349.25 680.51 348.79 574.5"/></svg>