<svg id="Layer_1" data-name="Layer 1" xmlns="http://www.w3.org/2000/svg" viewBox="0 0 1920 1080"><defs><style>.cls-1{fill:#fff;opacity:0.5;}</style></defs><polygon class="cls-1" points="1420.24 409.94 1206.3 409.94 1182.61 408.11 1170.53 408.11 1170.53 404.75 1143.32 404.29 1143.32 368.67 1189.79 262.58 1365.89 375.39 1390.96 391.9 1420.24 409.94"/><polygon class="cls-1" points="783.06 365.95 782.94 405.89 752.75 405.89 743.11 393.97 722.94 393.97 714.68 383.65 618.96 382.47 590.86 395.57 429.43 396.95 429.43 381.89 607.37 263.8 621.13 279.09 709.79 221 711.24 221 783.06 365.95"/><polygon class="cls-1" points="820.92 401.99 1099.29 401.99 1099.29 331.98 1086.15 272.98 836.36 272.98 820.92 332.29 820.92 401.99"/></svg>