<svg id="Layer_1" data-name="Layer 1" xmlns="http://www.w3.org/2000/svg" viewBox="0 0 1920 1080"><defs><style>.cls-1{fill:#fff;opacity:0.5;}</style></defs><path class="cls-1" d="M783.06,476.44l-.28,28.44H737.15l-13.6.31h-100l-31.33-3.75-67.42,5.27L429.13,505q-.08-24.45-.16-48.91l163.27.38,34.39,1.6h96.92s49.44,12.32,59.51,12.55C782.9,472.49,783.21,474.6,783.06,476.44Z"/><path class="cls-1" d="M820.92,466.66v45.55L855.47,516l243.82-.76v-47l-244.43.38Z"/><path class="cls-1" d="M1512.87,526.27h-105l-43.79-2.52-16.82-3.44-4.87.07h0l-24.14,1.31-174.88-4.13V472.85L1343.65,474l21.55,7.57,147.75-.15Z"/></svg>