<svg version="1.1" id="masker" xmlns="http://www.w3.org/2000/svg" xmlns:xlink="http://www.w3.org/1999/xlink"
            x="0px" y="0px" viewBox="0 0 1920 1080" xml:space="preserve">
            <polyline data-image="10.png" data-tip="Basement 5" class="st0" points="764.4,719.9 764.4,725.8 608,727.8 608,791 1159,769.3 1159,719.9 " />
            <polygon data-image="1.png" data-tip="Basement 4" class="st0"
                points="608,674 773.6,674 1008.7,674 1195,674 1191.2,715.8 1003,720 769.8,719.8 769.2,725.8 608,725.8 " />
            <polygon data-image="2.png" data-tip="Basement 3" class="st0" points="608,617.2 782.5,617.2 782.5,627 1032.3,627 1032.3,631 1226.7,631 1226.7,674.5 1025.6,674.5 
                782.5,674.5 608,674.5 " />
            <polygon data-image="3.png" data-tip="Basement 2" class="st0"
                points="608,561.9 786.5,567.8 786.5,573.7 911.4,573.7 911.4,577.7 1034.3,581.6 1034.3,583.6 1123.5,583.6 
                1123.5,589.5 1230.6,589.5 1292.1,593.5 1292.1,631 1127.5,631 1032.3,631 1032.3,627 782.5,627 782.5,617.2 608,617.2 " />
            <polygon data-image="4.png" data-tip="Basement 1" class="st0" points="608,504.6 790.4,512.5 790.4,520.4 911.4,524.3 911.4,528.3 1034.3,532.2 1034.3,538.1 1125.5,538.1 
                1125.5,542.1 1230.6,548 1230.6,557.9 1292.1,557.9 1292.1,593.5 1226.7,589.5 1123.5,589.5 1123.5,583.6 1034.3,583.6 911.4,577.7 
                911.4,573.7 786.5,573.7 786.5,567.8 608,561.9 " />
            <polygon data-image="5.png" data-tip="Ground Floor" class="st0" points="608,449.3 790.4,461.1 790.4,469 1034.3,484.8 1034.3,494.7 1232.6,504.6 1232.6,516.4 1292.1,516.4 
                1292.1,557.9 1230.6,557.9 1230.6,548 1125.5,542.1 1125.5,538.1 1037.1,538.1 1036.3,532.2 911.4,528.3 911.4,524.3 790.4,520.4 
                790.4,512.5 608,504.6 " />
            <polygon data-image="6.png" data-tip="First Floor" class="st0" points="608,393.9 792.4,407.8 792.4,419.6 905.4,425.5 905.4,431.5 1040.3,437.4 1040.3,445.3 1125.5,451.2 
                1125.5,457.2 1236.6,461.1 1236.6,473 1288.1,473 1288.1,516.4 1232.6,516.4 1232.6,504.6 1124.1,499.2 1034.3,494.7 1034.3,484.8 
                908.2,476.7 793.4,469.2 790.4,461.1 608,449.3 " />
            <polygon data-image="7.png" data-tip="Second Floor" class="st0" points="608,338.6 796.4,350.5 796.4,366.3 911.4,378.1 911.4,386 1040.3,390 1040.3,403.8 1123.5,409.7 
                1123.5,417.6 1234.6,417.6 1230.6,427.5 1288.1,431.5 1288.1,473 1236.6,473 1236.6,461.1 1123.5,455.2 1123.5,449.3 1040.3,445.3 
                1040.3,437.4 905.4,431.5 905.4,425.5 792.4,419.6 792.4,405.8 608,393.9 " />
            <polygon data-image="8.png" data-tip="Third Floor" class="st0" points="608,302 784,224 778,318 908,334 1032,279 1029,344 1028,358 1124,370 1227,321 1227,321 1226,377 
                1257,360 1271,352 1285,345 1284,428 1234.2,427.5 1234.6,411.7 1123.5,414.3 1123.5,409.7 1040.3,405.8 1040.3,390 911.4,386 
                911.4,378.1 796.4,366.3 796.4,350.5 608,338.6 " />
            <polygon data-image="9.png" data-tip="Rooftop" class="st0"
                points="608,302 608,278 804,198 804,297 902,310 902,317 1051,251 1045,339 1127,350 1242,299 1242,350   1302,320 1302,339 1227,377 1227,321 1124,370 1028,358 1032,279 908,334 889.2,334.4 889,326 798.3,320.1 778,318 784,224 " />



        </svg>