<svg id="Layer_1" data-name="Layer 1" xmlns="http://www.w3.org/2000/svg" viewBox="0 0 1920 1080"><defs><style>.cls-1{fill:#fff;opacity:0.5;}</style></defs><polygon class="cls-1" points="1132.38 418.42 1132.38 419.64 1132.36 418.42 1132.38 418.42"/><polygon class="cls-1" points="737.04 386.21 736.15 452.59 736.15 500.05 630.52 483.24 364.53 482.82 461.85 423.36 652 306.98 737.04 386.21"/><polygon class="cls-1" points="1132.38 419.64 1132.38 478.96 770.24 480.79 768.71 418.42 771.16 418.45 777.5 418.45 768.71 418.42 771.24 319.36 797.83 230.62 1110.83 226.73 1130.55 319.02 1132.36 418.42 1132.38 419.64"/><polygon class="cls-1" points="1639.13 469.32 1639.13 487.21 1173.66 489.21 1173.5 458.17 1172.81 379.98 1269.04 266.17 1388.51 338.85 1407.25 326.66 1533.2 404.66 1639.13 469.32"/></svg>