<?xml version="1.0" encoding="UTF-8"?>
<svg id="murree" xmlns="http://www.w3.org/2000/svg" viewBox="0 0 5494.76 3090.8">
  <defs>
    <style>
      .cls-1 {
        fill: #fff;
      }

      .cls-2 {
        letter-spacing: .08em;
      }

      .cls-3 {
        letter-spacing: .1em;
      }

      .cls-4 {
        fill: #3c3c3b;
      }

      .cls-5 {
        letter-spacing: .08em;
      }

      .cls-6 {
        font-family: GillSans, 'Gill Sans';
        font-size: 41px;
      }
    </style>
  </defs>
  <path class="cls-1" d="M2574.78,1073.03c.02.08.04.15.06.23,4.59,21.41,21.79,37.55,48.2,36.86-14.87,0-26.94-12.06-26.94-26.94s12.06-26.94,26.94-26.94c16.45,0,28.33,12,26.97,27.55-.16,1.79-.13,3.64-.62,5.41-10.3,37.11-27,72.16-33.48,91.36l7.14,11.44c18.18-25.6,49.31-78,49.31-108.82,0-27.23-22.08-49.31-49.31-49.31-23.75,0-43.58,16.8-48.26,39.16h0Z"/>
  <path class="cls-1" d="M2615.75,1180.56c7.56-15.04,31.73-75.6,33.5-91.43-.2.72-4.57,20.64-26.37,20.99-22.03.35-42.54-15.15-48.2-36.86-.02-.08-.04-.15-.06-.23-5.69,27.18,22.81,77.71,41.13,107.53h0Z"/>
  <path class="cls-4" d="M2475.39,2789.33c-.43-1.99-.86-3.97-1.29-5.95-.88-9.79-2.54-19.82-5.98-28.95-1.48-4.88-3.5-9.55-6.5-13.72-5.69-7.91-15.05-11.03-24.51-9.79-4.93.65-9.29,2.84-13.08,5.99-3.78,3.13-5.56,7.84-8.31,11.79-3.13-6.67-3.84-14.31-7.71-20.69-3.92-6.48-8.68-12.5-15.51-16.04-13.33-6.9-27.37,1.81-35.6,12.47-1.66-3.59-2.72-7.4-3.88-11.19-1.23-4.04-2.97-7.86-4.8-11.67-3.8-7.94-8.65-15.39-14.99-21.54-12.75-12.37-30.83-14.07-45.18-3.55-13.14,9.64-20.86,25.04-27.18,39.62-3.4,7.83-6.7,15.76-9.56,23.8-3.43,9.63-6.17,19.5-9.42,29.19-13.43-13.48-26.34,19.06-22.15,30.46.27.73.98.93,1.56.76,10.26,1.14,20.82.72,31.14,1.19,4.97.23,9.94.47,14.92.69,2.09.35,4.19.64,6.32.82,7.35.64,14.7.74,22.07.66,6.25-.07,12.49-.43,18.72-.89,11.41-.21,22.83-.55,34.22-.78,20.98-.41,41.97-.82,62.95-1.05,21.06-.23,42.19-.63,63.21,1.07.67.05,1.12-.26,1.35-.7.23-.18.39-.44.44-.79.51-3.72-.47-7.61-1.25-11.23Z"/>
  <text class="cls-6" transform="translate(2246.67 2868.29)"><tspan x="0" y="0">M </tspan><tspan class="cls-5" x="42.6" y="0">U</tspan><tspan x="74.5" y="0"> </tspan><tspan class="cls-3" x="84.75" y="0">R</tspan><tspan x="113.12" y="0" xml:space="preserve"> R</tspan><tspan class="cls-2" x="147.64" y="0" xml:space="preserve"> E</tspan><tspan x="184.91" y="0" xml:space="preserve"> E </tspan></text>
</svg>