<svg id="Layer_1" data-name="Layer 1" xmlns="http://www.w3.org/2000/svg" viewBox="0 0 1920 1080"><defs><style>.cls-1{fill:#fff;opacity:0.5;}</style></defs><path class="cls-1" d="M820.92,411.17v45.4L857,458.25l242.29,2v-49.1L855.47,413Z"/><path class="cls-1" d="M1143.32,416.82h205.14l16.51,3.52,72,0c25.1,16.09,43.87,27.67,69,43.76v9.25l-75.89.61h-65.43l-17.12-8.4-204.31.38Z"/><path class="cls-1" d="M783,410.54v43.31l-17.13-.51-62-.51L615,454.36c-60.79.11-118.47-.86-179.26-.76-.1-16.87-.28-25-.39-41.88,55.09,0,105.67-.6,160.75-.55h28.85Z"/><polygon class="cls-1" points="436.3 390.8 435.62 391.22 435.62 390.79 436.3 390.8"/></svg>