<svg id="Layer_1" data-name="Layer 1" xmlns="http://www.w3.org/2000/svg" viewBox="0 0 1920 1080"><defs><style>.cls-1{fill:#fff;opacity:0.5;}</style></defs><line class="cls-1" x1="687.17" y1="922.66" x2="428.82" y2="924.18"/><path class="cls-1" d="M1420.24,409.94H1206.3L1143,410q.16-20.67.31-41.35l46.47-106.09,176.1,112.81L1391,391.9Z"/><path class="cls-1" d="M783.06,366c0,9.36,0,20,0,29.35-13.29,0-29.29-.52-42.58-.54H720.32c-44,.53-85.62-1.37-129.65-.84l-161.43,1.38.19-13.42L607.37,263.8l13.76,15.29L709.79,221h1.45Z"/><polygon class="cls-1" points="820.92 401.99 1099.29 401.99 1099.29 331.98 1086.15 272.98 836.36 272.98 820.92 332.29 820.92 401.99"/></svg>