<svg id="Layer_1" data-name="Layer 1" xmlns="http://www.w3.org/2000/svg" viewBox="0 0 1920 1080"><defs><style>.cls-1{fill:#fff;opacity:0.5;}</style></defs><path class="cls-1" d="M820.92,522.83v44.26L855,574.66l244.28-1.15V525.59l-243.62,1Z"/><path class="cls-1" d="M1512.8,534.93q-.08,23-.16,46l-150-1.53-16-3.46H1345c-53.73-.68-148-1.05-201.7-1.73-.31-15.18.31-30.65,0-45.83,54.11,0,147.82.08,201.93.11l18.58,6.65Z"/><path class="cls-1" d="M783.06,519.38v50.14l-21.14-.5-63.14-1.46H611.65l-182.37.31q-.15-25.3-.31-50.6l165.25.15,30,1.53h29.05L697,517.42Z"/></svg>