<svg id="Layer_1" data-name="Layer 1" xmlns="http://www.w3.org/2000/svg" viewBox="0 0 1920 1080"><defs><style>.cls-1{font-size:18px;font-family:GillSansMTPro-Book, Gill Sans MT Pro;}.cls-1,.cls-2{fill:#fcf7eb;}</style></defs><text class="cls-1" transform="translate(881.77 101.41)">Road View</text><path class="cls-2" d="M821.94,65.58a3.47,3.47,0,0,1,.66.79c.24.59-.06,1.08-.73,1.45-1.63.9-3.28,1.78-4.88,2.74a13.29,13.29,0,0,0-3.68,3.17,3.25,3.25,0,0,0,.34,4.89,14.67,14.67,0,0,0,5,3c2,.77,4,1.42,6,2.16a18.82,18.82,0,0,1,8.16,5.47,15.37,15.37,0,0,1,3.49,9.67A29,29,0,0,1,834,110.29c-.34.88-.76,1.72-1.1,2.6a4,4,0,0,1-2.77,2.71h-15c-.32-.24-.6-.51-.44-1s.54-.5,1-.5c3.12,0,6.25,0,9.37,0a.82.82,0,0,0,.78-.43,34.32,34.32,0,0,0,5-10.66c.15-.63.25-1.28.38-1.92a2,2,0,0,1,0-.24c.11-.5.42-.74.84-.67a.72.72,0,0,1,.6.9,23.92,23.92,0,0,1-1.66,6.05,39,39,0,0,1-3.39,6.46l-.31.49c.9,0,1.73,0,2.55,0a1.68,1.68,0,0,0,1.41-1.07,37.92,37.92,0,0,0,3-8.66,20.83,20.83,0,0,0,.31-7.75,13.63,13.63,0,0,0-6.74-9.73,30.63,30.63,0,0,0-6.64-2.76,26.69,26.69,0,0,1-7.49-3.55,7.54,7.54,0,0,1-2.3-2.5,4.05,4.05,0,0,1-.43-2.73.78.78,0,0,0,0-.37,3.59,3.59,0,0,0-.47,3,6,6,0,0,0,2.16,2.88,22.51,22.51,0,0,0,6,3.28,52,52,0,0,1,6.43,2.64,14.81,14.81,0,0,1,6.48,6.48,12.75,12.75,0,0,1,1.11,3.92,1.41,1.41,0,0,1,0,.58.67.67,0,0,1-.76.48c-.42,0-.58-.33-.67-.72a22.18,22.18,0,0,0-.66-2.79,11.93,11.93,0,0,0-4.91-5.88A28.1,28.1,0,0,0,819.42,86a26.16,26.16,0,0,1-7.24-3.63,11.16,11.16,0,0,1-2.09-2,5.18,5.18,0,0,1-.5-6,13.13,13.13,0,0,1,4.09-4.39c1.4-1,2.89-1.91,4.32-2.86a8.19,8.19,0,0,0-4.14.64,63.71,63.71,0,0,0-9.53,5.79A19.86,19.86,0,0,0,799.84,78a6.76,6.76,0,0,0-1.25,3.23A5.58,5.58,0,0,0,800.74,86c.81.73,1.75,1.3,2.61,2a37.17,37.17,0,0,1,3.47,2.76,8.7,8.7,0,0,1,1.88,10.54,22,22,0,0,1-4.88,6.53,52.56,52.56,0,0,1-7.35,5.87l-.72.49h15.92c.42,0,.79,0,1,.5s-.11.73-.45,1H789.7a4.35,4.35,0,0,1-.7-.57,1.64,1.64,0,0,1,.42-2.46c1.51-1,3.05-1.92,4.54-2.94a41.21,41.21,0,0,0,7.29-6.09,14.81,14.81,0,0,0,2.77-4,5.81,5.81,0,0,0-1-6.61,16.3,16.3,0,0,0-3-2.52,29.59,29.59,0,0,1-3.37-2.63,6.4,6.4,0,0,1-2.12-5.35,8.05,8.05,0,0,1,1.5-3.81,20.17,20.17,0,0,1,5.25-5,99.7,99.7,0,0,1,12.4-7.33,18.37,18.37,0,0,1,1.76-.62ZM797.49,79A6.61,6.61,0,0,0,796,82.5a5,5,0,0,0,1.7,4.24,27.46,27.46,0,0,0,3.08,2.38,17,17,0,0,1,3.49,2.94A7.14,7.14,0,0,1,806,97.88a10,10,0,0,1-1.52,3.87,26.78,26.78,0,0,1-6,6.38,78,78,0,0,1-8,5.52,2.79,2.79,0,0,0-.42.35l.08.14h2.77a.63.63,0,0,0,.31-.12,57.3,57.3,0,0,0,9.54-7.16,19.48,19.48,0,0,0,4.67-6.24,7.46,7.46,0,0,0-1-8.18,15.78,15.78,0,0,0-3.89-3.3,22.92,22.92,0,0,1-2.4-1.74c-2.55-2.19-3.81-4.89-2.5-8.28V79Z"/><path class="cls-2" d="M819.85,97.92c0-.2,0-.39,0-.59a.74.74,0,0,1,.67-.76.71.71,0,0,1,.77.66,10.29,10.29,0,0,1,0,1.36.65.65,0,0,1-.73.63.68.68,0,0,1-.71-.67c0-.21,0-.42,0-.63Z"/><path class="cls-2" d="M802.89,79.75c0-.45.12-.82.6-1a.72.72,0,0,1,.88.62c0,.4.09.81.11,1.22a.69.69,0,0,1-.58.78.69.69,0,0,1-.84-.55C803,80.5,803,80.12,802.89,79.75Z"/><path class="cls-2" d="M811.68,87.55c0,.66-.51,1-1,.82a8,8,0,0,1-1.2-.63.67.67,0,0,1-.26-.93.69.69,0,0,1,1-.33,7.87,7.87,0,0,1,1.11.59A1.65,1.65,0,0,1,811.68,87.55Z"/><path class="cls-2" d="M816.71,105.82c.15.13.42.25.51.45a.86.86,0,0,1,0,.72,5.9,5.9,0,0,1-.94,1.06.6.6,0,0,1-.88,0c-.17-.2-.33-.64-.23-.8a8.85,8.85,0,0,1,1.14-1.31C816.36,105.88,816.5,105.88,816.71,105.82Z"/><path class="cls-2" d="M816.27,90a.74.74,0,0,1-1,.8A8,8,0,0,1,814,90a.66.66,0,0,1-.14-.92.63.63,0,0,1,.84-.31,8.51,8.51,0,0,1,1.29.78C816.17,89.65,816.22,89.87,816.27,90Z"/><path class="cls-2" d="M818.59,91.91l.21,0c.34.11,1.24,1.23,1.18,1.58a1,1,0,0,1-.4.69.8.8,0,0,1-.75-.09,5.29,5.29,0,0,1-.91-1.19A.71.71,0,0,1,818.59,91.91Z"/><path class="cls-2" d="M805.74,74.18a.73.73,0,0,1,.65,1.14,9,9,0,0,1-.83,1,.68.68,0,0,1-.89.12.6.6,0,0,1-.3-.83,9.83,9.83,0,0,1,1.08-1.35C805.52,74.2,805.69,74.2,805.74,74.18Z"/><path class="cls-2" d="M807.37,85c-.12.15-.24.42-.44.51a.86.86,0,0,1-.72,0,4.54,4.54,0,0,1-1.05-1,.9.9,0,0,1,0-.83.86.86,0,0,1,.78-.24,9.46,9.46,0,0,1,1.29,1.16C807.32,84.66,807.31,84.81,807.37,85Z"/><path class="cls-2" d="M819.06,104.08a.74.74,0,0,1-.79-1,9.25,9.25,0,0,1,.6-1.12.67.67,0,0,1,.89-.27.65.65,0,0,1,.41.84,8.2,8.2,0,0,1-.73,1.37C819.36,104,819.13,104,819.06,104.08Z"/><path class="cls-2" d="M810,72a1.25,1.25,0,0,1-1.49,1,.67.67,0,0,1-.43-.82,1.45,1.45,0,0,1,1.32-.86A.65.65,0,0,1,810,72Z"/><path class="cls-2" d="M813.64,110.26a1.45,1.45,0,0,1-1.23,1.07.74.74,0,0,1-.7-.74,1.48,1.48,0,0,1,1.24-1.07A.72.72,0,0,1,813.64,110.26Z"/><text class="cls-1" transform="translate(947.1 1004.14)">Hill View</text><path class="cls-2" d="M881.78,1010.91H845.17a4.84,4.84,0,0,1-.85,0,.73.73,0,0,1-.54-1.07,3.2,3.2,0,0,1,.3-.45q4.24-5.88,8.49-11.77a1.49,1.49,0,0,1,1.42-.74,17.11,17.11,0,0,0,2.48,0,1.39,1.39,0,0,0,.86-.45q2.31-3.12,4.54-6.3a1.46,1.46,0,0,1,1.37-.68c1,0,2.07,0,3.11,0a1.17,1.17,0,0,0,1.09-.54c3.13-4.12,6.29-8.22,9.44-12.33.85-1.11,1.1-1.12,2-.1q5.15,5.67,10.26,11.36a1.44,1.44,0,0,0,1.2.51c1.27,0,2.54-.05,3.81,0a2.08,2.08,0,0,1,1.21.5c2.08,2,4.12,4,6.2,6a1.79,1.79,0,0,0,1.13.46c1.53.05,3.06,0,4.58.05a1.9,1.9,0,0,1,1.24.58q5.47,6.66,10.88,13.38c.23.3.45.87.31,1.13s-.71.44-1.1.45Q900.2,1010.93,881.78,1010.91ZM871.3,993.34c-.67,1.3-1.29,2.49-1.89,3.69a1.31,1.31,0,0,0-.08.53q-.15,3.72-.29,7.45c0,.53-.08,1-.69,1.13s-.82-.41-1-.89c-.31-.84-.62-1.67-1-2.66l-3.31,6.7a1.73,1.73,0,0,0,.27.06c5.21,0,10.41,0,15.62,0a1.3,1.3,0,0,0,.82-.43q2.7-3.06,5.33-6.18a1.9,1.9,0,0,0,.4-1c.21-2,.35-4,.56-6,.1-1,.66-1.18,1.44-.63l2.1,1.55c-.32-2.16-.65-4.15-.89-6.15a3,3,0,0,0-.9-1.81c-3.09-3.38-6.15-6.79-9.23-10.19-.13-.14-.29-.26-.46-.42-1.3,3.2-2.58,6.33-3.84,9.47a2.48,2.48,0,0,0-.14,1c0,2.74.08,5.49.13,8.23,0,.51,0,1-.65,1.15s-.84-.36-1-.84C872.2,995.82,871.77,994.64,871.3,993.34Zm3.27-10.8-.19-.12c-.17.21-.34.41-.5.62q-2.82,3.66-5.62,7.33A1.34,1.34,0,0,1,867,991c-1.09,0-2.18,0-3.26,0a1.42,1.42,0,0,0-.93.47q-2.31,3.12-4.54,6.29a1.36,1.36,0,0,1-1.3.66c-.8,0-1.6,0-2.4,0a1.12,1.12,0,0,0-1.09.54c-2.33,3.26-4.68,6.5-7,9.75-.13.18-.23.37-.36.57.11,0,.15.08.2.08,4.84,0,9.68,0,14.53,0a1,1,0,0,0,.67-.45c.46-.84.86-1.71,1.28-2.56,1-1.92,1.88-3.86,2.87-5.76a1.32,1.32,0,0,1,.89-.67c.24,0,.52.45.76.72a1.93,1.93,0,0,1,.23.48,12.85,12.85,0,0,0,.17-2.37,5.63,5.63,0,0,1,.17-2.07c.86-1.9,1.86-3.74,2.85-5.58a1,1,0,0,1,.75-.4c.24,0,.5.29.67.52a4.19,4.19,0,0,1,.34.81,1,1,0,0,0,.11-.6,12.94,12.94,0,0,1,1.48-7.62A13.24,13.24,0,0,0,874.57,982.54Zm21.5,9.31L896,992a1.6,1.6,0,0,1,.12.37l2.52,11.11c.12.53.38,1.12-.25,1.46s-1-.23-1.4-.65L894,1001c-1.16,1-2.17,2-2.25,3.63s-.44,3.11-.67,4.66h26.3c-3.29-4-6.52-8-9.77-12a4.1,4.1,0,0,0-1-.6c.06.58.08.88.13,1.19.34,2.46.69,4.91,1,7.37.07.5.11,1-.47,1.15s-.87-.22-1.12-.67q-2.38-4.31-4.8-8.6a3.81,3.81,0,0,0-.63-.86c-1.36-1.36-2.73-2.69-4.11-4A5.72,5.72,0,0,0,896.07,991.85Zm-14.54,17.44h8c.13-.88.29-1.7.37-2.52.25-2.8.69-5.5,3.29-7.21a.57.57,0,0,0,.11-.11c.6-.58.91-.57,1.49.06s1.06,1.16,1.59,1.74l.13-.07-2.55-11.25H890.2c.4,2.69.82,5.32,1.17,8A1.41,1.41,0,0,1,891,999c-.19.15-.77,0-1.07-.25-.81-.52-1.56-1.12-2.42-1.76-.16,1.81-.27,3.49-.47,5.16a2.59,2.59,0,0,1-.52,1.32C884.91,1005.41,883.25,1007.29,881.53,1009.29Zm21.52-12.38,2.4,4.31.17-.07-.61-4.24Zm-28.47-14.5,0,0-.1-.05,0,0Z"/></svg>