<svg width="18" height="17" viewBox="0 0 18 17" fill="none" xmlns="http://www.w3.org/2000/svg">
<path d="M2.27582 16.8286C1.84276 16.8286 1.47465 16.677 1.17151 16.3739C0.868368 16.0708 0.716797 15.7027 0.716797 15.2696V3.83679C0.716797 3.41455 0.868368 3.04916 1.17151 2.7406C1.47465 2.43204 1.84276 2.27777 2.27582 2.27777H4.87418V0.718746C4.87418 0.578001 4.92561 0.456204 5.02846 0.353352C5.13131 0.2505 5.25311 0.199074 5.39386 0.199074C5.5346 0.199074 5.6564 0.2505 5.75925 0.353352C5.8621 0.456204 5.91353 0.578001 5.91353 0.718746V2.27777H12.1496V0.718746C12.1496 0.578001 12.201 0.456204 12.3039 0.353352C12.4067 0.2505 12.5285 0.199074 12.6693 0.199074C12.81 0.199074 12.9318 0.2505 13.0347 0.353352C13.1375 0.456204 13.189 0.578001 13.189 0.718746V2.27777H15.7873C16.2204 2.27777 16.5885 2.43204 16.8916 2.7406C17.1948 3.04916 17.3463 3.41455 17.3463 3.83679V15.2696C17.3463 15.7027 17.1948 16.0708 16.8916 16.3739C16.5885 16.677 16.2204 16.8286 15.7873 16.8286H2.27582ZM1.75614 15.2696C1.75614 15.4212 1.80757 15.5457 1.91042 15.6431C2.01327 15.7405 2.13507 15.7893 2.27582 15.7893H15.7873C15.9281 15.7893 16.0499 15.7405 16.1527 15.6431C16.2556 15.5457 16.307 15.4212 16.307 15.2696V7.4745H1.75614V15.2696ZM16.307 6.43515V3.83679C16.307 3.69604 16.2556 3.57424 16.1527 3.47139C16.0499 3.36854 15.9281 3.31711 15.7873 3.31711H13.189V4.35646C13.189 4.50803 13.1375 4.63254 13.0347 4.72997C12.9318 4.82741 12.81 4.87613 12.6693 4.87613C12.5285 4.87613 12.4067 4.82741 12.3039 4.72997C12.201 4.63254 12.1496 4.50803 12.1496 4.35646V3.31711H5.91353V4.35646C5.91353 4.50803 5.8621 4.63254 5.75925 4.72997C5.6564 4.82741 5.5346 4.87613 5.39386 4.87613C5.25311 4.87613 5.13131 4.82741 5.02846 4.72997C4.92561 4.63254 4.87418 4.50803 4.87418 4.35646V3.31711H2.27582C2.13507 3.31711 2.01327 3.36854 1.91042 3.47139C1.80757 3.57424 1.75614 3.69604 1.75614 3.83679V6.43515H16.307ZM5.39386 9.81303C5.39386 10.0296 5.31807 10.2136 5.1665 10.3652C5.01493 10.5168 4.83088 10.5925 4.61435 10.5925C4.39781 10.5925 4.21376 10.5168 4.06219 10.3652C3.91062 10.2136 3.83484 10.0296 3.83484 9.81303C3.83484 9.5965 3.91062 9.41245 4.06219 9.26087C4.21376 9.1093 4.39781 9.03352 4.61435 9.03352C4.83088 9.03352 5.01493 9.1093 5.1665 9.26087C5.31807 9.41245 5.39386 9.5965 5.39386 9.81303ZM5.39386 13.4507C5.39386 13.6673 5.31807 13.8513 5.1665 14.0029C5.01493 14.1545 4.83088 14.2302 4.61435 14.2302C4.39781 14.2302 4.21376 14.1545 4.06219 14.0029C3.91062 13.8513 3.83484 13.6673 3.83484 13.4507C3.83484 13.2342 3.91062 13.0502 4.06219 12.8986C4.21376 12.747 4.39781 12.6712 4.61435 12.6712C4.83088 12.6712 5.01493 12.747 5.1665 12.8986C5.31807 13.0502 5.39386 13.2342 5.39386 13.4507ZM9.81108 9.81303C9.81108 10.0296 9.73529 10.2136 9.58372 10.3652C9.43215 10.5168 9.2481 10.5925 9.03157 10.5925C8.81504 10.5925 8.63099 10.5168 8.47941 10.3652C8.32784 10.2136 8.25206 10.0296 8.25206 9.81303C8.25206 9.5965 8.32784 9.41245 8.47941 9.26087C8.63099 9.1093 8.81504 9.03352 9.03157 9.03352C9.2481 9.03352 9.43215 9.1093 9.58372 9.26087C9.73529 9.41245 9.81108 9.5965 9.81108 9.81303ZM9.81108 13.4507C9.81108 13.6673 9.73529 13.8513 9.58372 14.0029C9.43215 14.1545 9.2481 14.2302 9.03157 14.2302C8.81504 14.2302 8.63099 14.1545 8.47941 14.0029C8.32784 13.8513 8.25206 13.6673 8.25206 13.4507C8.25206 13.2342 8.32784 13.0502 8.47941 12.8986C8.63099 12.747 8.81504 12.6712 9.03157 12.6712C9.2481 12.6712 9.43215 12.747 9.58372 12.8986C9.73529 13.0502 9.81108 13.2342 9.81108 13.4507ZM14.2283 9.81303C14.2283 10.0296 14.1525 10.2136 14.0009 10.3652C13.8494 10.5168 13.6653 10.5925 13.4488 10.5925C13.2323 10.5925 13.0482 10.5168 12.8966 10.3652C12.7451 10.2136 12.6693 10.0296 12.6693 9.81303C12.6693 9.5965 12.7451 9.41245 12.8966 9.26087C13.0482 9.1093 13.2323 9.03352 13.4488 9.03352C13.6653 9.03352 13.8494 9.1093 14.0009 9.26087C14.1525 9.41245 14.2283 9.5965 14.2283 9.81303ZM13.4488 14.2302C13.2323 14.2302 13.0482 14.1545 12.8966 14.0029C12.7451 13.8513 12.6693 13.6673 12.6693 13.4507C12.6693 13.2342 12.7451 13.0502 12.8966 12.8986C13.0482 12.747 13.2323 12.6712 13.4488 12.6712C13.4488 12.6712 13.4515 12.6712 13.4569 12.6712C13.4623 12.6712 13.4704 12.6712 13.4813 12.6712C13.4813 12.6712 13.484 12.6739 13.4894 12.6793C13.4948 12.6848 13.4975 12.6875 13.4975 12.6875C13.7032 12.6983 13.8764 12.7768 14.0172 12.9229C14.1579 13.0691 14.2283 13.245 14.2283 13.4507C14.2283 13.6673 14.1525 13.8513 14.0009 14.0029C13.8494 14.1545 13.6653 14.2302 13.4488 14.2302Z" fill="#636363"/>
</svg>
