<svg width="11" height="13" viewBox="0 0 11 13" fill="none" xmlns="http://www.w3.org/2000/svg">
<path d="M5.25 6.62598C4.83594 6.62598 4.44531 6.54785 4.07812 6.3916C3.71875 6.23535 3.40234 6.02051 3.12891 5.74707C2.85547 5.47363 2.64062 5.15723 2.48438 4.79785C2.32812 4.43066 2.25 4.04004 2.25 3.62598C2.25 3.21191 2.32812 2.8252 2.48438 2.46582C2.64062 2.09863 2.85547 1.78027 3.12891 1.51074C3.40234 1.24121 3.71875 1.02441 4.07812 0.860352C4.44531 0.704102 4.83594 0.625977 5.25 0.625977C5.66406 0.625977 6.05469 0.704102 6.42188 0.860352C6.78125 1.02441 7.09766 1.24121 7.37109 1.51074C7.64453 1.78027 7.85938 2.09863 8.01562 2.46582C8.17188 2.8252 8.25 3.21191 8.25 3.62598C8.25 4.04004 8.17188 4.43066 8.01562 4.79785C7.85938 5.15723 7.64453 5.47363 7.37109 5.74707C7.09766 6.02051 6.78125 6.23535 6.42188 6.3916C6.05469 6.54785 5.66406 6.62598 5.25 6.62598ZM5.25 1.37598C4.63281 1.37598 4.10352 1.59668 3.66211 2.03809C3.2207 2.47949 3 3.00879 3 3.62598C3 4.25098 3.2207 4.78223 3.66211 5.21973C4.10352 5.65723 4.63281 5.87598 5.25 5.87598C5.86719 5.87598 6.39648 5.65723 6.83789 5.21973C7.2793 4.78223 7.5 4.25098 7.5 3.62598C7.5 3.00879 7.2793 2.47949 6.83789 2.03809C6.39648 1.59668 5.86719 1.37598 5.25 1.37598ZM10.125 12.626C10.0234 12.626 9.93555 12.5908 9.86133 12.5205C9.78711 12.4502 9.75 12.3604 9.75 12.251C9.75 11.6338 9.63281 11.0518 9.39844 10.5049C9.16406 9.95801 8.8418 9.48145 8.43164 9.0752C8.02148 8.66895 7.54297 8.34863 6.99609 8.11426C6.44922 7.87207 5.86719 7.75098 5.25 7.75098C4.63281 7.75098 4.05078 7.87207 3.50391 8.11426C2.95703 8.34863 2.47852 8.66895 2.06836 9.0752C1.6582 9.48145 1.33594 9.95801 1.10156 10.5049C0.867188 11.0518 0.75 11.6338 0.75 12.251C0.75 12.3604 0.712891 12.4502 0.638672 12.5205C0.564453 12.5908 0.476562 12.626 0.375 12.626C0.273438 12.626 0.185547 12.5908 0.111328 12.5205C0.0371094 12.4502 0 12.3604 0 12.251C0 11.5322 0.136719 10.8525 0.410156 10.2119C0.691406 9.5791 1.06836 9.02441 1.54102 8.54785C2.01367 8.07129 2.57031 7.69629 3.21094 7.42285C3.84375 7.1416 4.52344 7.00098 5.25 7.00098C5.97656 7.00098 6.65625 7.1416 7.28906 7.42285C7.92969 7.69629 8.48633 8.07129 8.95898 8.54785C9.43164 9.02441 9.80859 9.5791 10.0898 10.2119C10.3633 10.8525 10.5 11.5322 10.5 12.251C10.5 12.3604 10.4629 12.4502 10.3887 12.5205C10.3145 12.5908 10.2266 12.626 10.125 12.626Z" fill="#636363"/>
</svg>
