<?xml version="1.0" encoding="UTF-8"?>
<svg xmlns="http://www.w3.org/2000/svg" xmlns:xlink="http://www.w3.org/1999/xlink" viewBox="0 0 870.03 500">
  <defs>
    <style>
      .cls-1 {
        fill: #fbf7eb;
        stroke-width: 0px;
      }

      .cls-2 {
        stroke-width: 3px;
      }

      .cls-2, .cls-3 {
        stroke: #fff;
      }

      .cls-2, .cls-3, .cls-4 {
        fill: none;
        stroke-miterlimit: 10;
      }

      .cls-5 {
        filter: url(#drop-shadow-15);
      }

      .cls-5, .cls-6 {
        fill: #fff;
        font-family: GillSansMTPro-Medium, 'Gill Sans MT Pro';
        font-size: 75px;
        font-weight: 500;
      }

      .cls-4 {
        stroke: #fbf7eb;
        stroke-width: 5px;
      }

      .cls-7 {
        clip-path: url(#clippath);
      }

      .cls-6 {
        filter: url(#drop-shadow-3);
      }
    </style>
    <clipPath id="clippath">
      <rect class="cls-3" x="-1555.17" y="-1977.84" width="7372" height="3072"/>
    </clipPath>
    <filter id="drop-shadow-3" filterUnits="userSpaceOnUse">
      <feOffset dx="1" dy="1"/>
      <feGaussianBlur result="blur" stdDeviation="2"/>
      <feFlood flood-color="#010101" flood-opacity=".75"/>
      <feComposite in2="blur" operator="in"/>
      <feComposite in="SourceGraphic"/>
    </filter>
    <filter id="drop-shadow-15" filterUnits="userSpaceOnUse">
      <feOffset dx="1" dy="1"/>
      <feGaussianBlur result="blur-2" stdDeviation="2"/>
      <feFlood flood-color="#010101" flood-opacity=".75"/>
      <feComposite in2="blur-2" operator="in"/>
      <feComposite in="SourceGraphic"/>
    </filter>
  </defs>
  <g id="Layer_2" data-name="Layer 2">
    <g>
      <g class="cls-7">
        <text class="cls-6" transform="translate(88.36 288.28)"><tspan x="0" y="0">Ayubia Forest</tspan><tspan x="109.35" y="81.74">House</tspan></text>
      </g>
      <rect class="cls-3" x="-1555.17" y="-1977.84" width="7372" height="3072"/>
    </g>
    <polyline class="cls-2" points="696.17 176.32 497.34 177.64 477.7 218.7"/>
    <g>
      <polygon class="cls-1" points="728.31 164.99 731.69 168.37 735.28 164.78 735.28 172.17 740.06 172.17 740.06 164.78 743.65 168.37 747.03 164.99 743.44 161.4 750.82 161.4 750.82 156.62 743.44 156.62 747.03 153.03 743.65 149.65 740.06 153.24 740.06 145.86 735.28 145.86 735.28 153.24 731.69 149.65 728.31 153.03 731.89 156.62 724.51 156.62 724.51 161.4 731.89 161.4 728.31 164.99"/>
      <path class="cls-1" d="M778.33,193.75c.23.07.42.22.82.56.82.71,2.07,1.77,4.35,1.77s3.53-1.07,4.35-1.77c.61-.52.74-.62,1.24-.62,1.32,0,2.39-1.07,2.39-2.39,0-5.13-1.39-10.16-4.03-14.56l-2.05-3.41c.16-.13.33-.26.46-.37.51-.44.55-.45.84-.45,1.32,0,2.39-1.07,2.39-2.39,0-4.46-1.21-8.83-3.5-12.66l-8.08-13.47c-1.08-1.8-3.06-2.92-5.16-2.92s-4.07,1.12-5.16,2.92l-8.08,13.47c-2.29,3.82-3.5,8.2-3.5,12.65,0,1.32,1.07,2.39,2.39,2.39.29,0,.32.01.83.45.13.11.3.25.46.38l-2.04,3.41c-2.64,4.4-4.03,9.43-4.03,14.56,0,1.32,1.07,2.39,2.39,2.39.49,0,.62.1,1.23.62.82.71,2.06,1.77,4.34,1.77s3.52-1.07,4.35-1.77c.41-.35.61-.51.85-.57v14.3h-8.37v-2.39c0-3.77-2.92-6.87-6.62-7.15-1.49-4.22-5.53-7.2-10.12-7.2s-8.63,2.98-10.12,7.2c-3.7.28-6.62,3.38-6.62,7.15v2.39h-4.78v4.78h71.75v-4.78h-13.15v-14.29ZM763.21,159.92l8.08-13.47c.44-.74,1.67-.74,2.11,0l8.08,13.47c1.53,2.56,2.47,5.42,2.74,8.37-.65.33-1.12.73-1.47,1.03-.51.44-.55.45-.84.45s-.33-.01-.84-.45c-.7-.6-1.87-1.6-3.95-1.6s-3.25,1-3.95,1.6c-.51.44-.55.45-.83.45s-.32-.01-.83-.45c-.7-.6-1.87-1.6-3.95-1.6s-3.25,1-3.95,1.6c-.51.44-.55.45-.83.45s-.32-.01-.83-.45c-.35-.3-.82-.71-1.47-1.03.27-2.95,1.21-5.82,2.74-8.37ZM762.41,190.68c-.61.52-.74.62-1.23.62s-.62-.1-1.23-.62c-.46-.39-1.05-.9-1.88-1.27.29-3.6,1.41-7.1,3.27-10.21l2.9-4.84c1.19-.32,1.96-.97,2.47-1.4.51-.44.55-.45.83-.45s.32.01.83.45c.7.6,1.87,1.6,3.95,1.6s3.25-1,3.95-1.6c.51-.44.55-.45.83-.45s.33.01.84.45c.51.44,1.29,1.09,2.49,1.41l2.9,4.83c1.87,3.11,2.98,6.61,3.27,10.2-.83.37-1.42.88-1.88,1.27-.61.52-.74.62-1.24.62s-.63-.1-1.24-.62c-.82-.7-2.07-1.77-4.35-1.77s-3.52,1.07-4.35,1.77c-.61.52-.74.62-1.23.62s-.62-.1-1.23-.62c-.82-.71-2.07-1.77-4.35-1.77s-3.52,1.07-4.34,1.77ZM771.15,195.94c.37.07.74.14,1.18.14s.84-.07,1.21-.14v12.1h-2.39v-12.1ZM729.3,205.65c0-1.32,1.07-2.39,2.39-2.39h1.32c1.19,0,2.2-.87,2.37-2.05.42-2.92,2.95-5.13,5.88-5.13s5.46,2.2,5.88,5.13c.17,1.18,1.18,2.05,2.37,2.05h1.32c1.32,0,2.39,1.07,2.39,2.39v2.39h-23.92v-2.39Z"/>
    </g>
    <circle class="cls-4" cx="753.99" cy="175.19" r="61"/>
  </g>
  <g id="Layer_10" data-name="Layer 10">
    <text class="cls-5" transform="translate(90 288.28)"><tspan x="0" y="0">Ayubia Forest</tspan><tspan x="109.35" y="81.74">House</tspan></text>
  </g>
</svg>