<?xml version="1.0" encoding="UTF-8"?>
<svg xmlns="http://www.w3.org/2000/svg" xmlns:xlink="http://www.w3.org/1999/xlink" viewBox="0 0 665.44 530.03">
  <defs>
    <style>
      .cls-1 {
        fill: #fbf7eb;
        stroke-width: 0px;
      }

      .cls-2 {
        filter: url(#drop-shadow-1);
      }

      .cls-2, .cls-3, .cls-4 {
        fill: #fff;
        font-family: GillSansMTPro-Medium, 'Gill Sans MT Pro';
        font-size: 75px;
        font-weight: 500;
      }

      .cls-5 {
        stroke-width: 3px;
      }

      .cls-5, .cls-6 {
        stroke: #fff;
      }

      .cls-5, .cls-6, .cls-7 {
        fill: none;
        stroke-miterlimit: 10;
      }

      .cls-7 {
        stroke: #fbf7eb;
        stroke-width: 5px;
      }

      .cls-3 {
        filter: url(#drop-shadow-7);
      }

      .cls-8 {
        clip-path: url(#clippath);
      }

      .cls-4 {
        filter: url(#drop-shadow-12);
      }
    </style>
    <clipPath id="clippath">
      <rect class="cls-6" x="-4689.69" y="-560.31" width="7372" height="3072"/>
    </clipPath>
    <filter id="drop-shadow-1" filterUnits="userSpaceOnUse">
      <feOffset dx="1" dy="1"/>
      <feGaussianBlur result="blur" stdDeviation="2"/>
      <feFlood flood-color="#010101" flood-opacity=".75"/>
      <feComposite in2="blur" operator="in"/>
      <feComposite in="SourceGraphic"/>
    </filter>
    <filter id="drop-shadow-7" filterUnits="userSpaceOnUse">
      <feOffset dx="1" dy="1"/>
      <feGaussianBlur result="blur-2" stdDeviation="2"/>
      <feFlood flood-color="#010101" flood-opacity=".75"/>
      <feComposite in2="blur-2" operator="in"/>
      <feComposite in="SourceGraphic"/>
    </filter>
    <filter id="drop-shadow-12" filterUnits="userSpaceOnUse">
      <feOffset dx="1" dy="1"/>
      <feGaussianBlur result="blur-3" stdDeviation="2"/>
      <feFlood flood-color="#010101" flood-opacity=".75"/>
      <feComposite in2="blur-3" operator="in"/>
      <feComposite in="SourceGraphic"/>
    </filter>
  </defs>
  <g id="Layer_2" data-name="Layer 2">
    <g>
      <g class="cls-8">
        <text class="cls-2" transform="translate(203 409.31)"><tspan x="0" y="0">Ayubia Moto </tspan><tspan x="103.76" y="80">Tunnel</tspan></text>
      </g>
      <rect class="cls-6" x="-4689.69" y="-560.31" width="7372" height="3072"/>
    </g>
    <polyline class="cls-5" points="151 134.06 151 332.89 191.92 352.8"/>
    <path class="cls-1" d="M174.88,44.4c-7.3-6.85-16.86-10.24-26.89-9.61-18.76,1.22-33.46,17.42-33.46,36.89v31.95c0,5.57,4.53,10.11,10.11,10.11h51.46c5.57,0,10.11-4.54,10.11-10.11v-33.08c0-9.87-4.13-19.4-11.33-26.15ZM162.59,42.81c3.09,1.37,5.97,3.23,8.52,5.62.72.67,1.39,1.38,2.03,2.1l-7.74,5.2c-.27-.27-.52-.56-.81-.81-1.84-1.67-3.9-2.95-6.11-3.87,0,0,4.12-8.23,4.12-8.23ZM148.35,40.3c3.06-.21,6.07.06,8.96.73l-4.28,8.57c-1.54-.19-3.12-.23-4.73-.08-.2.02-.38.09-.57.11l-4.28-8.56c1.59-.38,3.22-.66,4.9-.77ZM138.19,42.88l4.14,8.27c-2.55,1.11-4.85,2.7-6.78,4.7l-7.72-5.18c2.86-3.31,6.38-5.98,10.36-7.79h0ZM129.24,108.23h-4.59c-2.53,0-4.59-2.06-4.59-4.59v-4.59h9.19v9.19ZM129.24,93.53h-9.19v-9.19h9.19v9.19ZM129.24,71.34v7.48h-9.19v-7.14c0-.69.05-1.37.1-2.05h9.25c-.04.57-.16,1.13-.16,1.71ZM130.49,64.12h-9.52c.77-3.21,1.99-6.24,3.63-8.98l7.62,5.12c-.69,1.22-1.26,2.51-1.72,3.86ZM165.99,108.23h-31.24v-9.19h31.24v9.19ZM165.99,93.53h-31.24v-22.18c0-8.41,6.18-15.58,14.08-16.34,4.45-.42,8.75.99,12.05,3.99,3.25,2.96,5.12,7.17,5.12,11.56v22.97ZM168.74,60.12l7.64-5.13c1.7,2.83,2.94,5.9,3.63,9.14h-9.52c-.45-1.39-1.03-2.73-1.75-4ZM180.7,103.63c0,2.53-2.06,4.59-4.59,4.59h-4.59v-9.19h9.19v4.59ZM180.7,93.53h-9.19v-9.19h9.19v9.19ZM180.7,78.82h-9.19v-8.27c0-.31-.04-.61-.05-.92h9.19c0,.31.05.61.05.92v8.27ZM160.48,81.58c0,1.52-1.23,2.76-2.76,2.76h-14.7c-1.52,0-2.76-1.23-2.76-2.76s1.23-2.76,2.76-2.76h14.7c1.52,0,2.76,1.23,2.76,2.76ZM143.94,66.88c0-1.52,1.23-2.76,2.76-2.76h7.35c1.52,0,2.76,1.23,2.76,2.76s-1.23,2.76-2.76,2.76h-7.35c-1.52,0-2.76-1.23-2.76-2.76Z"/>
    <circle class="cls-7" cx="150.37" cy="74.23" r="61"/>
    <text class="cls-3" transform="translate(203.07 409.31)"><tspan x="0" y="0">Ayubia Moto </tspan><tspan x="103.76" y="80">Tunnel</tspan></text>
  </g>
  <g id="Layer_7" data-name="Layer 7">
    <text class="cls-4" transform="translate(203.18 409.31)"><tspan x="0" y="0">Ayubia Moto </tspan><tspan x="103.76" y="80">Tunnel</tspan></text>
  </g>
</svg>