<?xml version="1.0" encoding="UTF-8"?>
<svg xmlns="http://www.w3.org/2000/svg" xmlns:xlink="http://www.w3.org/1999/xlink" viewBox="0 0 851.3 500">
  <defs>
    <style>
      .cls-1 {
        fill: #fbf7eb;
        stroke-width: 0px;
      }

      .cls-2 {
        filter: url(#drop-shadow-14);
      }

      .cls-2, .cls-3 {
        fill: #fff;
        font-family: GillSansMTPro-Medium, 'Gill Sans MT Pro';
        font-size: 75px;
        font-weight: 500;
      }

      .cls-4 {
        stroke-width: 3px;
      }

      .cls-4, .cls-5 {
        stroke: #fff;
      }

      .cls-4, .cls-5, .cls-6 {
        fill: none;
        stroke-miterlimit: 10;
      }

      .cls-6 {
        stroke: #fbf7eb;
        stroke-width: 5px;
      }

      .cls-7 {
        clip-path: url(#clippath);
      }

      .cls-3 {
        filter: url(#drop-shadow-4);
      }
    </style>
    <clipPath id="clippath">
      <rect class="cls-5" x="-3058.49" y="-1566.1" width="7372" height="3072"/>
    </clipPath>
    <filter id="drop-shadow-4" filterUnits="userSpaceOnUse">
      <feOffset dx="1" dy="1"/>
      <feGaussianBlur result="blur" stdDeviation="2"/>
      <feFlood flood-color="#010101" flood-opacity=".75"/>
      <feComposite in2="blur" operator="in"/>
      <feComposite in="SourceGraphic"/>
    </filter>
    <filter id="drop-shadow-14" filterUnits="userSpaceOnUse">
      <feOffset dx="1" dy="1"/>
      <feGaussianBlur result="blur-2" stdDeviation="2"/>
      <feFlood flood-color="#010101" flood-opacity=".75"/>
      <feComposite in2="blur-2" operator="in"/>
      <feComposite in="SourceGraphic"/>
    </filter>
  </defs>
  <g id="Layer_2" data-name="Layer 2">
    <g>
      <g class="cls-7">
        <text class="cls-3" transform="translate(377.55 303.33)"><tspan x="0" y="0">Ayubia Bazar</tspan></text>
      </g>
      <rect class="cls-5" x="-3058.49" y="-1566.1" width="7372" height="3072"/>
    </g>
    <polyline class="cls-4" points="162.35 184.41 361.18 185.73 380.81 226.79"/>
    <path class="cls-1" d="M133.43,173.55l-3.04-15.21c-.83-4.15-4.51-7.17-8.74-7.17h-41.25c-4.24,0-7.91,3.02-8.74,7.17l-3.04,15.22c-.73,3.68.21,7.45,2.58,10.34,2.38,2.9,5.89,4.56,9.64,4.56,4.12,0,7.8-2.03,10.08-5.17.3.41.57.84.92,1.22,2.35,2.51,5.67,3.95,9.28,3.95s6.75-1.44,9.1-3.95c.35-.37.62-.8.92-1.22,2.28,3.13,5.96,5.17,10.08,5.17,3.75,0,7.26-1.66,9.64-4.56,2.38-2.9,3.32-6.67,2.58-10.34ZM88.59,173.72l-.1,1.44h0s-.09,1.33-.09,1.33c-.27,3.98-3.6,7.09-7.58,7.09-2.29,0-4.43-1.01-5.88-2.78-1.45-1.77-2.02-4.07-1.57-6.31l3.04-15.22c.38-1.89,2.05-3.26,3.97-3.26h9.38l-1.18,17.7h0ZM106.65,181.18c-1.45,1.55-3.42,2.41-5.73,2.41-2.12,0-4.09-.86-5.55-2.41-1.45-1.55-2.17-3.57-2.03-5.69l.11-1.61,1.19-17.85h12.74l1.19,17.85.11,1.61c.14,2.12-.58,4.14-2.03,5.69ZM127.08,180.81c-1.45,1.77-3.59,2.78-5.88,2.78-3.98,0-7.32-3.12-7.58-7.09l-.09-1.33h0s-.1-1.44-.1-1.44l-1.18-17.7h9.38c1.93,0,3.6,1.37,3.97,3.26l3.04,15.22c.45,2.24-.13,4.54-1.57,6.31h0ZM124.53,211.96c0,2.24-1.82,4.05-4.05,4.05h-10.54v-10.54c0-4.92-4-8.92-8.92-8.92s-8.92,4-8.92,8.92v10.54h-10.54c-2.24,0-4.05-1.82-4.05-4.05v-19.81c-1.72-.35-3.35-.97-4.86-1.84v21.64c0,4.92,4,8.92,8.92,8.92h38.91c4.92,0,8.92-4,8.92-8.92v-21.64c-1.51.86-3.15,1.49-4.86,1.84v19.81ZM105.07,216.02h-8.11v-10.54c0-2.24,1.82-4.05,4.05-4.05s4.05,1.82,4.05,4.05v10.54Z"/>
    <circle class="cls-6" cx="101.35" cy="186.02" r="61"/>
  </g>
  <g id="Layer_9" data-name="Layer 9">
    <text class="cls-2" transform="translate(377.55 303.33)"><tspan x="0" y="0">Ayubia Bazar</tspan></text>
  </g>
</svg>