<?xml version="1.0" encoding="UTF-8"?>
<svg id="Layer_2" data-name="Layer 2" xmlns="http://www.w3.org/2000/svg" viewBox="0 0 420.24 255.67">
  <defs>
    <style>
      .cls-1 {
        fill: none;
        stroke: #fff;
        stroke-miterlimit: 10;
      }

      .cls-2 {
        fill: #fff;
        stroke-width: 0px;
      }
    </style>
  </defs>
  <rect class="cls-1" x="-2909.83" y="-969.62" width="7372" height="3072"/>
  <path class="cls-2" d="M181.37,86.3c.02.08.04.15.06.23,4.59,21.41,21.79,37.55,48.2,36.86-14.87,0-26.94-12.06-26.94-26.94s12.06-26.94,26.94-26.94c16.45,0,28.33,12,26.97,27.55-.16,1.79-.13,3.64-.62,5.41-10.3,37.11-27,72.16-33.48,91.36l7.14,11.44c18.18-25.6,49.31-78,49.31-108.82,0-27.23-22.08-49.31-49.31-49.31-23.75,0-43.58,16.8-48.26,39.16h0Z"/>
  <path class="cls-2" d="M222.34,193.83c7.56-15.04,31.73-75.6,33.5-91.43-.2.72-4.57,20.64-26.37,20.99-22.03.35-42.54-15.15-48.2-36.86-.02-.08-.04-.15-.06-.23-5.69,27.18,22.81,77.71,41.13,107.53h0Z"/>
</svg>