<svg id="Layer_1" data-name="Layer 1" xmlns="http://www.w3.org/2000/svg" viewBox="0 0 1071.83 75.04"><defs><style>.cls-1{fill:#fff;opacity:0.5;}.cls-2{fill:none;}</style></defs><path class="cls-1" d="M820.92,466.66v45.55L855.47,516l243.82-.76v-47l-244.43.38Z" transform="translate(-435.31 -451.23)"/><path class="cls-1" d="M1507.06,526.27h-99.21l-43.79-2.52-16.82-3.44-4.87.07h0l-24.14,1.31-174.88-1.61V472.85L1343.65,474l21.55,7.57,141.94-.15Z" transform="translate(-435.31 -451.23)"/><polygon class="cls-2" points="347.75 57.9 347.75 66.15 326.61 66.22 326.61 57.41 347.75 57.9"/><polygon class="cls-2" points="347.75 0.49 347.75 7.76 326.61 7.84 326.61 0 347.75 0.49"/><line class="cls-1" x1="261.64" y1="7.8" x2="297.41" y2="9.94"/><path class="cls-1" d="M783.06,464v50.14l-21.14-.49-63.14-1.47H611.65c-60.79.1-115.24-.67-176-.57q-.15-25.31-.31-50.6c55.09.05,103.83,1,158.91,1l30,1.53" transform="translate(-435.31 -451.23)"/></svg>