<svg id="Layer_1" data-name="Layer 1" xmlns="http://www.w3.org/2000/svg" viewBox="0 0 1920 1080"><defs><style>.cls-1{fill:#fff;opacity:0.5;}.cls-2{fill:none;}</style></defs><path class="cls-1" d="M820.92,522.83v44.26L855,574.66l244.28-1.15V525.59l-243.62,1Z"/><path class="cls-1" d="M1507.22,534.93q-.08,23-.16,46c-50-.51-94.39-1-144.38-1.53l-16-3.46H1345c-53.73-.68-148-1.05-201.7-1.73-.31-15.18.31-30.65,0-45.83,54.11,0,147.82.08,201.93.11l18.58,6.65Z"/><polygon class="cls-2" points="783.06 509.13 783.06 517.38 761.92 517.45 761.92 508.64 783.06 509.13"/><path class="cls-1" d="M783.06,521.38v50.14l-21.14-.5-63.14-1.46H611.65c-60.79.1-118.71-1.21-179.49-1.1-.11-16.87.11-32.21,0-49.07,55.09.05,107,0,162.06,0l30,1.53h29.05L697,519.42"/></svg>