<?xml version="1.0" encoding="UTF-8"?>
<svg id="nathia" xmlns="http://www.w3.org/2000/svg" viewBox="0 0 5494.76 3090.8">
  <defs>
    <style>
      .cls-1 {
        fill: #fff;
      }

      .cls-2 {
        letter-spacing: .02em;
      }

      .cls-3 {
        letter-spacing: -.05em;
      }

      .cls-4 {
        letter-spacing: .1em;
      }

      .cls-5 {
        fill: #3c3c3b;
      }

      .cls-6 {
        letter-spacing: .08em;
      }

      .cls-7 {
        font-family: GillSans, 'Gill Sans';
        font-size: 41px;
      }

      .cls-8 {
        letter-spacing: .06em;
      }
    </style>
  </defs>
  <path class="cls-1" d="M2574.78,1073.03c.02.08.04.15.06.23,4.59,21.41,21.79,37.55,48.2,36.86-14.87,0-26.94-12.06-26.94-26.94s12.06-26.94,26.94-26.94c16.45,0,28.33,12,26.97,27.55-.16,1.79-.13,3.64-.62,5.41-10.3,37.11-27,72.16-33.48,91.36l7.14,11.44c18.18-25.6,49.31-78,49.31-108.82,0-27.23-22.08-49.31-49.31-49.31-23.75,0-43.58,16.8-48.26,39.16h0Z"/>
  <path class="cls-1" d="M2615.75,1180.56c7.56-15.04,31.73-75.6,33.5-91.43-.2.72-4.57,20.64-26.37,20.99-22.03.35-42.54-15.15-48.2-36.86-.02-.08-.04-.15-.06-.23-5.69,27.18,22.81,77.71,41.13,107.53h0Z"/>
  <path class="cls-5" d="M2088.79,341.96c-1.07-2.66-2.05-5.35-2.98-8.06,0-.29,0-.58-.06-.87-1.22-6.19-2.94-12.26-5.08-18.19-1.77-4.9-3.9-10.68-7.45-14.9-1.91-3.46-5.15-7.54-9.35-6.9-4.84.73-7.75,5.6-9.98,9.49-.09.16-.1.32-.07.47-1.15,1.98-1.61,4.51-1.71,7.14-.9-2.14-1.81-4.27-2.72-6.4-1.55-4.52-3.6-8.78-5.74-13.06-2.34-4.67-4.79-9.28-7.05-13.99-1.66-3.47-3.17-6.96-5.41-10.11-3.28-4.61-7.81-5.86-12.15-1.9-3.01,2.75-4.81,7.02-6.36,10.68-.59,1.39-4.42,9.6-4.27,11.84-.09.2-.17.4-.25.61l-.09.05c-.35.19-.4.6-.25.93,0,.01.01.03.02.04-.91,3.57-.27,8,.09,11.29.21,1.9.47,3.96.85,6.03-2.17-6.45-3.03-13.59-4.94-19.88-3.32-10.97-6.95-21.83-11.28-32.45-4.6-11.27-7.24-27.68-17.98-34.95-12.27-8.3-21.55,10.75-25.72,18.99-4.89,9.66-10.68,18.93-15.88,28.43-2.65,4.85-5.22,9.72-8.19,14.39-1.04,1.63-2.04,3.25-2.97,4.9.17-.68.36-1.35.6-2.01,1.27-3.5,3.26-6.64,4.68-10.07.43-.32.65-.89.29-1.48-6.69-11.03-8.91-36.15-24.19-38.83-1.52-.52-3.15-.79-4.89-.76-5.66.1-9.85,4.51-12.96,8.72-7.57,10.26-11.86,23.73-15.68,35.74-3.14,9.88-6.29,20.31-8.15,30.77-.78-4.06-1.25-8.18-1.87-12.27-.77-5.01-1.73-11.23-5-15.32-3.5-4.38-7.86-5.23-12.02-3.91-.67.17-1.32.44-1.96.78-2.07,1-4.04,2.51-5.79,4.35-7.63,8.04-10.19,20.91-12.35,31.35-.28,1.34-.54,2.68-.8,4.02-1.58,4.77-2.93,9.59-3.53,14.56-1.16,3.61-2.47,7.77-1.37,11.3.09.3.31.47.56.53.18.21.44.35.79.36,22.18.6,44.44-.04,66.62-.24,22.43-.21,44.86-.46,67.3-.63,22.45-.17,44.91-.35,67.36.07,22.48.42,45.03,1.64,67.52,1.23.36,0,.63-.14.82-.33.73-.07,1.37-.66,1.02-1.53ZM2001.36,287.48c-.27-1.07-.55-2.13-.82-3.2.36,1.13.7,2.27,1.04,3.4-.07-.07-.14-.13-.22-.2Z"/>
  <text class="cls-7" transform="translate(1812.72 403.68)"><tspan class="cls-6" x="0" y="0">N</tspan><tspan class="cls-3" x="35.42" y="0">A</tspan><tspan class="cls-8" x="60.68" y="0">T</tspan><tspan class="cls-4" x="87.49" y="0">HI</tspan><tspan x="135.42" y="0">A</tspan><tspan class="cls-2" x="162.81" y="0"> </tspan><tspan class="cls-4" x="173.88" y="0">GAL</tspan><tspan x="263.1" y="0">I</tspan></text>
</svg>