<svg id="Layer_1" data-name="Layer 1" xmlns="http://www.w3.org/2000/svg" viewBox="0 0 1920 1080"><defs><style>.cls-1{fill:#096069;opacity:0.5;}</style></defs><polygon class="cls-1" points="1506.83 367.86 1506.83 392.17 1486.08 384.14 1486.08 424.73 1484.24 424.73 1484.24 481.48 1473.24 481.48 1473.24 493.4 1484.24 493.4 1484.24 504.98 1530.22 504.98 1530.22 532.84 1617.01 532.84 1617.01 501.31 1738.42 500.85 1738.42 493.29 1740.71 493.29 1740.71 480.68 1738.54 480.68 1738.54 455.34 1736.36 455.34 1736.36 424.95 1728.22 424.95 1728.22 416.7 1715.26 416.7 1715.26 395.15 1662.75 395.15 1662.98 412.46 1625.38 412.34 1506.83 367.86"/></svg>