<svg width="23" height="24" viewBox="0 0 23 24" fill="none" xmlns="http://www.w3.org/2000/svg">
<path d="M12.7835 1.74966L10.1692 2.87337V12.2624V21.6561H11.005H11.8408V19.6827V17.7092H11.5669C11.4043 17.7092 11.279 17.686 11.2511 17.6488C11.1582 17.5281 11.1536 17.4306 11.2325 17.3284C11.3161 17.2309 11.4043 17.217 12.8113 17.0823C13.6286 17.0034 14.339 16.957 14.3901 16.9755C14.4922 17.0127 14.5526 17.1613 14.5108 17.2866C14.4783 17.3888 14.2647 17.477 14.0418 17.477H13.8839V19.5666V21.6561H17.3433H20.8027L20.7934 12.2485L20.7795 2.84551L18.1791 1.73109C16.749 1.12279 15.537 0.621302 15.4859 0.625944C15.4349 0.625944 14.2183 1.13208 12.7835 1.74966ZM17.0136 2.90588C17.0786 2.99875 17.0879 3.81599 17.0879 10.7162C17.0879 17.8206 17.0833 18.4289 17.009 18.5079C16.9068 18.6193 16.6886 18.6193 16.6236 18.5032C16.5911 18.4429 16.5771 15.9261 16.5771 10.6929C16.5771 3.57454 16.5818 2.96624 16.6561 2.8873C16.7582 2.77122 16.9301 2.78051 17.0136 2.90588ZM14.3947 3.98316C14.3947 4.8422 14.3854 4.93507 14.3158 4.96293C14.144 5.03258 13.3685 5.31119 13.35 5.31119C13.336 5.31119 13.3267 4.89792 13.3267 4.38714V3.46774L13.805 3.25414C14.065 3.13805 14.3065 3.04054 14.339 3.04054C14.3808 3.03589 14.3947 3.25414 14.3947 3.98316ZM18.3045 3.43987C18.3835 3.50953 18.3881 3.80671 18.3881 10.9994C18.3881 16.7573 18.3742 18.4939 18.3324 18.5357C18.2395 18.6286 18.0305 18.6007 17.9516 18.4893C17.8866 18.3964 17.8773 17.607 17.8773 10.9948V3.60704L17.9748 3.48167C18.0863 3.34236 18.1838 3.32843 18.3045 3.43987ZM12.2262 5.7291C12.203 5.74767 12.1287 5.78482 12.0498 5.81268C11.9755 5.8359 11.7712 5.91019 11.5947 5.97984L11.2836 6.09593L11.2929 5.21367L11.3068 4.32677L11.7712 4.13175L12.2355 3.93208L12.2495 4.81434C12.2541 5.3019 12.2448 5.71517 12.2262 5.7291ZM19.6418 4.01102C19.7347 4.10389 19.7347 4.16425 19.7347 11.2641C19.7347 17.8578 19.7301 18.4289 19.6558 18.5079C19.5629 18.61 19.3957 18.6147 19.2982 18.5172C19.2332 18.4521 19.2239 17.7324 19.2239 11.2734C19.2239 4.16425 19.2239 4.10389 19.3168 4.01102C19.3679 3.95994 19.4422 3.91815 19.4793 3.91815C19.5165 3.91815 19.5907 3.95994 19.6418 4.01102ZM14.3947 7.25215V8.26906L13.8886 8.41301C13.6053 8.49659 13.3685 8.5616 13.3546 8.5616C13.3407 8.5616 13.3267 8.11583 13.3267 7.5679V6.5742L13.805 6.41168C14.065 6.31881 14.3065 6.24452 14.339 6.24452C14.3808 6.23988 14.3947 6.47205 14.3947 7.25215ZM12.2587 7.90687V8.87271L11.8269 8.99808C11.5901 9.06309 11.3718 9.11881 11.3393 9.11881C11.2975 9.11881 11.2836 8.88664 11.2836 8.19477V7.27536L11.7387 7.1082C11.9848 7.01997 12.203 6.94104 12.2262 6.94104C12.2448 6.93639 12.2587 7.37288 12.2587 7.90687ZM14.3947 10.5769V11.617L13.9675 11.6959C13.7307 11.7377 13.4893 11.7842 13.4335 11.7981L13.3267 11.8213V10.8183V9.81997L13.5032 9.77354C13.5961 9.74568 13.8329 9.68532 14.0233 9.63424C14.2136 9.5878 14.3762 9.54137 14.3854 9.54137C14.3901 9.53673 14.3947 10.0057 14.3947 10.5769ZM12.2587 11.0598V12.021L11.8083 12.1046C11.5576 12.151 11.3393 12.1835 11.3161 12.1835C11.2975 12.1835 11.2883 11.7609 11.2929 11.2455L11.3068 10.3075L11.7015 10.2054C12.3238 10.0429 12.2587 9.94535 12.2587 11.0598ZM14.3947 13.9201V14.9556L14.0604 14.9881C13.8747 15.0067 13.6332 15.0299 13.5218 15.0439L13.3267 15.0717L13.336 14.0594L13.35 13.0425L13.8375 12.9682C14.1068 12.9264 14.339 12.8893 14.3622 12.8847C14.3808 12.8847 14.3947 13.349 14.3947 13.9201ZM12.2587 14.1755V15.146L12.0869 15.1739C11.9894 15.1878 11.7712 15.211 11.5994 15.2296L11.2836 15.2575V14.3102V13.3583L11.7619 13.2886C12.0219 13.2468 12.2402 13.2143 12.2495 13.2097C12.2541 13.2097 12.2587 13.6415 12.2587 14.1755Z" fill="#006D77"/>
<path d="M4.71305 7.23357L1.97341 8.40837L1.95948 15.0299L1.9502 21.6561H2.83245H3.71471V20.1238V18.5915H3.44539C3.23179 18.5915 3.15285 18.5729 3.08784 18.4986C2.98568 18.3825 3.02748 18.1828 3.17142 18.1318C3.22714 18.1132 3.89116 18.0389 4.6434 17.9692C5.39563 17.8996 6.05036 17.8346 6.0968 17.8253C6.14323 17.816 6.2361 17.8578 6.30575 17.9182C6.41719 18.011 6.42184 18.0342 6.37076 18.1457C6.30575 18.2896 6.14787 18.3593 5.89248 18.3593H5.71139V20.0077V21.6561H7.68486H9.65832V14.3241V6.99212L8.60426 6.5417C8.01918 6.29095 7.52698 6.082 7.49912 6.07736C7.4759 6.06807 6.22217 6.58814 4.71305 7.23357ZM5.71139 9.19775V9.97785L5.27955 10.1264C5.03809 10.21 4.82913 10.2797 4.81056 10.2797C4.79663 10.2797 4.78734 9.94071 4.79199 9.53208L4.80592 8.77984L5.20061 8.60339C5.41885 8.51052 5.62316 8.42694 5.65567 8.42694C5.69746 8.4223 5.71139 8.60804 5.71139 9.19775ZM3.89116 9.89427L3.87723 10.6233L3.51968 10.7533L3.15749 10.8833V10.1729V9.46707L3.49646 9.31848C3.67756 9.23954 3.84472 9.16989 3.86794 9.16989C3.88651 9.16525 3.8958 9.49494 3.89116 9.89427ZM5.71139 11.8724V12.7221L5.28419 12.8243C5.04738 12.88 4.83842 12.9264 4.81985 12.9264C4.79663 12.9264 4.7827 12.5643 4.7827 12.1231V11.3198L5.23776 11.1759C5.48386 11.0969 5.69282 11.0319 5.7021 11.0273C5.70675 11.0273 5.71139 11.4034 5.71139 11.8724ZM3.89116 12.4017L3.87723 13.1772L3.55219 13.2608C3.37573 13.3026 3.21321 13.3444 3.19464 13.3444C3.17142 13.3444 3.15749 13.0054 3.15749 12.5875V11.8306L3.47325 11.7331C3.64505 11.682 3.81222 11.6356 3.84472 11.6309C3.89116 11.6263 3.90044 11.7934 3.89116 12.4017ZM5.71139 14.6445C5.71139 15.2807 5.69746 15.4803 5.65567 15.4803C5.62316 15.4803 5.41421 15.5082 5.19132 15.5453L4.7827 15.6057V14.7838V13.9619L5.14489 13.8923C5.33991 13.8505 5.54887 13.818 5.60923 13.8133L5.71139 13.8087V14.6445ZM3.90044 14.9417C3.90044 15.5314 3.88651 15.7079 3.84008 15.7264C3.80293 15.7404 3.63577 15.7636 3.46396 15.7822L3.15285 15.8147L3.16678 15.0578L3.18071 14.2963L3.4361 14.2452C3.94224 14.1384 3.90044 14.0734 3.90044 14.9417Z" fill="#006D77"/>
<path d="M0 22.7937V23.3741H11.3765H22.7529V22.7937V22.2133H11.3765H0V22.7937Z" fill="#006D77"/>
</svg>
