<svg width="12" height="12" viewBox="0 0 12 12" fill="none" xmlns="http://www.w3.org/2000/svg">
<path d="M4.0625 2.4375V2.625H5.9375V2.4375C5.9375 2.18886 5.83873 1.9504 5.66291 1.77459C5.4871 1.59877 5.24864 1.5 5 1.5C4.75136 1.5 4.5129 1.59877 4.33709 1.77459C4.16127 1.9504 4.0625 2.18886 4.0625 2.4375ZM3.3125 2.625V2.4375C3.3125 1.98995 3.49029 1.56072 3.80676 1.24426C4.12322 0.92779 4.55245 0.75 5 0.75C5.44755 0.75 5.87677 0.92779 6.19324 1.24426C6.50971 1.56072 6.6875 1.98995 6.6875 2.4375V2.625H9.5C9.59946 2.625 9.69484 2.66451 9.76517 2.73484C9.83549 2.80516 9.875 2.90054 9.875 3C9.875 3.09946 9.83549 3.19484 9.76517 3.26516C9.69484 3.33549 9.59946 3.375 9.5 3.375H8.9345L8.225 9.588C8.17268 10.0456 7.95379 10.4679 7.61006 10.7744C7.26632 11.0809 6.8218 11.2502 6.36125 11.25H3.63875C3.1782 11.2502 2.73368 11.0809 2.38994 10.7744C2.04621 10.4679 1.82732 10.0456 1.775 9.588L1.0655 3.375H0.5C0.400544 3.375 0.305161 3.33549 0.234835 3.26516C0.164509 3.19484 0.125 3.09946 0.125 3C0.125 2.90054 0.164509 2.80516 0.234835 2.73484C0.305161 2.66451 0.400544 2.625 0.5 2.625H3.3125ZM2.5205 9.5025C2.55181 9.77697 2.68301 10.0303 2.8891 10.2143C3.09518 10.3982 3.36175 10.4999 3.638 10.5H6.36163C6.63787 10.4999 6.90444 10.3982 7.11053 10.2143C7.31662 10.0303 7.44782 9.77697 7.47913 9.5025L8.18 3.375H1.82037L2.5205 9.5025ZM3.875 4.6875C3.97446 4.6875 4.06984 4.72701 4.14016 4.79734C4.21049 4.86766 4.25 4.96304 4.25 5.0625V8.8125C4.25 8.91196 4.21049 9.00734 4.14016 9.07767C4.06984 9.14799 3.97446 9.1875 3.875 9.1875C3.77554 9.1875 3.68016 9.14799 3.60984 9.07767C3.53951 9.00734 3.5 8.91196 3.5 8.8125V5.0625C3.5 4.96304 3.53951 4.86766 3.60984 4.79734C3.68016 4.72701 3.77554 4.6875 3.875 4.6875ZM6.5 5.0625C6.5 4.96304 6.46049 4.86766 6.39017 4.79734C6.31984 4.72701 6.22446 4.6875 6.125 4.6875C6.02554 4.6875 5.93016 4.72701 5.85983 4.79734C5.78951 4.86766 5.75 4.96304 5.75 5.0625V8.8125C5.75 8.91196 5.78951 9.00734 5.85983 9.07767C5.93016 9.14799 6.02554 9.1875 6.125 9.1875C6.22446 9.1875 6.31984 9.14799 6.39017 9.07767C6.46049 9.00734 6.5 8.91196 6.5 8.8125V5.0625Z" fill="#006D77"/>
</svg>
