<svg width="22" height="30" viewBox="0 0 22 30" fill="none" xmlns="http://www.w3.org/2000/svg">
<path d="M4.0351 1.17553L5.7131 0.668995C6.63232 0.390794 7.621 0.457765 8.49464 0.857409C9.36827 1.25705 10.0672 1.96207 10.461 2.8409L11.7579 5.73581C12.0965 6.49172 12.1908 7.33505 12.0276 8.14747C11.8643 8.9599 11.4518 9.70064 10.8478 10.2658L8.69814 12.2761C8.63534 12.3348 8.59556 12.4141 8.58598 12.4997C8.52272 13.0727 8.9095 14.1882 9.80243 15.7396C10.4495 16.8666 11.0376 17.6589 11.5365 18.102C11.8859 18.4122 12.0772 18.4786 12.1591 18.4555L15.0492 17.568C15.8385 17.3257 16.6835 17.3374 17.4659 17.6013C18.2482 17.8653 18.9286 18.3684 19.4118 19.04L21.2523 21.603C21.8126 22.3822 22.0721 23.3391 21.9827 24.2958C21.8933 25.2526 21.4611 26.1443 20.7663 26.8055L19.4909 28.0177C18.8147 28.6603 17.9843 29.1162 17.0804 29.3411C16.1765 29.5659 15.2301 29.552 14.3332 29.3006C10.3733 28.1909 6.82314 24.837 3.64256 19.3084C0.459095 13.7726 -0.659574 9.00449 0.372822 5.0027C0.604573 4.10268 1.06341 3.27774 1.70512 2.6074C2.34683 1.93706 3.14833 1.44393 4.0351 1.17553ZM4.65914 3.24931C4.12696 3.40993 3.64498 3.70544 3.25966 4.10734C2.87433 4.50924 2.59865 5.00398 2.45918 5.54388C1.59358 8.90925 2.58428 13.1362 5.5118 18.2261C8.43644 23.3088 11.584 26.283 14.9155 27.2167C15.4537 27.3674 16.0216 27.3756 16.5638 27.2405C17.1061 27.1055 17.6043 26.8318 18.0098 26.4461L19.2838 25.2339C19.5999 24.9334 19.7965 24.528 19.8372 24.093C19.878 23.658 19.76 23.2229 19.5052 22.8686L17.6647 20.3071C17.4451 20.0014 17.1357 19.7725 16.7798 19.6524C16.4239 19.5323 16.0395 19.5271 15.6805 19.6374L12.7831 20.5279C11.1008 21.0301 9.57524 19.6721 7.93606 16.8219C6.8289 14.9025 6.31414 13.4161 6.44354 12.2602C6.50969 11.6598 6.78864 11.1057 7.22719 10.6929L9.37682 8.68268C9.65124 8.42565 9.8386 8.08884 9.91261 7.71951C9.98662 7.35018 9.94357 6.96686 9.78949 6.62333L8.49396 3.72842C8.31494 3.32895 7.99722 3.0085 7.60008 2.82686C7.20295 2.64523 6.75353 2.61482 6.3357 2.74132L4.65914 3.24931Z" fill="#006D77"/>
</svg>
