<svg width="12" height="13" viewBox="0 0 12 13" fill="none" xmlns="http://www.w3.org/2000/svg">
<path d="M3.87656 2.58984H8.12344C8.44219 2.58984 8.72578 2.79141 8.83125 3.09141L9.44297 4.83984H2.55703L3.16875 3.09141C3.27422 2.79141 3.55781 2.58984 3.87656 2.58984ZM1.75313 2.59688L0.928125 4.95234C0.384375 5.17734 0 5.71406 0 6.33984V8.21484C0 8.77031 0.302344 9.25547 0.75 9.51328V10.8398C0.75 11.2547 1.08516 11.5898 1.5 11.5898H2.25C2.66484 11.5898 3 11.2547 3 10.8398V9.71484H9V10.8398C9 11.2547 9.33516 11.5898 9.75 11.5898H10.5C10.9148 11.5898 11.25 11.2547 11.25 10.8398V9.51328C11.6977 9.25313 12 8.77031 12 8.21484V6.33984C12 5.71406 11.6156 5.17734 11.0719 4.95234L10.2469 2.59688C9.93047 1.69453 9.07969 1.08984 8.12344 1.08984H3.87656C2.92031 1.08984 2.06953 1.69453 1.75313 2.59688ZM4.875 6.71484H7.125C7.33125 6.71484 7.5 6.88359 7.5 7.08984V7.83984C7.5 8.04609 7.33125 8.21484 7.125 8.21484H4.875C4.66875 8.21484 4.5 8.04609 4.5 7.83984V7.08984C4.5 6.88359 4.66875 6.71484 4.875 6.71484ZM1.125 6.90234C1.125 6.59062 1.37578 6.33984 1.6875 6.33984H2.4375C2.74922 6.33984 3 6.59062 3 6.90234C3 7.21406 2.74922 7.46484 2.4375 7.46484H1.6875C1.37578 7.46484 1.125 7.21406 1.125 6.90234ZM9.5625 6.33984H10.3125C10.6242 6.33984 10.875 6.59062 10.875 6.90234C10.875 7.21406 10.6242 7.46484 10.3125 7.46484H9.5625C9.25078 7.46484 9 7.21406 9 6.90234C9 6.59062 9.25078 6.33984 9.5625 6.33984Z" fill="#006D77"/>
</svg>
