<svg width="10" height="10" viewBox="0 0 10 10" fill="none" xmlns="http://www.w3.org/2000/svg">
<path d="M7.92578 0.0740962C7.51172 0.113159 7.16602 0.150268 7.16016 0.156127C7.14648 0.167846 7.20117 0.759643 7.2168 0.775268C7.22266 0.781127 7.43164 0.767456 7.68164 0.745971C7.92969 0.722534 8.13672 0.706909 8.14062 0.710815C8.15625 0.724487 7.75781 1.13855 7.52734 1.34949C7.20312 1.64441 7.02148 1.7948 6.70898 2.02722C5.37109 3.02917 3.80078 3.74597 2.30469 4.03894C1.81641 4.13464 1.25781 4.19714 0.896484 4.19714C0.78125 4.19714 0.673828 4.203 0.65625 4.20886C0.628906 4.21863 0.625 4.2655 0.625 4.53113V4.84167H0.875C1.33008 4.84167 1.92188 4.77332 2.50977 4.65613C4.28711 4.29871 6.16602 3.36707 7.65625 2.1073C7.91797 1.88464 8.38281 1.43542 8.56836 1.22644L8.66602 1.11511L8.70117 1.49988C8.71875 1.71081 8.74219 1.8905 8.75 1.89832C8.76367 1.91394 9.35547 1.85925 9.37305 1.84167C9.37891 1.83777 9.3457 1.46667 9.30078 1.02136C9.21289 0.138549 9.21094 0.128784 9.08203 0.0428462C8.99414 -0.0177007 8.86719 -0.0137944 7.92578 0.0740962Z" fill="#006d77"/>
<path d="M7.17188 3.63074C7.13672 3.65222 7.0918 3.69714 7.07031 3.7323C7.03125 3.79675 7.03125 3.83777 7.03125 6.58386V9.37292H6.64062H6.25V7.20886C6.25 5.08582 6.25 5.0448 6.21094 4.9823C6.18945 4.94714 6.14453 4.90222 6.10938 4.88074C6.04688 4.84363 6.00781 4.84167 5 4.84167C3.99219 4.84167 3.95312 4.84363 3.89062 4.88074C3.85547 4.90222 3.81055 4.94714 3.78906 4.9823C3.75 5.0448 3.75 5.08582 3.75 7.20886V9.37292H3.35938H2.96875V7.67761C2.96875 6.02332 2.9668 5.9823 2.92969 5.9198C2.9082 5.88464 2.86328 5.83972 2.82812 5.81824C2.76562 5.78113 2.72656 5.77917 1.71875 5.77917C0.710938 5.77917 0.671875 5.78113 0.609375 5.81824C0.574219 5.83972 0.529297 5.88464 0.507812 5.9198C0.470703 5.9823 0.46875 6.02332 0.46875 7.67761V9.37292H0.234375H0V9.68542V9.99792H5H10V9.68542V9.37292H9.76562H9.53125V6.58386C9.53125 3.83777 9.53125 3.79675 9.49219 3.7323C9.4707 3.69714 9.42578 3.65222 9.39062 3.63074C9.32812 3.59363 9.28906 3.59167 8.28125 3.59167C7.27344 3.59167 7.23438 3.59363 7.17188 3.63074ZM8.90625 6.7948V9.37292H8.28125H7.65625V6.7948V4.21667H8.28125H8.90625V6.7948ZM5.625 7.4198V9.37292H5H4.375V7.4198V5.46667H5H5.625V7.4198ZM2.34375 7.88855V9.37292H1.71875H1.09375V7.88855V6.40417H1.71875H2.34375V7.88855Z" fill="#006D77"/>
</svg>
