<svg width="30" height="15" viewBox="0 0 30 15" fill="none" xmlns="http://www.w3.org/2000/svg">
<path d="M12.8531 1.03551C12.6583 1.27894 11.7333 2.48389 10.7961 3.70711L9.09216 5.94053H8.17323L7.26039 5.94662L6.23191 7.37674L5.20344 8.80687H4.49142C3.83418 8.80687 3.76115 8.81904 3.62118 8.94075C3.53598 9.01986 2.68399 10.164 1.72855 11.4845C0.316679 13.438 -0.00585938 13.9249 -0.00585938 14.0831C-0.00585938 14.217 0.0306544 14.3022 0.109768 14.3448C0.27408 14.43 29.5338 14.43 29.6981 14.3448C29.7772 14.3022 29.8137 14.217 29.8137 14.0831C29.8137 13.9127 29.4851 13.4806 27.5255 11.0707L25.2434 8.25916H24.0628H22.8761L21.4886 6.88989L20.095 5.52062H19.0604H18.032L16.1758 3.46977C13.5468 0.554748 13.5834 0.591261 13.3764 0.591261C13.2304 0.591261 13.1391 0.670374 12.8531 1.03551ZM15.3908 3.63408C16.4071 4.75383 17.3017 5.74579 17.3808 5.83099C17.5086 5.97096 17.5512 6.15353 17.7277 7.33414C17.8433 8.14353 17.8981 8.66081 17.8616 8.63647C17.825 8.60604 17.6242 8.4539 17.4173 8.30176C17.2043 8.13745 16.9791 8.01573 16.8879 8.01573C16.6931 8.01573 16.5471 8.16179 16.5471 8.3687C16.5349 8.99552 16.3097 10.949 16.2367 11.0525C16.188 11.1194 15.6586 11.7523 15.0561 12.4522L13.9607 13.7301H10.784L7.60118 13.7362L8.22192 12.4887C8.5688 11.8071 8.86091 11.2655 8.88525 11.2898C8.90351 11.3141 9.00088 11.5393 9.09216 11.7888C9.32342 12.4156 9.39644 12.5191 9.60336 12.5191C9.70073 12.5191 9.81027 12.4765 9.85287 12.4278C9.90764 12.3609 9.95024 11.8375 9.99892 10.6447L10.0719 8.95901L10.291 8.53301C10.4127 8.29567 10.5771 7.99139 10.6623 7.84534L10.8083 7.58365L11.07 8.33219C11.216 8.74601 11.3743 9.1294 11.423 9.18418C11.5386 9.32414 11.7638 9.32414 11.8976 9.19026C11.995 9.09289 12.0011 8.93466 11.9646 7.23677L11.922 5.38674L12.7009 3.47585C13.1269 2.42304 13.4921 1.57105 13.5103 1.58322C13.5347 1.5893 14.3806 2.51432 15.3908 3.63408ZM11.9159 3.58539C11.849 3.76188 11.6664 4.20613 11.5142 4.57735L11.2404 5.24677L11.2647 6.09876C11.2891 6.70732 11.2769 6.89598 11.2343 6.76818C11.1552 6.51867 11.0152 6.37261 10.857 6.37261C10.6623 6.37261 10.5892 6.47607 9.96241 7.68102L9.39644 8.77644L9.36602 9.598C9.33559 10.377 9.3295 10.4135 9.2443 10.237C9.17128 10.0909 9.10433 10.0483 8.92785 10.0362L8.70268 10.0179L7.77158 11.874L6.84048 13.7362H3.90112H0.961756L1.19301 13.4137C1.32081 13.2372 2.01457 12.2757 2.73268 11.2837L4.035 9.47629H4.77745C5.31907 9.47629 5.54424 9.45194 5.60509 9.39717C5.64769 9.34849 6.12237 8.70341 6.65791 7.96705L7.62552 6.61604H8.49577C9.32342 6.61604 9.37819 6.60995 9.50599 6.47607C9.57901 6.40304 10.1693 5.64842 10.8205 4.80252C11.4656 3.9627 12.0072 3.26894 12.0194 3.26894C12.0315 3.26894 11.9828 3.415 11.9159 3.58539ZM20.1011 8.2409C20.3688 9.40934 20.594 10.4013 20.6123 10.45C20.6305 10.4987 20.454 10.3404 20.2228 10.097C19.9915 9.85968 19.7542 9.65885 19.6873 9.65885C19.5777 9.65885 18.4823 10.6812 18.3667 10.8821C18.3362 10.9429 18.2328 11.5454 18.1293 12.2209C18.0259 12.9025 17.9285 13.5232 17.9102 13.5963L17.8859 13.7362H16.3949C15.5734 13.7362 14.9039 13.718 14.9039 13.6997C14.9039 13.6815 15.3299 13.1703 15.8594 12.5617C16.3828 11.9531 16.8453 11.4115 16.8879 11.3628C16.9365 11.3081 17.0035 10.8334 17.0643 10.1457C17.1252 9.52497 17.1739 9.01378 17.18 9.00161C17.1921 8.99552 17.4356 9.16592 17.7216 9.385C18.2936 9.81708 18.4945 9.87185 18.6405 9.6406C18.7257 9.51889 18.7075 9.34849 18.4945 7.89402C18.3606 7.00552 18.251 6.24481 18.251 6.20222C18.251 6.14744 18.4275 6.12919 18.9387 6.12919H19.6264L20.1011 8.2409ZM23.4969 10.6873C24.1419 11.8497 24.6105 12.6165 24.6714 12.6286C24.8661 12.6712 25.0669 12.58 25.1035 12.4339C25.1278 12.3183 24.7748 9.53714 24.6714 9.06246C24.647 8.95292 24.6653 8.92858 24.7748 8.93466C24.8844 8.93466 25.353 9.47629 26.844 11.3202L28.7792 13.7058L26.2232 13.7241C24.8174 13.7301 22.5232 13.7301 21.1235 13.7241L18.5797 13.7058L18.7683 12.4704L18.957 11.235L19.3221 10.876L19.6812 10.5108L20.1193 11.016C20.9591 11.9714 21.0869 12.0931 21.2573 12.0931C21.3547 12.0931 21.446 12.0383 21.5069 11.9471C21.5981 11.8071 21.5738 11.6671 21.0869 9.52497C20.807 8.27742 20.5514 7.16983 20.5271 7.07246C20.4906 6.92032 20.6488 7.0542 21.4521 7.82708L22.4197 8.76427L23.4969 10.6873ZM23.9898 9.12332C24.0811 9.64668 24.1663 10.3344 24.1419 10.3587C24.1237 10.377 23.9655 10.1214 23.789 9.79274C23.6125 9.4702 23.4238 9.14158 23.3751 9.06246C23.2899 8.92858 23.2899 8.92858 23.6247 8.92858C23.9533 8.92858 23.9594 8.92858 23.9898 9.12332Z" fill="white"/>
</svg>
