<svg width="16" height="16" viewBox="0 0 16 16" fill="none" xmlns="http://www.w3.org/2000/svg">
<path d="M1.75583 1.18339C1.10875 1.55834 0.558428 1.8849 0.540285 1.91211C0.510048 1.95142 0.500977 2.29915 0.500977 3.40282V4.84514L0.567499 4.90561C0.64914 4.97818 2.82321 6.23606 2.95323 6.28746C3.01673 6.30863 3.06511 6.30863 3.13163 6.28444C3.28584 6.22699 5.43874 4.97516 5.52038 4.89654L5.59597 4.82397V3.3877C5.59597 2.12378 5.58993 1.9484 5.5476 1.90607C5.52341 1.87885 4.97006 1.55229 4.32298 1.18037C3.39772 0.645168 3.12256 0.500029 3.04092 0.500029C2.95928 0.500029 2.67807 0.651216 1.75583 1.18339ZM3.18908 1.12897L3.33724 1.21363L2.50571 1.69441C2.04611 1.96049 1.64697 2.1903 1.61674 2.20542C1.57743 2.22356 1.51998 2.21146 1.42322 2.16006C1.34762 2.12075 1.28715 2.08144 1.28715 2.07237C1.28715 2.06028 3.00161 1.05337 3.03487 1.04733C3.03789 1.0443 3.11046 1.08361 3.18908 1.12897ZM3.94501 1.57043C3.97223 1.60369 3.82406 1.70045 3.12558 2.10261C2.65388 2.37475 2.26079 2.60153 2.2487 2.60757C2.2366 2.61362 2.19125 2.60153 2.15194 2.58036C2.08239 2.54408 2.11565 2.51686 2.94416 2.03911C3.42191 1.76093 3.83314 1.53415 3.86035 1.53112C3.88756 1.5281 3.92687 1.54624 3.94501 1.57043ZM4.67676 1.98771C4.74328 2.02399 4.79468 2.06028 4.79468 2.06935C4.79468 2.07842 4.39857 2.31427 3.91478 2.59246L3.03789 3.10044L2.8988 3.01275C2.79599 2.94926 2.7718 2.91902 2.80204 2.90088C3.01673 2.76178 4.48626 1.92421 4.51952 1.92421C4.54069 1.92119 4.61326 1.95142 4.67676 1.98771ZM1.14806 2.60455L1.28715 2.68317L1.29017 3.12463C1.29017 3.3877 1.30529 3.61145 1.32646 3.67193C1.35669 3.75659 1.42019 3.808 1.74071 3.99547C2.17008 4.24644 2.28498 4.27365 2.40896 4.14061C2.47245 4.07106 2.48152 4.03175 2.4906 3.7324C2.49967 3.55098 2.50874 3.40282 2.51781 3.40282C2.52386 3.40282 2.59038 3.4391 2.66597 3.48143L2.79902 3.56005V4.58812V5.61317L2.67202 5.53758C2.59945 5.49524 2.19125 5.25939 1.7649 5.01447L0.984775 4.56696V3.54493C0.984775 2.98554 0.990822 2.52593 0.99687 2.52593C1.00292 2.52593 1.06944 2.56222 1.14806 2.60455ZM5.09706 3.54493V4.56696L4.23227 5.06587C3.75452 5.34103 3.35236 5.56781 3.34027 5.57386C3.32515 5.57991 3.31305 5.12937 3.31305 4.56091V3.53889L4.18389 3.03392C4.66164 2.75876 5.06077 2.52896 5.07589 2.52896C5.08799 2.52593 5.09706 2.98554 5.09706 3.54493ZM1.98261 3.30606V3.52679L1.8919 3.47841C1.80421 3.43305 1.80118 3.42701 1.80118 3.20627V2.98252L1.8919 3.03392C1.97958 3.0823 1.98261 3.09137 1.98261 3.30606Z" fill="#006D77"/>
<path d="M11.6733 1.18028C11.0262 1.55522 10.4759 1.88179 10.4487 1.90598C10.4094 1.94831 10.4033 2.14183 10.4033 3.38458C10.4033 4.75434 10.4063 4.82086 10.4608 4.88133C10.5212 4.94786 12.7104 6.2269 12.8677 6.28435C12.9342 6.30854 12.9826 6.30854 13.0461 6.28435C13.1761 6.23597 15.3502 4.97809 15.4318 4.90552L15.4983 4.84505V3.39668C15.4983 2.04809 15.4953 1.94831 15.4439 1.8969C15.4137 1.86667 14.8664 1.5401 14.2253 1.17121C13.3243 0.651124 13.037 0.499938 12.9554 0.499938C12.8767 0.499938 12.5804 0.657172 11.6733 1.18028ZM13.1065 1.12887L13.2547 1.21354L12.3929 1.70943C11.9182 1.98459 11.5161 2.2144 11.4979 2.22044C11.4647 2.23254 11.2046 2.09949 11.2046 2.07228C11.2046 2.05716 12.9191 1.05026 12.9523 1.04421C12.9554 1.04421 13.0279 1.08049 13.1065 1.12887ZM13.8625 1.57034C13.8927 1.6036 13.7385 1.70338 13.0219 2.11764C12.1994 2.58934 12.142 2.61655 12.0694 2.58027C11.9999 2.54398 12.0301 2.51979 12.8616 2.036C13.3394 1.76084 13.7506 1.53103 13.7778 1.53103C13.805 1.52801 13.8443 1.54615 13.8625 1.57034ZM14.5942 1.98762C14.6607 2.0239 14.7121 2.06019 14.7121 2.06926C14.7121 2.07833 14.316 2.31418 13.8353 2.59236L12.9554 3.0943L12.8193 3.01871C12.7256 2.96428 12.6923 2.93102 12.7135 2.90986C12.7679 2.85543 14.3916 1.92412 14.437 1.92109C14.4582 1.92109 14.5307 1.95133 14.5942 1.98762ZM11.0625 2.60144L11.1986 2.68005L11.2107 3.19409C11.2228 3.79884 11.1713 3.71417 11.7035 4.01957C12.0845 4.2403 12.1964 4.26449 12.3143 4.15261C12.3808 4.09214 12.3839 4.06492 12.3839 3.72929V3.36946L12.5351 3.45413L12.6862 3.53879V4.56082C12.6862 5.12928 12.6741 5.57982 12.659 5.57377C12.6469 5.56772 12.2448 5.34094 11.767 5.06578L10.9022 4.56686V3.54484C10.9022 2.98545 10.9083 2.52584 10.9143 2.52584C10.9204 2.52584 10.9869 2.5591 11.0625 2.60144ZM15.0145 3.54484V4.56686L14.2525 5.00531C13.8322 5.24721 13.424 5.48003 13.3454 5.52841L13.2003 5.61005V4.58501V3.55996L14.0862 3.04592C14.57 2.76169 14.9782 2.52887 14.9934 2.52887C15.0054 2.52584 15.0145 2.98545 15.0145 3.54484ZM11.8698 3.2848C11.8698 3.3997 11.8608 3.49344 11.8517 3.49344C11.8426 3.49344 11.8094 3.47832 11.7761 3.4632C11.7277 3.43599 11.7186 3.39668 11.7186 3.20316V2.9794L11.7942 3.02778C11.8638 3.07314 11.8698 3.09733 11.8698 3.2848Z" fill="#006D77"/>
<path d="M7.7998 5.48916C7.06503 5.59801 6.54797 6.18764 6.54797 6.91636C6.54797 7.32154 6.66589 7.63601 6.91989 7.92629L7.03781 8.05934L6.89872 8.11981C6.11255 8.45545 5.47757 9.31419 5.38081 10.1729C5.36266 10.3302 5.36871 10.3544 5.43826 10.436L5.51385 10.5237H7.99936H10.4849L10.5605 10.436C10.63 10.3544 10.6361 10.3302 10.6179 10.1729C10.5212 9.31419 9.90129 8.47359 9.10907 8.12586L8.96091 8.05934L9.07884 7.92629C9.33283 7.63601 9.45076 7.32154 9.45076 6.91636C9.45076 6.39326 9.18164 5.9276 8.72506 5.66454C8.47409 5.5194 8.09008 5.44683 7.7998 5.48916ZM8.37733 6.07879C8.71599 6.22695 8.90648 6.50211 8.93067 6.86798C8.94882 7.15221 8.88532 7.34271 8.70389 7.5453C8.6283 7.62996 8.49526 7.7358 8.41059 7.78115C8.27755 7.8507 8.2201 7.86279 7.99936 7.86279C7.77863 7.86279 7.72118 7.8507 7.58813 7.78115C7.38554 7.67532 7.17086 7.43342 7.10434 7.23688C7.02874 7.0101 7.05596 6.69563 7.16783 6.49002C7.40973 6.04855 7.92075 5.87317 8.37733 6.07879ZM8.52852 8.46754C9.1635 8.6278 9.75011 9.15393 9.98293 9.77077C10.0222 9.87963 10.0555 9.97941 10.0555 9.99453C10.0555 10.0127 9.31771 10.0248 7.99936 10.0248C6.54797 10.0248 5.94322 10.0157 5.94322 9.9915C5.94322 9.91893 6.10953 9.54399 6.22141 9.36861C6.43911 9.02391 6.88058 8.67013 7.27367 8.52499C7.64559 8.39195 8.13845 8.36776 8.52852 8.46754Z" fill="#006D77"/>
<path d="M4.30792 6.12116C4.25349 6.16349 4.23535 6.20885 4.23535 6.30258C4.23535 6.42353 4.25349 6.4447 4.67379 6.865C5.02152 7.21273 5.09712 7.30344 5.04269 7.30344C5.00338 7.30344 4.93988 7.3367 4.89755 7.37904C4.83708 7.43951 4.82196 7.47882 4.83103 7.58163C4.84615 7.77212 4.91569 7.80538 5.41763 7.86586C5.88934 7.92331 5.98005 7.91424 6.05262 7.79933C6.101 7.72979 6.101 7.6935 6.05262 7.28228C5.99517 6.79243 5.974 6.71684 5.88631 6.67148C5.72605 6.58379 5.4902 6.69567 5.4902 6.85291C5.4902 6.90733 5.39647 6.82872 5.05478 6.49308C4.64053 6.08488 4.61332 6.06371 4.49842 6.06371C4.42585 6.06371 4.35025 6.08488 4.30792 6.12116Z" fill="#006D77"/>
<path d="M10.9451 6.49312C10.6034 6.82876 10.5096 6.90738 10.5096 6.85295C10.5096 6.69571 10.2738 6.58384 10.1135 6.67152C10.0258 6.71688 10.0047 6.79247 9.94722 7.28232C9.87163 7.93242 9.88977 7.95057 10.5822 7.8659C11.0841 7.80543 11.1537 7.77217 11.1688 7.58167C11.1779 7.47886 11.1628 7.43955 11.1023 7.37908C11.06 7.33675 10.9965 7.30349 10.9572 7.30349C10.9027 7.30349 10.9783 7.21277 11.326 6.86504C11.7463 6.44474 11.7645 6.42358 11.7645 6.30263C11.7645 6.14539 11.6738 6.06375 11.5014 6.06375C11.3865 6.06375 11.3593 6.08492 10.9451 6.49312Z" fill="#006D77"/>
<path d="M4.71043 10.9832C4.67717 11.0134 4.46249 11.3642 4.23571 11.7633C4.0059 12.1625 3.79424 12.5314 3.764 12.5828L3.70655 12.6765L3.54932 12.6372C3.21066 12.5465 2.76919 12.616 2.45472 12.8065C2.21887 12.9486 2.02838 13.1663 1.89533 13.4415C1.79857 13.6471 1.78648 13.6985 1.77741 13.9737C1.75926 14.4333 1.86207 14.7266 2.1463 15.0411C2.44868 15.3707 2.81152 15.5128 3.30439 15.4916C3.57048 15.4825 3.62491 15.4704 3.8275 15.3737C4.59553 15.0078 4.89186 14.1249 4.50179 13.378C4.44737 13.2692 4.34456 13.124 4.28106 13.0575L4.16314 12.9396L4.64391 12.102C5.16399 11.2009 5.19423 11.1253 5.05816 10.9983C4.97047 10.9167 4.7951 10.9106 4.71043 10.9832ZM3.62793 13.2117C3.81843 13.3054 3.98776 13.4808 4.07847 13.6804C4.12987 13.7862 4.14499 13.8799 4.14499 14.0614C4.14499 14.3577 4.06033 14.5421 3.8275 14.7508C3.23787 15.2799 2.28539 14.8627 2.28539 14.0735C2.28539 13.9646 2.30656 13.8134 2.33377 13.7348C2.41844 13.4869 2.69662 13.2298 2.98085 13.1361C3.12599 13.0877 3.45256 13.127 3.62793 13.2117Z" fill="#006D77"/>
<path d="M7.81796 10.9924C7.76051 11.0498 7.75749 11.0921 7.75749 11.836V12.6191L7.64863 12.6403C7.33719 12.6978 6.98946 12.9366 6.79594 13.2299C6.25771 14.0342 6.62661 15.1319 7.53675 15.4342C7.7968 15.5219 8.20198 15.5219 8.46202 15.4342C9.37519 15.1288 9.74106 14.0373 9.20283 13.2299C9.00931 12.9366 8.66158 12.6978 8.35014 12.6403L8.24129 12.6191V11.836C8.24129 11.0921 8.23826 11.0498 8.18081 10.9924C8.1415 10.9531 8.08103 10.9319 7.99939 10.9319C7.91775 10.9319 7.85727 10.9531 7.81796 10.9924ZM8.3199 13.1725C8.53156 13.2511 8.73415 13.4325 8.83999 13.6381C8.90953 13.7651 8.92163 13.8286 8.92163 14.0463C8.92163 14.3457 8.85208 14.5241 8.66158 14.7146C8.45899 14.9172 8.32595 14.9686 7.99939 14.9686C7.67282 14.9686 7.53978 14.9172 7.33719 14.7146C7.14669 14.5241 7.07715 14.3457 7.07715 14.0463C7.07715 13.8286 7.08924 13.7651 7.15879 13.6351C7.38254 13.2088 7.88146 13.0092 8.3199 13.1725Z" fill="#006D77"/>
<path d="M10.9387 11.0014C10.8117 11.1374 10.8389 11.21 11.3559 12.102L11.8397 12.9396L11.743 13.0303C11.5071 13.2631 11.359 13.5927 11.3348 13.9555C11.2924 14.5633 11.6099 15.1076 12.1633 15.3676C12.3749 15.4704 12.4294 15.4825 12.6954 15.4916C13.1883 15.5128 13.5512 15.3707 13.8535 15.0411C14.1378 14.7266 14.2406 14.4333 14.2224 13.9737C14.2134 13.6985 14.2013 13.6471 14.1045 13.4415C13.9715 13.1663 13.781 12.9486 13.5451 12.8065C13.2306 12.616 12.7892 12.5465 12.4505 12.6372L12.2933 12.6765L12.2358 12.5828C12.2056 12.5314 11.9939 12.1625 11.7641 11.7633C11.5374 11.3642 11.3227 11.0134 11.2894 10.9832C11.1987 10.9076 11.0203 10.9167 10.9387 11.0014ZM13.1883 13.2087C13.8898 13.5655 13.8928 14.5421 13.1944 14.8929C12.8557 15.0622 12.4566 15.0048 12.1723 14.7508C11.625 14.2579 11.7913 13.4113 12.4838 13.1633C12.7015 13.0847 12.9827 13.1028 13.1883 13.2087Z" fill="#006D77"/>
</svg>
