<svg width="30" height="29" viewBox="0 0 30 29" fill="none" xmlns="http://www.w3.org/2000/svg">
<path d="M10.0525 6.15038V27.0632M19.105 0.660034V21.7825M1 9.275C1 7.0511 1 5.94066 1.59294 5.2919C1.80279 5.06111 2.05808 4.87619 2.34279 4.74875C3.14544 4.39268 4.20006 4.74422 6.3093 5.4473C7.91913 5.98442 8.7233 6.25297 9.53802 6.22431C9.8369 6.21448 10.1341 6.17506 10.4252 6.10663C11.2173 5.91803 11.9234 5.4473 13.3356 4.50735L15.4206 3.11628C17.2311 1.90928 18.1349 1.30578 19.1729 1.16848C20.2109 1.02817 21.2429 1.37216 23.3054 2.06016L25.0631 2.64555C26.5567 3.14344 27.3036 3.39238 27.7305 3.98532C28.1575 4.57826 28.1575 5.36583 28.1575 6.93946V19.2041C28.1575 21.4265 28.1575 22.5384 27.5646 23.1872C27.3544 23.4169 27.0992 23.6008 26.8147 23.7273C26.0121 24.0849 24.9575 23.7334 22.8482 23.0303C21.2384 22.4932 20.4342 22.2246 19.6195 22.2533C19.3206 22.2631 19.0235 22.3025 18.7324 22.371C17.9403 22.5596 17.2342 23.0303 15.822 23.9702L13.7369 25.3613C11.9264 26.5683 11.0226 27.1718 9.98461 27.3091C8.94659 27.4494 7.91461 27.1054 5.85214 26.4174L4.09445 25.832C2.60079 25.3341 1.85395 25.0852 1.42698 24.4923C1 23.8993 1 23.1102 1 21.5381V9.275Z" stroke="#006D77" stroke-width="2"/>
</svg>
