<svg width="15" height="15" viewBox="0 0 15 15" fill="none" xmlns="http://www.w3.org/2000/svg">
<path d="M7.5 13.125C6.49167 13.125 5.66667 12.9967 5.025 12.74C4.38333 12.4829 4.0625 12.1504 4.0625 11.7425C4.0625 11.5608 4.14688 11.3867 4.31563 11.22C4.48438 11.0533 4.71729 10.909 5.01437 10.7869C5.08812 10.7469 5.16896 10.7394 5.25688 10.7644C5.34438 10.7894 5.40813 10.8387 5.44813 10.9125C5.48813 10.9858 5.49313 11.0644 5.46313 11.1481C5.43313 11.2319 5.38125 11.2938 5.3075 11.3338C5.17125 11.3821 5.04104 11.4423 4.91688 11.5144C4.79271 11.5865 4.71854 11.6585 4.69438 11.7306C4.76604 11.9377 5.06854 12.1177 5.60188 12.2706C6.13521 12.4235 6.76792 12.5 7.5 12.5C8.23208 12.5 8.86479 12.4235 9.39813 12.2706C9.93146 12.1177 10.2338 11.9377 10.305 11.7306C10.2813 11.6585 10.2073 11.5865 10.0831 11.5144C9.95896 11.4423 9.82875 11.3823 9.6925 11.3344C9.61875 11.2944 9.56667 11.2325 9.53625 11.1487C9.50667 11.065 9.51188 10.9862 9.55188 10.9125C9.59188 10.8387 9.65583 10.7894 9.74375 10.7644C9.83167 10.7394 9.91229 10.7471 9.98563 10.7875C10.2827 10.9092 10.5156 11.0533 10.6844 11.22C10.8531 11.3867 10.9375 11.5608 10.9375 11.7425C10.9375 12.1508 10.6167 12.4833 9.975 12.74C9.33333 12.9967 8.50833 13.125 7.5 13.125ZM7.5 11.0012C7.39917 11.0012 7.29833 10.9825 7.1975 10.945C7.09625 10.9075 7.00146 10.855 6.91313 10.7875C5.85229 9.92042 5.06 9.07479 4.53625 8.25063C4.0125 7.42646 3.75042 6.61458 3.75 5.815C3.75 5.16333 3.86271 4.59292 4.08812 4.10375C4.31396 3.61458 4.60708 3.20458 4.9675 2.87375C5.32792 2.54292 5.73062 2.29375 6.17562 2.12625C6.62063 1.95875 7.06208 1.875 7.5 1.875C7.93792 1.875 8.37958 1.95875 8.825 2.12625C9.26958 2.29375 9.67208 2.54292 10.0325 2.87375C10.3929 3.20458 10.686 3.61458 10.9119 4.10375C11.1377 4.59292 11.2504 5.16333 11.25 5.815C11.25 6.61458 10.9879 7.42646 10.4638 8.25063C9.93958 9.07479 9.14708 9.92021 8.08625 10.7869C7.99833 10.8544 7.90375 10.9069 7.8025 10.9444C7.70167 10.9823 7.60083 11.0012 7.5 11.0012ZM7.5 6.7425C7.77958 6.7425 8.01771 6.64625 8.21438 6.45375C8.41104 6.26083 8.50938 6.02063 8.50938 5.73313C8.50938 5.45354 8.41104 5.21542 8.21438 5.01875C8.01771 4.82208 7.77958 4.72375 7.5 4.72375C7.22833 4.72375 6.99208 4.82208 6.79125 5.01875C6.59042 5.21542 6.49 5.45354 6.49 5.73313C6.49 6.02063 6.59042 6.26083 6.79125 6.45375C6.99208 6.64667 7.22833 6.74292 7.5 6.7425Z" fill="#006D77"/>
</svg>
