<svg width="14" height="12" viewBox="0 0 14 12" fill="none" xmlns="http://www.w3.org/2000/svg">
<path d="M6.28819 0.0128708C4.93871 0.174615 3.69063 0.780552 2.73947 1.73653C1.78349 2.69493 1.2017 3.87783 1.02547 5.23214C0.977187 5.60874 0.977187 6.38608 1.02547 6.76267C1.2017 8.11698 1.78349 9.29988 2.73947 10.2583C3.71477 11.2384 4.98941 11.8443 6.37027 11.9868C6.75652 12.0254 7.65457 12.0013 8.0022 11.9385C9.28408 11.714 10.3632 11.1563 11.2612 10.2583C12.2172 9.3023 12.799 8.11698 12.9752 6.76267C13.0235 6.38608 13.0235 5.60874 12.9752 5.23214C12.799 3.88508 12.2196 2.69976 11.2733 1.74619C10.3752 0.843319 9.29132 0.283249 8.0022 0.0539103C7.69319 0.000800133 6.61651 -0.0257549 6.28819 0.0128708ZM7.70043 0.628465C9.66309 0.877116 11.3868 2.25074 12.082 4.12407C12.2051 4.4548 12.3234 4.94245 12.3693 5.29249C12.42 5.67875 12.42 6.31607 12.3693 6.70232C12.1689 8.257 11.2757 9.66683 9.93347 10.5431C9.05715 11.1153 8.06496 11.4074 7.00035 11.4074C5.52051 11.4074 4.16379 10.8328 3.1209 9.76098C2.4691 9.09227 2.00559 8.27631 1.76177 7.36861C1.53243 6.50678 1.53243 5.48803 1.76177 4.6262C2.16733 3.11257 3.19332 1.85482 4.59833 1.14991C5.56638 0.667089 6.60685 0.490861 7.70043 0.628465Z" fill="#006D77"/>
<path d="M2.99301 5.50264C2.56088 5.77302 2.20601 6.00477 2.20118 6.01684C2.19635 6.03615 3.76069 6.9873 3.79931 6.9873C3.80655 6.9873 3.8138 6.81832 3.8138 6.61312V6.23894H5.02809H6.23996L6.28341 6.34516C6.34377 6.49483 6.46688 6.6276 6.61656 6.70968C6.80003 6.80866 7.09213 6.82315 7.30216 6.74348C7.82602 6.54553 7.97086 5.83095 7.57013 5.4278C7.3939 5.25399 7.22491 5.19363 6.95212 5.2057C6.71795 5.21777 6.59 5.27088 6.43792 5.41573C6.34377 5.50264 6.22789 5.69818 6.22789 5.76819C6.22789 5.79957 6.09029 5.8044 5.02084 5.8044H3.8138V5.40607C3.8138 5.18639 3.80655 5.00775 3.7969 5.00775C3.78483 5.00775 3.42513 5.23226 2.99301 5.50264Z" fill="#006D77"/>
</svg>
