<svg width="22" height="24" viewBox="0 0 22 24" fill="none" xmlns="http://www.w3.org/2000/svg">
<path d="M11.9452 0.610106C11.502 0.726513 10.1186 1.43838 8.87838 2.18607C8.53364 2.39649 7.89788 2.77705 7.46807 3.03225C4.69671 4.69328 3.15657 6.22895 2.74019 7.74671C2.68199 7.94818 2.6596 8.19442 2.6596 8.53021C2.6596 8.95106 2.67751 9.07642 2.78496 9.38087C3.08493 10.2539 3.72069 10.9568 4.93848 11.7717C5.82048 12.3627 6.18313 12.6537 6.52787 13.0521C7.03379 13.6342 7.24869 14.1177 7.28003 14.7535C7.30242 15.2728 7.21735 15.6489 6.93529 16.2309C6.12045 17.9188 4.10572 19.7097 0.510562 21.9483C0.0986629 22.2035 -0.00878906 22.3602 -0.00878906 22.7004C-0.00878906 23.0004 0.0941857 23.2243 0.300135 23.3586L0.452359 23.4615H5.65482C10.7454 23.4615 10.8573 23.4615 10.9334 23.3765C11.0364 23.2601 11.0364 22.9914 10.9379 22.875C10.8618 22.7945 10.7498 22.79 7.09647 22.781L3.34013 22.7676L3.73412 22.499C5.32799 21.42 6.8547 20.1126 7.79043 19.0292C10.0021 16.4682 10.2529 14.2117 8.54707 12.2328C8.16651 11.7896 7.58448 11.315 6.75173 10.7643C6.37117 10.5136 5.9145 10.1823 5.73989 10.0345C5.13995 9.52862 4.74596 8.92868 4.61612 8.3153C4.2669 6.65428 6.13388 4.56792 9.86336 2.4547C10.7095 1.97564 11.9139 1.36675 12.1467 1.29959C12.2452 1.27273 12.5899 1.24139 12.9078 1.22795L13.4899 1.20109L13.0869 1.4339C10.8797 2.71437 9.62607 3.9635 9.32162 5.19472C9.22312 5.58871 9.25446 6.2379 9.39325 6.59607C9.61711 7.18258 10.2081 7.87207 10.92 8.36903C11.6408 8.87495 12.7825 9.4346 14.0271 9.89127C15.227 10.33 15.5091 10.4464 16.109 10.7554C17.5059 11.4672 18.4147 12.3224 18.9744 13.4551C19.2564 14.0282 19.3863 14.4266 19.4713 15.0042C19.5296 15.3937 19.6325 15.537 19.8653 15.537C20.1429 15.5325 20.2414 15.331 20.1832 14.9057C19.9101 12.9895 18.8311 11.4807 16.9373 10.3658C16.3373 10.0121 15.8001 9.77038 14.7569 9.38982C13.5704 8.95106 13.1585 8.78093 12.4825 8.43619C11.3095 7.8452 10.4722 7.15124 10.1544 6.51548C10.0066 6.21999 9.99767 6.17522 9.99767 5.77675C10.0021 5.44097 10.0245 5.2977 10.1051 5.09175C10.1633 4.94848 10.2126 4.83655 10.2215 4.8455C10.226 4.85446 10.2171 4.97534 10.1991 5.12309C10.0424 6.22895 10.8841 7.25869 12.6795 8.1586C13.4227 8.53021 13.9823 8.75407 15.3703 9.22417C16.7179 9.68084 17.479 10.0211 18.2043 10.5091C19.731 11.5254 20.6085 12.8149 20.9936 14.5968C21.0831 15.0087 21.0966 15.1967 21.0966 16.0966C21.0966 17.2025 21.0339 17.7353 20.7832 18.7337C20.519 19.7948 20.0131 21.1961 19.5922 22.0512C19.2654 22.7049 19.1759 22.7586 18.3297 22.781L17.7073 22.7989L17.8417 22.6064C18.2804 21.9617 18.961 20.6857 19.3326 19.8171C19.7221 18.8948 20.0937 17.6009 20.1653 16.8891C20.1922 16.6384 20.1877 16.6115 20.0802 16.504C19.9415 16.3652 19.7445 16.3518 19.6012 16.4682C19.5251 16.5309 19.4848 16.6607 19.4042 17.104C19.0953 18.7471 18.3655 20.4529 17.188 22.2617L16.8477 22.79H14.4435H12.0393L11.9721 22.8885C11.8826 23.0183 11.8826 23.2332 11.9721 23.3631L12.0393 23.4615H15.5852H19.1311L19.3997 23.3317C19.8967 23.0989 20.1161 22.7631 20.6981 21.3349C21.1727 20.1708 21.504 19.0471 21.7144 17.8875C21.804 17.3726 21.8174 17.1667 21.8174 16.119C21.8174 15.0534 21.804 14.8833 21.7144 14.4625C21.4055 13.0432 20.8503 11.9687 19.9415 11.024C19.2341 10.2897 18.5714 9.8062 17.5954 9.31819C16.9955 9.01822 16.6373 8.87943 15.518 8.50782C12.375 7.46464 10.9155 6.4528 10.9155 5.32904C10.9155 4.33063 12.196 3.16657 14.7703 1.81894C15.1285 1.6309 15.4643 1.4339 15.5091 1.38465C15.5717 1.3175 15.5941 1.22348 15.5941 1.04439C15.5941 0.82501 15.5807 0.784716 15.4464 0.66831L15.3031 0.538471L13.7451 0.54295C12.5407 0.54295 12.1378 0.560858 11.9452 0.610106ZM3.96245 7.03931C3.88634 7.26765 3.86843 7.4333 3.86843 7.92579C3.86843 8.49439 3.87739 8.55259 4.00723 8.89734C4.33406 9.75695 4.96982 10.4554 6.12045 11.2165C7.50837 12.1298 8.1486 12.7477 8.56946 13.576C8.92763 14.2834 9.01717 15.1161 8.8157 15.8951C8.69482 16.3518 8.36798 17.0592 8.03667 17.5651C7.04274 19.0918 5.01459 20.8603 2.32381 22.5527L1.94325 22.79H1.32541C0.855303 22.79 0.707557 22.7765 0.707557 22.7318C0.707557 22.7004 0.935892 22.5348 1.209 22.3646C4.1684 20.5245 6.20104 18.7874 7.21735 17.2293C7.8934 16.1906 8.13965 15.143 7.93818 14.1714C7.79491 13.4954 7.23974 12.6313 6.56816 12.0537C6.3846 11.897 5.97718 11.5926 5.65482 11.3822C4.43256 10.5718 3.92664 10.1017 3.61324 9.47041C3.29983 8.83913 3.28193 8.25262 3.55503 7.60344C3.65353 7.36615 4.00275 6.76173 4.04304 6.76173C4.052 6.76173 4.01618 6.88709 3.96245 7.03931Z" fill="white"/>
<path d="M9.16051 3.26508C9.04858 3.33671 8.94561 3.42626 8.93218 3.47103C8.83368 3.72175 8.99038 3.9859 9.23662 3.9859C9.38885 3.9859 9.72911 3.79338 9.79627 3.6725C9.87238 3.52923 9.84552 3.3591 9.72911 3.24717C9.58584 3.09942 9.41571 3.1039 9.16051 3.26508Z" fill="white"/>
<path d="M7.54479 4.62165C7.29854 4.8858 7.15527 5.11861 7.15527 5.24845C7.15527 5.49022 7.42838 5.66035 7.67015 5.57081C7.78208 5.52604 8.22979 4.9261 8.22979 4.81417C8.22979 4.76044 8.1895 4.66194 8.13577 4.59479C7.99698 4.4157 7.72835 4.42913 7.54479 4.62165Z" fill="white"/>
<path d="M6.61284 6.67661C6.52329 6.76616 6.51882 6.81093 6.53673 7.16015C6.56359 7.60786 6.60388 7.71084 6.7964 7.79143C6.9531 7.85858 7.17248 7.79143 7.24412 7.65264C7.32023 7.51832 7.24412 6.81988 7.14562 6.69005C7.02921 6.54678 6.75163 6.53782 6.61284 6.67661Z" fill="white"/>
<path d="M7.74983 8.67793C7.62 8.69583 7.46777 8.89283 7.46777 9.03162C7.46777 9.10773 7.55732 9.23757 7.75431 9.43904C8.01846 9.71215 8.05876 9.73901 8.22889 9.73901C8.37216 9.73901 8.43932 9.71215 8.502 9.63156C8.65422 9.44352 8.61393 9.2913 8.33634 9.00028C8.08114 8.73165 7.92892 8.64659 7.74983 8.67793Z" fill="white"/>
<path d="M9.48287 10.1644C9.38438 10.2629 9.36647 10.4778 9.4381 10.6165C9.50078 10.733 10.0739 11.015 10.244 11.015C10.432 11.015 10.5574 10.8762 10.5574 10.6658C10.5574 10.4688 10.5171 10.424 10.1455 10.2181C9.84105 10.0524 9.61271 10.0345 9.48287 10.1644Z" fill="white"/>
<path d="M11.699 11.1583C11.4528 11.3016 11.4304 11.5434 11.6453 11.7493C11.8647 11.9508 12.2721 12.1478 12.4019 12.112C12.5855 12.0538 12.6616 11.9508 12.6616 11.7672C12.6616 11.5568 12.5631 11.4538 12.1736 11.2434C11.8871 11.0912 11.8333 11.0822 11.699 11.1583Z" fill="white"/>
<path d="M13.4989 12.6358C13.3869 12.7208 13.3287 12.9223 13.378 13.0477C13.4541 13.2492 13.8302 13.6924 13.9466 13.7237C14.1749 13.7775 14.4077 13.5894 14.4077 13.3521C14.4077 13.2581 14.157 12.8775 13.9824 12.7029C13.8481 12.5686 13.6287 12.5418 13.4989 12.6358Z" fill="white"/>
<path d="M14.3675 14.8474C14.2869 14.9504 14.2734 15.031 14.2734 15.3668C14.2734 15.7294 14.2824 15.7742 14.3854 15.8727C14.5286 16.0205 14.7346 16.0205 14.8779 15.8727C14.9808 15.7742 14.9898 15.7294 14.9898 15.3668C14.9898 14.8743 14.9092 14.731 14.6316 14.731C14.4973 14.731 14.4391 14.7579 14.3675 14.8474Z" fill="white"/>
<path d="M13.8843 17.113C13.75 17.2607 13.5127 17.7532 13.5127 17.8875C13.5127 18.0173 13.6425 18.1651 13.7948 18.2009C13.9873 18.2501 14.1216 18.1561 14.3007 17.8338C14.5066 17.4666 14.529 17.2294 14.3678 17.0995C14.2246 16.9831 14.0007 16.9876 13.8843 17.113Z" fill="white"/>
<path d="M12.4064 19.2395C12.1288 19.535 12.0661 19.6649 12.1019 19.844C12.1378 20.0007 12.281 20.1036 12.4601 20.1036C12.5676 20.1036 12.6481 20.0454 12.872 19.8081C13.1183 19.5485 13.1541 19.4858 13.1541 19.338C13.1541 19.1187 13.0198 18.9843 12.8049 18.9843C12.6705 18.9843 12.6123 19.0246 12.4064 19.2395Z" fill="white"/>
<path d="M10.916 20.717C10.531 20.9722 10.4504 21.2095 10.6742 21.4334C10.8175 21.5766 11.019 21.5543 11.2518 21.3707C11.5204 21.1558 11.5473 20.8782 11.31 20.7126C11.1802 20.623 11.0548 20.623 10.916 20.717Z" fill="white"/>
</svg>
