<svg width="10" height="10" viewBox="0 0 10 10" fill="none" xmlns="http://www.w3.org/2000/svg">
<path fill-rule="evenodd" clip-rule="evenodd" d="M8.59999 9.4001C8.81217 9.4001 9.01565 9.31581 9.16568 9.16578C9.31571 9.01575 9.39999 8.81227 9.39999 8.6001V1.4001C9.39999 1.18792 9.31571 0.984441 9.16568 0.834412C9.01565 0.684383 8.81217 0.600098 8.59999 0.600098H1.39999C1.18782 0.600098 0.984336 0.684383 0.834307 0.834412C0.684278 0.984441 0.599993 1.18792 0.599993 1.4001V4.2001C0.599993 4.30618 0.642135 4.40793 0.71715 4.48294C0.792164 4.55796 0.893906 4.6001 0.999993 4.6001C1.10608 4.6001 1.20782 4.55796 1.28284 4.48294C1.35785 4.40793 1.39999 4.30618 1.39999 4.2001V1.4001H8.59999V8.6001H5.79999C5.69391 8.6001 5.59216 8.64224 5.51715 8.71726C5.44214 8.79227 5.39999 8.89401 5.39999 9.0001C5.39999 9.10618 5.44214 9.20793 5.51715 9.28294C5.59216 9.35796 5.69391 9.4001 5.79999 9.4001H8.59999ZM6.19999 4.2001V6.6001C6.19999 6.70618 6.15785 6.80793 6.08284 6.88294C6.00782 6.95796 5.90608 7.0001 5.79999 7.0001C5.69391 7.0001 5.59216 6.95796 5.51715 6.88294C5.44214 6.80793 5.39999 6.70618 5.39999 6.6001V5.1657L1.28319 9.2833C1.246 9.32049 1.20185 9.34999 1.15326 9.37012C1.10467 9.39024 1.05259 9.4006 0.999993 9.4006C0.947398 9.4006 0.895317 9.39024 0.846726 9.37012C0.798134 9.34999 0.753983 9.32049 0.716793 9.2833C0.679602 9.24611 0.650101 9.20196 0.629974 9.15337C0.609847 9.10477 0.599487 9.05269 0.599487 9.0001C0.599487 8.9475 0.609847 8.89542 0.629974 8.84683C0.650101 8.79824 0.679602 8.75409 0.716793 8.7169L4.83439 4.6001H3.39999C3.29391 4.6001 3.19216 4.55796 3.11715 4.48294C3.04214 4.40793 2.99999 4.30618 2.99999 4.2001C2.99999 4.09401 3.04214 3.99227 3.11715 3.91726C3.19216 3.84224 3.29391 3.8001 3.39999 3.8001H5.79999C5.90567 3.8001 6.00704 3.84191 6.08199 3.91641C6.15694 3.9909 6.19936 4.09203 6.19999 4.1977" fill="#006D77"/>
</svg>
