<svg width="15" height="16" viewBox="0 0 15 16" fill="none" xmlns="http://www.w3.org/2000/svg">
<g clip-path="url(#clip0_262_60)">
<path d="M8.90647 5.76172C9.32366 5.76172 9.73149 5.63801 10.0784 5.40623C10.4253 5.17444 10.6956 4.84501 10.8553 4.45957C11.0149 4.07413 11.0567 3.65 10.9753 3.24083C10.8939 2.83165 10.693 2.45579 10.398 2.16079C10.103 1.86579 9.72716 1.66489 9.31799 1.5835C8.90881 1.50211 8.48468 1.54388 8.09924 1.70354C7.71381 1.86319 7.38437 2.13355 7.15259 2.48044C6.9208 2.82732 6.79709 3.23515 6.79709 3.65234C6.79709 4.21179 7.01933 4.74831 7.41491 5.1439C7.8105 5.53948 8.34703 5.76172 8.90647 5.76172ZM8.90647 2.94922C9.04553 2.94922 9.18147 2.99046 9.2971 3.06772C9.41273 3.14498 9.50285 3.25479 9.55607 3.38327C9.60929 3.51175 9.62321 3.65312 9.59608 3.78952C9.56895 3.92591 9.50199 4.0512 9.40365 4.14953C9.30532 4.24786 9.18003 4.31483 9.04364 4.34196C8.90725 4.36909 8.76587 4.35517 8.63739 4.30195C8.50891 4.24873 8.3991 4.15861 8.32184 4.04298C8.24458 3.92735 8.20334 3.79141 8.20334 3.65234C8.20334 3.46586 8.27742 3.28702 8.40928 3.15516C8.54114 3.0233 8.71999 2.94922 8.90647 2.94922ZM12.8908 9.51172C12.8908 9.6982 12.8168 9.87704 12.6849 10.0089C12.553 10.1408 12.3742 10.2148 12.1877 10.2148C10.0197 10.2148 8.94924 9.13262 8.08615 8.26367C7.98596 8.16289 7.88928 8.06445 7.79319 7.9707L7.28752 9.13379L9.31662 10.5799C9.40747 10.6451 9.48144 10.7311 9.53239 10.8307C9.58334 10.9302 9.60981 11.0405 9.60959 11.1523V14.4336C9.60959 14.6201 9.53551 14.7989 9.40365 14.9308C9.27179 15.0626 9.09295 15.1367 8.90647 15.1367C8.71999 15.1367 8.54114 15.0626 8.40928 14.9308C8.27742 14.7989 8.20334 14.6201 8.20334 14.4336V11.5139L6.71682 10.4521L4.8635 14.7137C4.82836 14.8008 4.77612 14.88 4.70988 14.9465C4.64363 15.0131 4.56471 15.0658 4.47779 15.1013C4.39087 15.1369 4.29769 15.1547 4.20377 15.1537C4.10986 15.1527 4.01709 15.1328 3.93097 15.0954C3.84484 15.0579 3.76709 15.0036 3.70231 14.9356C3.63753 14.8675 3.58703 14.7872 3.5538 14.6994C3.52056 14.6115 3.50527 14.5179 3.50881 14.4241C3.51236 14.3302 3.53467 14.238 3.57444 14.1529L6.50764 7.40703C6.09201 7.43633 5.60373 7.60039 5.04279 7.89922C4.41444 8.24553 3.82798 8.66292 3.29494 9.14316C3.15897 9.27083 2.97785 9.33924 2.79143 9.33336C2.60501 9.32748 2.42856 9.24779 2.3009 9.11182C2.17324 8.97584 2.10482 8.79472 2.1107 8.6083C2.11658 8.42188 2.19627 8.24543 2.33225 8.11777C2.48518 7.97422 6.10334 4.62148 8.43127 6.64238C8.66213 6.84277 8.87893 7.06191 9.08869 7.27402C9.86916 8.06328 10.6057 8.80859 12.1877 8.80859C12.3742 8.80859 12.553 8.88267 12.6849 9.01453C12.8168 9.1464 12.8908 9.32524 12.8908 9.51172Z" fill="#006D77"/>
</g>
<defs>
<clipPath id="clip0_262_60">
<rect width="15" height="15" fill="white" transform="translate(0 0.839844)"/>
</clipPath>
</defs>
</svg>
