<?xml version="1.0" encoding="UTF-8"?>
<svg id="ayubia" xmlns="http://www.w3.org/2000/svg" viewBox="0 0 5494.76 3090.8">
  <defs>
    <style>
      .cls-1 {
        fill: #fff;
      }

      .cls-2 {
        letter-spacing: .34em;
      }

      .cls-3 {
        letter-spacing: .37em;
      }

      .cls-4 {
        letter-spacing: .38em;
      }

      .cls-5 {
        letter-spacing: .3em;
      }

      .cls-6 {
        fill: #f5f5f5;
      }

      .cls-7 {
        fill: #3c3c3b;
      }

      .cls-8 {
        font-family: GillSans, 'Gill Sans';
        font-size: 41px;
      }
    </style>
  </defs>
  <path class="cls-1" d="M2574.78,1073.03c.02.08.04.15.06.23,4.59,21.41,21.79,37.55,48.2,36.86-14.87,0-26.94-12.06-26.94-26.94s12.06-26.94,26.94-26.94c16.45,0,28.33,12,26.97,27.55-.16,1.79-.13,3.64-.62,5.41-10.3,37.11-27,72.16-33.48,91.36l7.14,11.44c18.18-25.6,49.31-78,49.31-108.82,0-27.23-22.08-49.31-49.31-49.31-23.75,0-43.58,16.8-48.26,39.16h0Z"/>
  <g>
    <path class="cls-7" d="M3558.77,333.49c.11-10.03.06-20.03-1.35-30.05-1.96-13.95-6.8-27.61-14.94-39.16-1.11-1.57-2.31-3.14-3.64-4.58-2.49-3.68-5.6-7.07-9.93-8.44-5.3-1.68-10.71,1.99-14.59,5.12-5.14,4.14-8.77,10.11-12.38,15.53-3.28,4.94-6.9,9.56-9.4,14.85-.27.47-.52.94-.77,1.43-.64-2.28-1.31-4.56-1.96-6.86-3.25-11.49-6.68-22.9-10.04-34.36-4.41-15.05-10.57-33.88-27.41-38.67-11.47-3.26-19.87,3.94-26.06,12.82-.76.99-1.44,2.01-2.02,3.06-2.11,3.38-3.93,6.86-5.5,9.99-4.3,8.56-8.25,17.24-11.99,25.99-6.26-6.85-10.65-15.09-16.59-22.2-4.05-4.85-9.96-9.42-16.68-8.08-15.59,3.11-25.28,20.86-31.46,33.89-8.5,17.94-14.34,36.84-20.76,55.58-2.35,6.86-4.97,13.59-7.59,20.34-.68,1.75-3.58,7.47-1.87,9.61.07.41.37.78.93.83,12.63.94,25.37.53,38.03.54,4.24,0,8.48,0,12.72,0,6.34.4,12.68.71,19.03.77,7.3.07,14.6-.3,21.9-.74,16.59.01,33.19.03,49.78.05,1.63.14,3.27.26,4.9.31.66.02,1.23-.1,1.73-.31.74,0,1.47,0,2.21,0,1.7,0,2.03-2.14.97-2.95-4.31-12.76-8.15-25.35-10.51-38.66-.39-2.21-.92-4.69-1.42-7.28,0,0,0-.01,0-.02-.05-3.41-.49-6.81-.57-10.22-.05-2.31-.4-6.05.86-8.47,2.34.09,8.53,9.07,9.16,10.02,3.78,5.63,7,11.63,10.35,17.52,7.36,12.94,14.88,25.33,20.16,39.34.05.17.13.32.25.44.39.47,1.01.59,1.54.44,9.8,1.51,20.26.62,30.14.78,10.61.17,21.23.55,31.8,1.49.48.04.84-.1,1.1-.33.68,0,1.4-.44,1.47-1.31.52-5.93.62-11.99.39-18.08Z"/>
    <path d="M3328.91,304.86c1.89-5.56,3.83-11.1,5.87-16.6.02.02.04.04.07.06-2.01,5.5-3.92,11.04-5.94,16.54Z"/>
    <path class="cls-6" d="M3391.52,298.64c-.26-.23-.53-.47-.79-.72-1.13-1.08-2.04-2.38-2.92-3.65-.8-1.17-1.52-2.27-2.32-3.3-1.78-3.25-3.53-6.5-5.15-9.84-4.27-8.83-8.81-18.7-9.91-28.56-.26-2.29-.31-6.69,3.14-6.08,4.15.74,7.91,5.04,10.74,7.85,5.92,5.91,10.68,13.25,16.94,18.76.05.05.11.08.16.11-3.39,8.42-6.64,16.91-9.88,25.43Z"/>
    <path d="M3491.94,342.69c-.32-.74-.65-1.47-.98-2.2.35.65.7,1.31,1.05,1.96-.03.08-.05.16-.07.23Z"/>
  </g>
  <text class="cls-8" transform="translate(3334.84 410.2)"><tspan class="cls-3" x="0" y="0">A</tspan><tspan class="cls-5" x="42.48" y="0">Y</tspan><tspan class="cls-2" x="79.34" y="0">UB</tspan><tspan class="cls-4" x="158.46" y="0">I</tspan><tspan x="183.88" y="0">A</tspan></text>
</svg>