<svg id="Layer_1" data-name="Layer 1" xmlns="http://www.w3.org/2000/svg" viewBox="0 0 1920 1080"><defs><style>.cls-1{fill:#fff;opacity:0.5;}</style></defs><polyline class="cls-1" points="596.86 404.41 451.69 404.41 451.69 402.45"/><polygon class="cls-1" points="452.18 410.7 452.18 459.54 534.26 459.54 534.26 407.94 452.18 407.94 452.18 410.7"/><rect class="cls-1" x="534.27" y="407.95" width="62.7" height="51.59"/><polygon class="cls-1" points="626.78 408.28 626.78 453.22 698.78 453.22 698.78 407.36 626.78 408.28"/><rect class="cls-1" x="854.93" y="411.08" width="110.52" height="49.22"/><rect class="cls-1" x="965.45" y="411.08" width="100.89" height="49.22"/><polygon class="cls-1" points="1204.76 416.59 1282.27 416.59 1282.27 465.5 1203.69 465.5 1204.76 416.59"/><rect class="cls-1" x="1282.27" y="416.59" width="62.83" height="48.92"/><polygon class="cls-1" points="1360.54 397.32 1359.85 468.18 1408.61 468.18 1408.61 425.99 1360.54 397.32"/><polygon class="cls-1" points="1476.1 467.72 1408.61 468.18 1408.61 425.99 1476.1 467.72"/></svg>