<svg id="Layer_1" data-name="Layer 1" xmlns="http://www.w3.org/2000/svg" viewBox="0 0 1920 1080"><defs><style>.cls-1{fill:#fff;opacity:0.5;}</style></defs><line class="cls-1" x1="625.21" y1="313.4" x2="698.78" y2="269.38"/><line class="cls-1" x1="1417.63" y1="521.69" x2="1490.09" y2="520.69"/><rect class="cls-1" x="450.52" y="526.65" width="82.09" height="45.86"/><rect class="cls-1" x="532.61" y="526.65" width="64.36" height="45.86"/><path class="cls-1" d="M625.75,522.75h73l-.23,49.76h-72.8C626.44,572.51,625.75,522.75,625.75,522.75Z"/><rect class="cls-1" x="854.93" y="526.19" width="110.52" height="48.15"/><rect class="cls-1" x="965.45" y="526.19" width="100.89" height="48.15"/><rect class="cls-1" x="1203.69" y="528.48" width="78.57" height="49.53"/><rect class="cls-1" x="1282.27" y="528.48" width="62.83" height="49.53"/><rect class="cls-1" x="1359.62" y="534.55" width="67.41" height="46.32"/><rect class="cls-1" x="1427.03" y="534.55" width="65.27" height="46.32"/><line class="cls-1" x1="531.08" y1="582.79" x2="450.52" y2="581.8"/><line class="cls-1" x1="625.63" y1="582.29" x2="699.92" y2="580.76"/></svg>