<svg id="Layer_1" data-name="Layer 1" xmlns="http://www.w3.org/2000/svg" viewBox="0 0 1920 1080"><defs><style>.cls-1{fill:#fff;opacity:0.5;}</style></defs><polygon class="cls-1" points="450.52 581.8 450.52 632.55 531.08 633.54 531.08 582.79 450.52 581.8"/><rect class="cls-1" x="531.08" y="582.79" width="65.89" height="50.75"/><polygon class="cls-1" points="625.63 582.29 699.92 580.76 699.92 633.04 625.63 633.04 625.63 582.29"/><rect class="cls-1" x="732.94" y="580.76" width="88.66" height="50.75"/><rect class="cls-1" x="854.93" y="584.74" width="88.66" height="48.31"/><rect class="cls-1" x="977.53" y="584.74" width="88.82" height="48.31"/><rect class="cls-1" x="1107.16" y="584.74" width="76.43" height="48.31"/><rect class="cls-1" x="1203.69" y="584.74" width="73.95" height="48.31"/><rect class="cls-1" x="1277.64" y="584.74" width="68.33" height="48.31"/><polygon class="cls-1" points="1359.62 588.41 1360.69 633.04 1428.03 633.04 1428.03 588.41 1359.62 588.41"/><rect class="cls-1" x="1428.03" y="588.41" width="65.27" height="44.64"/></svg>