<svg width="22" height="22" viewBox="0 0 22 22" fill="none" xmlns="http://www.w3.org/2000/svg">
<path fill-rule="evenodd" clip-rule="evenodd" d="M6.25996 4.92332C6.31204 5.69589 6.44225 6.45111 6.65059 7.1716L5.60891 8.21328C5.25301 7.1716 5.02731 6.06916 4.94918 4.92332H6.25996ZM14.8192 15.3574C15.557 15.5657 16.3122 15.6959 17.0761 15.748V17.0414C15.9303 16.9633 14.8279 16.7376 13.7775 16.3904L14.8192 15.3574ZM7.09378 3.18701H4.05556C3.57813 3.18701 3.1875 3.57764 3.1875 4.05507C3.1875 12.2062 9.79345 18.8121 17.9446 18.8121C18.422 18.8121 18.8126 18.4215 18.8126 17.9441V14.9145C18.8126 14.4371 18.422 14.0465 17.9446 14.0465C16.8682 14.0465 15.8178 13.8729 14.8456 13.5517C14.7588 13.517 14.6633 13.5083 14.5765 13.5083C14.3508 13.5083 14.1338 13.5951 13.9602 13.76L12.0504 15.6697C9.5938 14.4111 7.5799 12.4058 6.32989 9.94922L8.23962 8.03948C8.48268 7.79642 8.55213 7.45788 8.45664 7.15406C8.13546 6.18183 7.96184 5.14015 7.96184 4.05507C7.96184 3.57764 7.57121 3.18701 7.09378 3.18701Z" fill="#FCF7EB"/>
</svg>
