<svg width="25" height="26" viewBox="0 0 25 26" fill="none" xmlns="http://www.w3.org/2000/svg">
<path fill-rule="evenodd" clip-rule="evenodd" d="M0.445312 2.87824C0.445312 2.36585 0.648856 1.87445 1.01117 1.51214C1.37348 1.14983 1.86487 0.946289 2.37726 0.946289H22.6205C23.1329 0.946289 23.6243 1.14983 23.9866 1.51214C24.3489 1.87445 24.5525 2.36585 24.5525 2.87824V23.1215C24.5525 23.6339 24.3489 24.1253 23.9866 24.4876C23.6243 24.8499 23.1329 25.0534 22.6205 25.0534H2.37726C1.86487 25.0534 1.37348 24.8499 1.01117 24.4876C0.648856 24.1253 0.445313 23.6339 0.445312 23.1215V2.87824ZM16.9732 24.0891V14.8523H20.1003L20.5685 11.2526H16.9732V8.9542C16.9732 7.91181 17.2649 7.20161 18.7725 7.20161L20.6953 7.20065V3.9809C20.3626 3.9375 19.2214 3.83915 17.8936 3.83915C15.1213 3.83915 13.2235 5.517 13.2235 8.5979V11.2526H10.0882V14.8523H13.2235V24.0891H16.9732Z" fill="#FCF7EB"/>
</svg>
