<svg width="28" height="27" viewBox="0 0 28 27" fill="none" xmlns="http://www.w3.org/2000/svg">
<path d="M8.4013 0.166504H19.6013C23.868 0.166504 27.3346 3.63317 27.3346 7.89984V19.0998C27.3346 21.1508 26.5199 23.1178 25.0696 24.5681C23.6193 26.0184 21.6523 26.8332 19.6013 26.8332H8.4013C4.13464 26.8332 0.667969 23.3665 0.667969 19.0998V7.89984C0.667969 5.84883 1.48273 3.88183 2.93301 2.43154C4.38329 0.981264 6.35029 0.166504 8.4013 0.166504ZM8.13463 2.83317C6.8616 2.83317 5.6407 3.33888 4.74052 4.23906C3.84035 5.13923 3.33464 6.36013 3.33464 7.63317V19.3665C3.33464 22.0198 5.4813 24.1665 8.13463 24.1665H19.868C21.141 24.1665 22.3619 23.6608 23.2621 22.7606C24.1623 21.8604 24.668 20.6395 24.668 19.3665V7.63317C24.668 4.97984 22.5213 2.83317 19.868 2.83317H8.13463ZM21.0013 4.83317C21.4433 4.83317 21.8673 5.00877 22.1798 5.32133C22.4924 5.63389 22.668 6.05781 22.668 6.49984C22.668 6.94186 22.4924 7.36579 22.1798 7.67835C21.8673 7.99091 21.4433 8.1665 21.0013 8.1665C20.5593 8.1665 20.1353 7.99091 19.8228 7.67835C19.5102 7.36579 19.3346 6.94186 19.3346 6.49984C19.3346 6.05781 19.5102 5.63389 19.8228 5.32133C20.1353 5.00877 20.5593 4.83317 21.0013 4.83317ZM14.0013 6.83317C15.7694 6.83317 17.4651 7.53555 18.7153 8.78579C19.9656 10.036 20.668 11.7317 20.668 13.4998C20.668 15.2679 19.9656 16.9636 18.7153 18.2139C17.4651 19.4641 15.7694 20.1665 14.0013 20.1665C12.2332 20.1665 10.5375 19.4641 9.28726 18.2139C8.03701 16.9636 7.33463 15.2679 7.33463 13.4998C7.33463 11.7317 8.03701 10.036 9.28726 8.78579C10.5375 7.53555 12.2332 6.83317 14.0013 6.83317ZM14.0013 9.49984C12.9404 9.49984 11.923 9.92126 11.1729 10.6714C10.4227 11.4216 10.0013 12.439 10.0013 13.4998C10.0013 14.5607 10.4227 15.5781 11.1729 16.3283C11.923 17.0784 12.9404 17.4998 14.0013 17.4998C15.0622 17.4998 16.0796 17.0784 16.8297 16.3283C17.5799 15.5781 18.0013 14.5607 18.0013 13.4998C18.0013 12.439 17.5799 11.4216 16.8297 10.6714C16.0796 9.92126 15.0622 9.49984 14.0013 9.49984Z" fill="#FCF7EB"/>
</svg>
