<svg width="24" height="24" viewBox="0 0 24 24" fill="none" xmlns="http://www.w3.org/2000/svg">
<path d="M20.5714 0.5C21.2534 0.5 21.9075 0.770917 22.3897 1.25315C22.8719 1.73539 23.1429 2.38944 23.1429 3.07143V21.0714C23.1429 21.7534 22.8719 22.4075 22.3897 22.8897C21.9075 23.3719 21.2534 23.6429 20.5714 23.6429H2.57143C1.88944 23.6429 1.23539 23.3719 0.753154 22.8897C0.270917 22.4075 0 21.7534 0 21.0714V3.07143C0 2.38944 0.270917 1.73539 0.753154 1.25315C1.23539 0.770917 1.88944 0.5 2.57143 0.5H20.5714ZM19.9286 20.4286V13.6143C19.9286 12.5026 19.487 11.4365 18.7009 10.6505C17.9149 9.86445 16.8488 9.42286 15.7371 9.42286C14.6443 9.42286 13.3714 10.0914 12.7543 11.0943V9.66714H9.16714V20.4286H12.7543V14.09C12.7543 13.1 13.5514 12.29 14.5414 12.29C15.0188 12.29 15.4767 12.4796 15.8142 12.8172C16.1518 13.1548 16.3414 13.6126 16.3414 14.09V20.4286H19.9286ZM4.98857 7.64857C5.56144 7.64857 6.11084 7.421 6.51592 7.01592C6.921 6.61084 7.14857 6.06144 7.14857 5.48857C7.14857 4.29286 6.18429 3.31571 4.98857 3.31571C4.41229 3.31571 3.85962 3.54464 3.45213 3.95213C3.04464 4.35962 2.81571 4.91229 2.81571 5.48857C2.81571 6.68429 3.79286 7.64857 4.98857 7.64857ZM6.77571 20.4286V9.66714H3.21429V20.4286H6.77571Z" fill="#FCF7EB"/>
</svg>
