<svg width="14" height="20" viewBox="0 0 14 20" fill="none" xmlns="http://www.w3.org/2000/svg">
<path fill-rule="evenodd" clip-rule="evenodd" d="M7 0.446289C10.6972 0.446289 13.6875 3.43656 13.6875 7.13379C13.6875 12.1494 7 19.5534 7 19.5534C7 19.5534 0.3125 12.1494 0.3125 7.13379C0.3125 3.43656 3.30277 0.446289 7 0.446289ZM2.22321 7.13379C2.22321 9.85656 5.01286 14.0219 7 16.5727C9.02536 14.0028 11.7768 9.88522 11.7768 7.13379C11.7768 4.497 9.63679 2.357 7 2.357C4.36321 2.357 2.22321 4.497 2.22321 7.13379ZM7 9.52218C5.68093 9.52218 4.61161 8.45286 4.61161 7.13379C4.61161 5.81472 5.68093 4.7454 7 4.7454C8.31907 4.7454 9.38839 5.81472 9.38839 7.13379C9.38839 8.45286 8.31907 9.52218 7 9.52218Z" fill="#FCF7EB"/>
</svg>
