<svg width="28" height="19" viewBox="0 0 28 19" fill="none" xmlns="http://www.w3.org/2000/svg">
<path d="M11.3346 13.4998L18.2546 9.49984L11.3346 5.49984V13.4998ZM26.748 3.05984C26.9213 3.6865 27.0413 4.5265 27.1213 5.59317C27.2146 6.65984 27.2546 7.57984 27.2546 8.37984L27.3346 9.49984C27.3346 12.4198 27.1213 14.5665 26.748 15.9398C26.4146 17.1398 25.6413 17.9132 24.4413 18.2465C23.8146 18.4198 22.668 18.5398 20.908 18.6198C19.1746 18.7132 17.588 18.7532 16.1213 18.7532L14.0013 18.8332C8.41464 18.8332 4.93464 18.6198 3.5613 18.2465C2.3613 17.9132 1.58797 17.1398 1.25464 15.9398C1.0813 15.3132 0.961302 14.4732 0.881302 13.4065C0.787969 12.3398 0.747969 11.4198 0.747969 10.6198L0.667969 9.49984C0.667969 6.57984 0.881302 4.43317 1.25464 3.05984C1.58797 1.85984 2.3613 1.0865 3.5613 0.753171C4.18797 0.579837 5.33464 0.459837 7.09464 0.379837C8.82797 0.286504 10.4146 0.246504 11.8813 0.246504L14.0013 0.166504C19.588 0.166504 23.068 0.379837 24.4413 0.753171C25.6413 1.0865 26.4146 1.85984 26.748 3.05984Z" fill="#FCF7EB"/>
</svg>
