<?xml version="1.0" encoding="UTF-8"?>
<svg id="forestHouse" xmlns="http://www.w3.org/2000/svg" xmlns:xlink="http://www.w3.org/1999/xlink" viewBox="0 0 5494.76 3090.8">
  <defs>
    <style>

    @font-face {
      font-family: 'Gill Sans Light';
      src: url('/fonts/GillSansMTPro-Light.otf');
      font-weight: normal;
    }

      .cls-1 {
        fill: #fff;
        filter: url(#drop-shadow-1);
        font-family: 'Gill Sans Light';
        font-size: 70px;
        cursor: pointer;
        font-weight: 500;
      }

      .cls-2 {
        fill: #faf7eb;
        stroke-width: 0px;
      }

      .cls-3 {
        stroke: #fff;
        stroke-width: 3px;
      }

      .cls-3, .cls-4 {
        fill: none;
        stroke-miterlimit: 10;
      }

      .cls-4 {
        stroke: #faf7eb;
        stroke-width: 5px;
      }
    </style>
    <filter id="drop-shadow-1" filterUnits="userSpaceOnUse">
      <feOffset dx="1" dy="1"/>
      <feGaussianBlur result="blur" stdDeviation="2"/>
      <feFlood flood-color="#000" flood-opacity=".75"/>
      <feComposite in2="blur" operator="in"/>
      <feComposite in="SourceGraphic"/>
    </filter>
  </defs>
  <g id="Layer_1" data-name="Layer 1">
    <text class="cls-1" transform="translate(1127.12 2283.23)"><tspan x="0" y="0">Ayubia Forest</tspan><tspan x="109.35" y="81.74">House</tspan></text>
    <polyline class="cls-3" points="1734.92 2171.27 1536.1 2172.6 1516.46 2213.65"/>
  </g>
  <g id="Layer_4" data-name="Layer 4">
    <g>
      <polygon class="cls-2" points="1767.06 2159.94 1770.44 2163.33 1774.03 2159.74 1774.03 2167.12 1778.82 2167.12 1778.82 2159.74 1782.4 2163.33 1785.78 2159.94 1782.2 2156.36 1789.58 2156.36 1789.58 2151.57 1782.2 2151.57 1785.78 2147.99 1782.4 2144.6 1778.82 2148.19 1778.82 2140.81 1774.03 2140.81 1774.03 2148.19 1770.44 2144.6 1767.06 2147.99 1770.65 2151.57 1763.27 2151.57 1763.27 2156.36 1770.65 2156.36 1767.06 2159.94"/>
      <path class="cls-2" d="M1817.08,2188.7c.23.07.42.22.82.56.82.71,2.07,1.77,4.35,1.77s3.53-1.07,4.35-1.77c.61-.52.74-.62,1.24-.62,1.32,0,2.39-1.07,2.39-2.39,0-5.13-1.39-10.16-4.03-14.56l-2.05-3.41c.16-.13.33-.26.46-.37.51-.44.55-.45.84-.45,1.32,0,2.39-1.07,2.39-2.39,0-4.46-1.21-8.83-3.5-12.66l-8.08-13.47c-1.08-1.8-3.06-2.92-5.16-2.92s-4.07,1.12-5.16,2.92l-8.08,13.47c-2.29,3.82-3.5,8.2-3.5,12.65,0,1.32,1.07,2.39,2.39,2.39.29,0,.32.01.83.45.13.11.3.25.46.38l-2.04,3.41c-2.64,4.4-4.03,9.43-4.03,14.56,0,1.32,1.07,2.39,2.39,2.39.49,0,.62.1,1.23.62.82.71,2.06,1.77,4.34,1.77s3.52-1.07,4.35-1.77c.41-.35.61-.51.85-.57v14.3h-8.37v-2.39c0-3.77-2.92-6.87-6.62-7.15-1.49-4.22-5.53-7.2-10.12-7.2s-8.63,2.98-10.12,7.2c-3.7.28-6.62,3.38-6.62,7.15v2.39h-4.78v4.78h71.75v-4.78h-13.15v-14.29ZM1801.97,2154.88l8.08-13.47c.44-.74,1.67-.74,2.11,0l8.08,13.47c1.53,2.56,2.47,5.42,2.74,8.37-.65.33-1.12.73-1.47,1.03-.51.44-.55.45-.84.45s-.33-.01-.84-.45c-.7-.6-1.87-1.6-3.95-1.6s-3.25,1-3.95,1.6c-.51.44-.55.45-.83.45s-.32-.01-.83-.45c-.7-.6-1.87-1.6-3.95-1.6s-3.25,1-3.95,1.6c-.51.44-.55.45-.83.45s-.32-.01-.83-.45c-.35-.3-.82-.71-1.47-1.03.27-2.95,1.21-5.82,2.74-8.37ZM1801.16,2185.63c-.61.52-.74.62-1.23.62s-.62-.1-1.23-.62c-.46-.39-1.05-.9-1.88-1.27.29-3.6,1.41-7.1,3.27-10.21l2.9-4.84c1.19-.32,1.96-.97,2.47-1.4.51-.44.55-.45.83-.45s.32.01.83.45c.7.6,1.87,1.6,3.95,1.6s3.25-1,3.95-1.6c.51-.44.55-.45.83-.45s.33.01.84.45c.51.44,1.29,1.09,2.49,1.41l2.9,4.83c1.87,3.11,2.98,6.61,3.27,10.2-.83.37-1.42.88-1.88,1.27-.61.52-.74.62-1.24.62s-.63-.1-1.24-.62c-.82-.7-2.07-1.77-4.35-1.77s-3.52,1.07-4.35,1.77c-.61.52-.74.62-1.23.62s-.62-.1-1.23-.62c-.82-.71-2.07-1.77-4.35-1.77s-3.52,1.07-4.34,1.77ZM1809.91,2190.9c.37.07.74.14,1.18.14s.84-.07,1.21-.14v12.1h-2.39v-12.1ZM1768.05,2200.6c0-1.32,1.07-2.39,2.39-2.39h1.32c1.19,0,2.2-.87,2.37-2.05.42-2.92,2.95-5.13,5.88-5.13s5.46,2.2,5.88,5.13c.17,1.18,1.18,2.05,2.37,2.05h1.32c1.32,0,2.39,1.07,2.39,2.39v2.39h-23.92v-2.39Z"/>
    </g>
    <circle class="cls-4" cx="1792.75" cy="2170.14" r="61"/>
  </g>
</svg>