<svg id="Layer_1" data-name="Layer 1" xmlns="http://www.w3.org/2000/svg" viewBox="0 0 1920 1080"><defs><style>.cls-1{fill:#fff;opacity:0.5;}</style></defs><polygon class="cls-1" points="446.78 407.41 446.78 456.25 528.87 456.25 528.87 404.66 446.78 404.66 446.78 407.41"/><rect class="cls-1" x="528.87" y="404.66" width="62.7" height="51.59"/><polygon class="cls-1" points="626.78 398.93 626.78 443.87 695.34 443.87 695.34 398.01 626.78 398.93"/><rect class="cls-1" x="854.93" y="411.08" width="110.52" height="49.22"/><rect class="cls-1" x="965.45" y="411.08" width="100.89" height="49.22"/><polygon class="cls-1" points="1207.59 416.59 1285.1 416.59 1285.1 465.5 1206.52 465.5 1207.59 416.59"/><rect class="cls-1" x="1285.1" y="416.59" width="62.83" height="48.92"/><polygon class="cls-1" points="1365.2 397.32 1365.2 473.76 1408.61 473.76 1408.61 424.23 1365.2 397.32"/><polygon class="cls-1" points="1487.49 473.76 1408.61 473.76 1408.61 424.23 1487.49 473.76"/></svg>