<svg width="38" height="45" viewBox="0 0 38 45" fill="none" xmlns="http://www.w3.org/2000/svg">
<path fill-rule="evenodd" clip-rule="evenodd" d="M21.0653 43.0849L21.0434 43.0889L20.9022 43.1585L20.8624 43.1664L20.8346 43.1585L20.6934 43.0889C20.6722 43.0823 20.6563 43.0856 20.6457 43.0988L20.6377 43.1187L20.6039 43.9699L20.6138 44.0096L20.6337 44.0355L20.8405 44.1827L20.8704 44.1906L20.8942 44.1827L21.1011 44.0355L21.1249 44.0037L21.1329 43.9699L21.0991 43.1207C21.0938 43.0995 21.0825 43.0876 21.0653 43.0849ZM21.5923 42.8602L21.5664 42.8642L21.1985 43.0491L21.1786 43.069L21.1727 43.0909L21.2085 43.946L21.2184 43.9699L21.2343 43.9838L21.634 44.1687C21.6592 44.1754 21.6784 44.1701 21.6917 44.1528L21.6997 44.125L21.632 42.9039C21.6254 42.8801 21.6122 42.8655 21.5923 42.8602ZM20.1704 42.8642C20.1616 42.8588 20.1511 42.8571 20.1411 42.8593C20.1311 42.8616 20.1223 42.8676 20.1167 42.8761L20.1047 42.9039L20.0371 44.125C20.0384 44.1489 20.0497 44.1648 20.0709 44.1727L20.1007 44.1687L20.5005 43.9838L20.5204 43.9679L20.5283 43.946L20.5621 43.0909L20.5562 43.067L20.5363 43.0471L20.1704 42.8642Z" fill="#545454"/>
<path fill-rule="evenodd" clip-rule="evenodd" d="M16.9025 0.809082C14.207 0.809312 11.5506 1.45414 9.15503 2.68978C6.75943 3.92542 4.69406 5.71603 3.13123 7.91222C1.5684 10.1084 0.553428 12.6465 0.170999 15.3147C-0.211431 17.983 0.0497697 20.7039 0.932809 23.2507C1.81585 25.7974 3.29512 28.0961 5.24721 29.9549C7.19929 31.8137 9.56758 33.1787 12.1545 33.936C14.7414 34.6933 17.4719 34.8211 20.1182 34.3085C22.7646 33.796 25.2499 32.658 27.367 30.9895L34.6297 38.2523C35.0048 38.6145 35.5072 38.815 36.0286 38.8104C36.55 38.8059 37.0488 38.5968 37.4175 38.228C37.7862 37.8593 37.9954 37.3605 37.9999 36.8391C38.0045 36.3177 37.804 35.8153 37.4417 35.4403L30.179 28.1775C32.1439 25.6849 33.3672 22.6895 33.7092 19.5341C34.0511 16.3787 33.4978 13.1908 32.1125 10.3351C30.7272 7.4795 28.566 5.07157 25.8761 3.38689C23.1862 1.70222 20.0764 0.808869 16.9025 0.809082ZM3.97596 17.713C3.97596 14.2847 5.33785 10.9968 7.76205 8.57257C10.1862 6.14837 13.4742 4.78648 16.9025 4.78648C20.3308 4.78648 23.6187 6.14837 26.0429 8.57257C28.4671 10.9968 29.829 14.2847 29.829 17.713C29.829 21.1413 28.4671 24.4293 26.0429 26.8534C23.6187 29.2776 20.3308 30.6395 16.9025 30.6395C13.4742 30.6395 10.1862 29.2776 7.76205 26.8534C5.33785 24.4293 3.97596 21.1413 3.97596 17.713Z" fill="#545454"/>
</svg>
