<?xml version="1.0" encoding="UTF-8"?>
<svg id="alnoor-waterfall" xmlns="http://www.w3.org/2000/svg" xmlns:xlink="http://www.w3.org/1999/xlink" viewBox="0 0 5494.76 3090.8">
  <defs>
    <style>

     @font-face {
      font-family: 'Gill Sans Light';
      src: url('/fonts/GillSansMTPro-Light.otf');
      font-weight: normal;
              cursor: pointer;

    }

      .cls-1 {
        fill: #fff;
        filter: url(#drop-shadow-1);
      font-family: 'Gill Sans Light';
        font-size: 70px;
        font-weight: 500;
        cursor: pointer;
      }

      .cls-2 {
        fill: #faf7eb;
        stroke-width: 0px;
      }

      .cls-3 {
        stroke: #fff;
        stroke-width: 3px;
      }

      .cls-3, .cls-4 {
        fill: none;
        stroke-miterlimit: 10;
      }

      .cls-4 {
        stroke: #faf7eb;
        stroke-width: 5px;
      }
    </style>
    <filter id="drop-shadow-1" filterUnits="userSpaceOnUse">
      <feOffset dx="1" dy="1"/>
      <feGaussianBlur result="blur" stdDeviation="2"/>
      <feFlood flood-color="#000" flood-opacity=".75"/>
      <feComposite in2="blur" operator="in"/>
      <feComposite in="SourceGraphic"/>
    </filter>
  </defs>
  <g id="Layer_1" data-name="Layer 1">
    <text class="cls-1" transform="translate(4562.67 1908.57)"><tspan x="0" y="0">Alnoor Waterfall</tspan></text>
    <polyline class="cls-3" points="5135.54 1651.86 5135.08 1850.69 5094.11 1870.51"/>
  </g>
  <g id="Layer_2" data-name="Layer 2">
    <path class="cls-2" d="M5120.32,1550.82v6.65c4.95,0,8.8.71,11.44,1.46-6.21,7.06-13.11,16.49-16.12,33.69-5.51,1.38-10.31,3.34-14.04,5.93-4.35,3.02-7.49,7.2-7.49,12.06,0,3.3,1.48,6.28,3.74,8.73,2.26,2.46,5.34,4.48,8.94,6.13,7.2,3.3,16.73,5.2,27.24,5.2s20.04-1.9,27.24-5.2c3.6-1.65,6.68-3.68,8.94-6.13,2.26-2.46,3.74-5.43,3.74-8.73,0-5.54-3.96-10.03-9.36-13.21-4.47-2.63-10.25-4.56-16.74-5.72.74-12.14,2.91-22.68,8.42-31.71,4.69-1.92,7.4-2.5,14.35-2.5v-6.65c-7.84,0-12.11.74-18.09,3.33l-.94.42-.52.83c-8.99,14.02-10.4,30.39-10.4,49.08v2.91l2.91.42s3.13.38,6.13,1.25c1.47.43,2.83,1.07,3.64,1.56-.74.48-2.05,1.04-3.85,1.56-3.78,1.1-9.32,1.87-15.49,1.87v6.65c6.69,0,12.71-.73,17.36-2.08,2.33-.68,4.38-1.47,6.03-2.6,1.65-1.13,3.22-2.92,3.22-5.41,0-2.77-1.94-4.65-3.64-5.72s-3.57-1.65-5.41-2.18c-2.07-.61-2.69-.7-4.06-.94.01-1.14.08-2.21.1-3.33,5.47,1.08,10.14,2.69,13.52,4.68,4.29,2.52,6.13,5.25,6.13,7.49,0,1.34-.53,2.7-1.98,4.26-1.44,1.56-3.74,3.18-6.76,4.58-6.04,2.77-14.84,4.58-24.54,4.58s-18.5-1.81-24.54-4.58c-3.02-1.39-5.32-3.02-6.76-4.58-1.44-1.56-1.98-2.92-1.98-4.26,0-1.96,1.27-4.26,4.58-6.55,2.33-1.61,5.55-3.11,9.36-4.26-.06.69-.16,1.36-.21,2.08-.78.35-1.05.39-2.18,1.14-2.08,1.38-4.89,3.7-4.89,7.59,0,3.05,2.26,4.93,4.47,6.13,2.21,1.21,4.98,2.05,8.21,2.7l1.25-6.55c-2.81-.57-4.97-1.39-6.24-2.08-.52-.29-.69-.42-.83-.52.19-.36.64-.99,1.66-1.66,1.33-.87,2.7-1.46,2.7-1.46l2.08-.73.1-2.18c1.56-26.76,10.89-35.6,19.03-44.61l2.91-3.12-3.85-1.98s-7.32-3.74-18.61-3.74ZM5134.46,1572.56c-5.81,10.94-7.07,23.41-7.07,38.16h6.65c0-14.36,1.23-25.6,6.24-35.04l-5.82-3.12Z"/>
    <circle class="cls-4" cx="5134.04" cy="1590.75" r="61.11"/>
  </g>
</svg>