<?xml version="1.0" encoding="UTF-8"?>
<svg id="radius" xmlns="http://www.w3.org/2000/svg" version="1.1" xmlns:xlink="http://www.w3.org/1999/xlink" viewBox="0 0 5494.8 3090.8">
  <defs>
    <style>
      .cls-1 {
        font-size: 59.6px;
      }

      .cls-1, .cls-2, .cls-3, .cls-4, .cls-5, .cls-6, .cls-7, .cls-8, .cls-9, .cls-10, .cls-11, .cls-12 {
        fill: #fff;
      }

      .cls-1, .cls-2, .cls-3, .cls-5, .cls-6, .cls-13, .cls-7, .cls-8, .cls-9, .cls-10, .cls-11, .cls-12 {
        font-family: GillSansMTPro-Medium, 'Gill Sans MT Pro';
        font-weight: 500;
      }

      .cls-2 {
        font-size: 25.8px;
      }

      .cls-3 {
        font-size: 59.6px;
      }

      .cls-14 {
        font-family: MyriadPro-Regular, 'Myriad Pro';
        font-size: 11px;
      }

      .cls-5 {
        filter: url(#drop-shadow-2);
      }

      .cls-5, .cls-6, .cls-7, .cls-8, .cls-9, .cls-10, .cls-12 {
        font-size: 75px;
      }

      .cls-15, .cls-16, .cls-13, .cls-17, .cls-18 {
        stroke-miterlimit: 10;
      }

      .cls-15, .cls-16, .cls-17, .cls-18 {
        fill: none;
      }

      .cls-15, .cls-6, .cls-19, .cls-17, .cls-20 {
        display: none;
      }

      .cls-15, .cls-18 {
        stroke: #faf7eb;
        stroke-width: 5px;
      }

      .cls-16 {
        stroke-width: 15px;
      }

      .cls-16, .cls-13, .cls-17 {
        stroke: #fff;
      }

      .cls-6 {
        filter: url(#drop-shadow-7);
      }

      .cls-21, .cls-19 {
        fill: #faf7eb;
      }

      .cls-13 {
        fill: #096069;
        font-size: 41.1px;
      }

      .cls-17 {
        stroke-width: 3px;
      }

      .cls-7 {
        filter: url(#drop-shadow-3);
      }

      .cls-8 {
        filter: url(#drop-shadow-4);
      }

      .cls-22 {
        fill: #f5f5f5;
      }

      .cls-23 {
        fill: #3c3c3b;
      }

      .cls-9 {
        filter: url(#drop-shadow-5);
      }

      .cls-10 {
        filter: url(#drop-shadow-1);
      }

      .cls-11 {
        font-size: 59.6px;
      }

      .cls-24 {
        opacity: .5;
      }

      .cls-12 {
        filter: url(#drop-shadow-6);
      }
    </style>
    <filter id="drop-shadow-1" filterUnits="userSpaceOnUse">
      <feOffset dx="1" dy="1"/>
      <feGaussianBlur result="blur" stdDeviation="2"/>
      <feFlood flood-color="#000" flood-opacity=".8"/>
      <feComposite in2="blur" operator="in"/>
      <feComposite in="SourceGraphic"/>
    </filter>
    <filter id="drop-shadow-2" filterUnits="userSpaceOnUse">
      <feOffset dx="1" dy="1"/>
      <feGaussianBlur result="blur-2" stdDeviation="2"/>
      <feFlood flood-color="#000" flood-opacity=".8"/>
      <feComposite in2="blur-2" operator="in"/>
      <feComposite in="SourceGraphic"/>
    </filter>
    <filter id="drop-shadow-3" filterUnits="userSpaceOnUse">
      <feOffset dx="1" dy="1"/>
      <feGaussianBlur result="blur-3" stdDeviation="2"/>
      <feFlood flood-color="#000" flood-opacity=".8"/>
      <feComposite in2="blur-3" operator="in"/>
      <feComposite in="SourceGraphic"/>
    </filter>
    <filter id="drop-shadow-4" filterUnits="userSpaceOnUse">
      <feOffset dx="1" dy="1"/>
      <feGaussianBlur result="blur-4" stdDeviation="2"/>
      <feFlood flood-color="#000" flood-opacity=".8"/>
      <feComposite in2="blur-4" operator="in"/>
      <feComposite in="SourceGraphic"/>
    </filter>
    <filter id="drop-shadow-5" filterUnits="userSpaceOnUse">
      <feOffset dx="1" dy="1"/>
      <feGaussianBlur result="blur-5" stdDeviation="2"/>
      <feFlood flood-color="#000" flood-opacity=".8"/>
      <feComposite in2="blur-5" operator="in"/>
      <feComposite in="SourceGraphic"/>
    </filter>
    <filter id="drop-shadow-6" filterUnits="userSpaceOnUse">
      <feOffset dx="1" dy="1"/>
      <feGaussianBlur result="blur-6" stdDeviation="2"/>
      <feFlood flood-color="#000" flood-opacity=".8"/>
      <feComposite in2="blur-6" operator="in"/>
      <feComposite in="SourceGraphic"/>
    </filter>
    <filter id="drop-shadow-7" filterUnits="userSpaceOnUse">
      <feOffset dx="1" dy="1"/>
      <feGaussianBlur result="blur-7" stdDeviation="2"/>
      <feFlood flood-color="#000" flood-opacity=".8"/>
      <feComposite in2="blur-7" operator="in"/>
      <feComposite in="SourceGraphic"/>
    </filter>
    <path id="path" d="M1215.7,858.4c178.7-107.8,405-181.4,659.2-213.8,117.1-14.9,240.2-21.1,367.3-17.8,156.1,4,318.2,22.3,482.8,56.1,275.4,56.6,527.1,150.4,742.4,269.2"/>
    <path id="path-2" d="M1335.6,1243.9c177.7-109.5,403.2-185.3,657.1-220.1,117-16.1,240-23.4,367.1-21.4,156.1,2.5,318.4,19.3,483.3,51.5,275.9,53.9,528.5,145.3,744.9,262.1"/>
    <path id="path-3" d="M1546.6,1639.8c158.2-136.1,369-246.5,614.2-321,113-34.3,233.3-61,359.2-79,154.5-22.1,317.4-31.2,485.4-25.3,280.9,9.8,544.8,60.2,776.9,141.4"/>
  </defs>
  <!-- Generator: Adobe Illustrator 28.6.0, SVG Export Plug-In . SVG Version: 1.2.0 Build 709)  -->
  <g>
    <g id="Layer_10" class="cls-20">
      <image width="5496" height="3072" transform="translate(-.7 12.8)" xlink:href="harsukh_map_ mountain-1.png"/>
    </g>
    <g id="Layer_1" class="cls-20">
      <text class="cls-13" transform="translate(2869.9 1370.4) rotate(-86)"><tspan x="0" y="0">Ayubia Rd</tspan></text>
      <text class="cls-13" transform="translate(3048.4 859.6) rotate(-50)"><tspan x="0" y="0">Ayubia Rd</tspan></text>
      <text class="cls-13" transform="translate(3134.2 149.1) rotate(-126.3)"><tspan x="0" y="0">Ayubia Rd</tspan></text>
      <text class="cls-13" transform="translate(1761.7 1539) rotate(-16.4)"><tspan x="0" y="0">Abbottabad Rd</tspan></text>
      <text class="cls-13" transform="translate(2552.6 2042.2) rotate(-44.4)"><tspan x="0" y="0">Abbottabad Rd</tspan></text>
      <text class="cls-13" transform="translate(2146.3 2692.8) rotate(-51.3)"><tspan x="0" y="0">Abbottabad Rd</tspan></text>
      <text class="cls-13" transform="translate(1459.8 1063.9) rotate(-39.5)"><tspan x="0" y="0">Abbottabad Rd</tspan></text>
      <text class="cls-13" transform="translate(1607.5 268.7) rotate(22.5)"><tspan x="0" y="0">Abbottabad Rd</tspan></text>
      <text class="cls-10" transform="translate(4374.2 986.7)"><tspan x="0" y="0">Ayubia Moto </tspan><tspan x="102.6" y="80">Tunnel</tspan></text>
      <text class="cls-5" transform="translate(3264.6 425.3)"><tspan x="0" y="0">Ayubia Chairlift</tspan></text>
      <text class="cls-7" transform="translate(1123.9 2283.2)"><tspan x="0" y="0">Ayubia Forest</tspan><tspan x="112.5" y="81.7">House</tspan></text>
      <text class="cls-8" transform="translate(2919.6 1886.5)"><tspan x="0" y="0">Ayubia Bazar</tspan></text>
      <text class="cls-9" transform="translate(84.8 1057.5)"><tspan x="0" y="0">Chanda Top Hill</tspan></text>
      <text class="cls-12" transform="translate(4560.8 1908.6)"><tspan x="0" y="0">Alnoor Waterfall</tspan></text>
      <g class="cls-20">
        <rect class="cls-4" x="2364.4" y="1005.3" width="125.4" height="1.2"/>
        <rect class="cls-4" x="2757.4" y="1005.3" width="125.4" height="1.2"/>
        <g>
          <path class="cls-4" d="M2376.7,948.5c0,10.3,0,13.1.2,21.5-1.8-.3-3.6-.7-6.1-.7s-4.5.3-6.4.7c1.1-20.1,1.5-26.4,1.5-41.1s-.1-11.5-1-36.8c1.8.5,3.3.7,6.3.7s4.5-.2,6.3-.7c-.2,3.4-1,20.1-.8,32.8,7.4.2,15,.5,22.4.5s14-.1,20.8-.3c.2-15.3.1-17-.6-32.9,1.8.5,3.4.7,6.3.7s4.5-.2,6.3-.7c-1,18.8-1.2,37.3-1.2,54.1s.1,12.8.7,23.9c-2.1-.3-3.9-.7-5.9-.7s-3.6.2-6.4.7c.3-6.4.8-18.5.8-21.3v-16.9c-7.5-.3-10.4-.3-21.6-.3s-13.1,0-21.6.2v16.8Z"/>
          <path class="cls-4" d="M2462,940.5c-2.3,5.2-6.8,15.2-10.5,29.5-1.4-.2-2.5-.7-4.6-.7s-3.5.5-5,.7c10-21.9,26.7-58.6,34.7-78.9.9.1,1.6.3,2.8.3s1.6-.1,2.5-.3c8.7,23.7,33.6,78.4,33.8,78.9-1.9-.3-3.8-.7-6.6-.7s-5.1.3-7.2.7c-3.9-13.5-8.6-23.3-11.4-29.5h-28.5ZM2476.1,906.9l-11.8,27.9h24l-12.2-27.9Z"/>
          <path class="cls-4" d="M2584.3,970c-2.4-.3-4.2-.7-6.6-.7s-5,.3-8.1.7c-10.7-16.9-18.9-27.5-27.6-37.7h-2.9c0,8-.1,19.7.8,37.7-1.9-.5-4.5-.7-6.5-.7-3,0-4.3.3-6,.7.6-13.3.8-26.7.8-43.1s-.3-22.2-.7-34.8c4.3.5,7.4.5,9.8.5s11.3-.1,13.1-.1c13.4,0,17.6,1.7,21.3,4.7,4.3,3.5,5.7,8.1,5.7,13.5,0,16.1-15.2,18.9-22.1,20.2,4.2,6.4,27.7,35.9,29.1,37.9v1.4ZM2546.2,897c-3.3,0-5.6.3-7.1.6-.2,5.1-.2,10.3-.2,15.3s.1,13.1.1,15.4c2.1.2,3.3.2,6,.1,5.1-.2,20.6-.9,20.6-16.6s-11.2-14.9-19.4-14.9Z"/>
          <path class="cls-4" d="M2633.7,906.4c-1.5-4.3-5.3-10.5-15.7-10.5s-14.4,9-14.4,13c0,8.9,7.4,11.9,13.2,14.2,12.3,4.7,14.4,5.5,18.4,8.8,5.2,4.2,6.3,10.1,6.3,14.4,0,11.7-8.2,25.1-28.3,25.1s-14.6-1.8-20.5-6.2c1.7-5.7,1.9-9.1,2-10.6h1.5c3.3,6.8,9.9,11.7,18.8,11.7s16.7-7.8,16.7-15-6.4-12.5-14-15.5c-13.2-5.5-14.6-6.1-17.7-8.8-3.8-3.2-5.6-8.8-5.6-14,0-14.5,11.7-21.9,25-21.9s16.4,3.4,19.2,5.2c-.9,1.7-2.9,6.2-3.3,10h-1.6Z"/>
          <path class="cls-4" d="M2658.7,892.1c2.4.3,4.6.7,6.6.7s4.6-.3,6.5-.7c-1,14.8-1,36.2-1,38.5,0,14.2.5,22.1,5,27.6,3.6,4.5,10.9,7.3,18,7.3s18.5-.7,22.2-16.4c1.8-7.7,1.9-20.4,1.9-23.2,0-4.3-.5-26.5-1.6-33.8,1.5.3,2.7.7,5.3.7s3.6-.3,5-.7c-1.5,10.3-1.9,23.1-1.9,39.8s-.6,23.1-8.1,30.9c-4.7,5-11.9,8.9-24.8,8.9s-20.5-2-27.5-11.4c-4.2-5.6-4.7-11.8-4.7-21.5,0-30.3,0-32.6-.9-46.6Z"/>
          <path class="cls-4" d="M2745.9,892.1c1.9.3,3.8.7,6.9.7s4.2-.3,5.7-.7c-.3,3.2-.6,9.6-.8,14.3-.2,6.1-.1,11.2,0,22,8-6.5,11.2-9,25.1-23.9,7.7-8.1,8.3-9,10.7-12.4,2,.5,3.8.7,5.9.7s3.5-.3,5.1-.7l.2.7c-4.8,3.4-32.1,30.2-36.4,34,8.6,9.7,22.2,25.1,30.8,34.7,1.1,1.1,3.6,3.9,5.6,6v2.6c-1.5-.3-5.1-.7-7.1-.7s-5.6.2-8,.7c-4.2-7.1-10-13.9-15.7-20.4-8.9-10.4-11.2-12.7-16-17.9l-.3.5v7c.1,17.3.1,20.2.9,30.9-1.8-.3-3.9-.7-6.3-.7s-4.4.3-6.6.7c1.1-19.7,1.4-22.9,1.4-38,0-24.7-.3-29-1-40Z"/>
          <path class="cls-4" d="M2827.4,948.5c0,10.3,0,13.1.2,21.5-1.8-.3-3.6-.7-6.1-.7s-4.5.3-6.4.7c1.1-20.1,1.5-26.4,1.5-41.1s-.1-11.5-1-36.8c1.8.5,3.3.7,6.3.7s4.5-.2,6.3-.7c-.2,3.4-1,20.1-.8,32.8,7.4.2,15,.5,22.4.5s14-.1,20.8-.3c.2-15.3.1-17-.6-32.9,1.8.5,3.4.7,6.3.7s4.5-.2,6.3-.7c-1,18.8-1.2,37.3-1.2,54.1s.1,12.8.7,23.9c-2.1-.3-3.9-.7-5.9-.7s-3.6.2-6.4.7c.3-6.4.8-18.5.8-21.3v-16.9c-7.5-.3-10.4-.3-21.6-.3s-13.1,0-21.6.2v16.8Z"/>
        </g>
        <text class="cls-2" transform="translate(2508.9 1012.6)"><tspan x="0" y="0">RESIDENCIES</tspan></text>
      </g>
      <polyline class="cls-17" points="2653.5 726.8 2454.7 730 2434.1 689.4"/>
      <polyline class="cls-17" points="634.9 781.8 634.9 980.6 594 1000.5"/>
      <polyline class="cls-17" points="4324.3 711.5 4324.3 910.3 4365.2 930.2"/>
      <polyline class="cls-17" points="2704.4 1767.6 2903.3 1768.9 2922.9 1810"/>
      <polyline class="cls-17" points="5135.5 1651.9 5135.1 1850.7 5094.1 1870.5"/>
      <polyline class="cls-17" points="3042.6 320.1 3241.4 321.4 3261 362.5"/>
      <polyline class="cls-17" points="1734.9 2171.3 1536.1 2172.6 1516.5 2213.7"/>
    </g>
    <g id="Layer_2" class="cls-20">
      <g class="cls-20">
        <g class="cls-20">
          <path class="cls-21" d="M2753.3,715.2l-10-3.9v-4.4c0-1.4-1.2-2.6-2.6-2.6s-2.6,1.2-2.6,2.6v54.5h-9.1v-10.4h1.3c1.4,0,2.6-1.2,2.6-2.6s-1.2-2.6-2.6-2.6h-28.6c-1.4,0-2.6,1.2-2.6,2.6s1.2,2.6,2.6,2.6h1.3v10.4h-9.1v-54.5c0-1.4-1.2-2.6-2.6-2.6s-2.6,1.2-2.6,2.6v4.4l-10,3.9c-1,.4-1.7,1.3-1.7,2.4v46.5c0,1.4,1.2,2.6,2.6,2.6h72.7c1.4,0,2.6-1.2,2.6-2.6v-46.5c0-1.1-.7-2-1.7-2.4ZM2682.2,719.4l6.5-2.5v44.6h-6.5v-42.1ZM2723.8,761.5h-5.2v-10.4h5.2v10.4ZM2708.2,751.1h5.2v10.4h-5.2v-10.4ZM2749.8,761.5h-6.5v-44.6l6.5,2.5v42.1Z"/>
          <path class="cls-21" d="M2714.7,714.8h2.6c1.4,0,2.6-1.2,2.6-2.6s-1.2-2.6-2.6-2.6h-2.6c-1.4,0-2.6,1.2-2.6,2.6s1.2,2.6,2.6,2.6Z"/>
          <path class="cls-21" d="M2701.7,714.8h2.6c1.4,0,2.6-1.2,2.6-2.6s-1.2-2.6-2.6-2.6h-2.6c-1.4,0-2.6,1.2-2.6,2.6s1.2,2.6,2.6,2.6Z"/>
          <path class="cls-21" d="M2727.7,714.8h2.6c1.4,0,2.6-1.2,2.6-2.6s-1.2-2.6-2.6-2.6h-2.6c-1.4,0-2.6,1.2-2.6,2.6s1.2,2.6,2.6,2.6Z"/>
          <path class="cls-21" d="M2714.7,727.7h2.6c1.4,0,2.6-1.2,2.6-2.6s-1.2-2.6-2.6-2.6h-2.6c-1.4,0-2.6,1.2-2.6,2.6s1.2,2.6,2.6,2.6Z"/>
          <path class="cls-21" d="M2701.7,727.7h2.6c1.4,0,2.6-1.2,2.6-2.6s-1.2-2.6-2.6-2.6h-2.6c-1.4,0-2.6,1.2-2.6,2.6s1.2,2.6,2.6,2.6Z"/>
          <path class="cls-21" d="M2727.7,727.7h2.6c1.4,0,2.6-1.2,2.6-2.6s-1.2-2.6-2.6-2.6h-2.6c-1.4,0-2.6,1.2-2.6,2.6s1.2,2.6,2.6,2.6Z"/>
          <path class="cls-21" d="M2714.7,740.7h2.6c1.4,0,2.6-1.2,2.6-2.6s-1.2-2.6-2.6-2.6h-2.6c-1.4,0-2.6,1.2-2.6,2.6s1.2,2.6,2.6,2.6Z"/>
          <path class="cls-21" d="M2701.7,740.7h2.6c1.4,0,2.6-1.2,2.6-2.6s-1.2-2.6-2.6-2.6h-2.6c-1.4,0-2.6,1.2-2.6,2.6s1.2,2.6,2.6,2.6Z"/>
          <path class="cls-21" d="M2727.7,740.7h2.6c1.4,0,2.6-1.2,2.6-2.6s-1.2-2.6-2.6-2.6h-2.6c-1.4,0-2.6,1.2-2.6,2.6s1.2,2.6,2.6,2.6Z"/>
        </g>
        <path class="cls-19" d="M2748.5,691.4c0-1.4-1.2-2.6-2.6-2.6h-59.7c-1.4,0-2.6,1.2-2.6,2.6v7.8h64.9v-7.8Z"/>
        <circle class="cls-15" cx="2716" cy="727.7" r="61"/>
      </g>
      <circle class="cls-15" cx="2981.3" cy="320.1" r="61.4"/>
      <path class="cls-19" d="M2994.6,294.9c1.4,0,2.6-1.2,2.6-2.6v-2.6h23.5v-5.2h-23.5v-2.6c0-1.4-1.2-2.6-2.6-2.6h-26.1c-1.4,0-2.6,1.2-2.6,2.6v2.6h-23.5v5.2h23.5v2.6c0,1.4,1.2,2.6,2.6,2.6h5.2v10.4h-11.6c-3.6,0-6.7,2.4-7.6,5.9l-1.1,4.5h-3.2c-4.3,0-7.8,3.5-7.8,7.8v26.1c0,4.3,3.5,7.8,7.8,7.8h62.5c4.3,0,7.8-3.5,7.8-7.8v-26.1c0-4.3-3.5-7.8-7.8-7.8h-3.2l-1.1-4.5c-.9-3.5-4-5.9-7.6-5.9h-11.6v-10.4h5.2ZM2971.2,284.4h20.8v5.2h-20.8v-5.2ZM2950.3,320.9h13v18.2h-15.6v-15.6c0-1.4,1.2-2.6,2.6-2.6ZM2994.6,352.2h-10.4v-31.3h10.4v31.3ZM2979,352.2h-10.4v-31.3h10.4v31.3ZM2947.7,349.6v-5.2h15.6v7.8h-13c-1.4,0-2.6-1.2-2.6-2.6ZM3012.9,352.2h-13v-7.8h15.6v5.2c0,1.4-1.2,2.6-2.6,2.6ZM3015.5,323.5v15.6h-15.6v-18.2h13c1.4,0,2.6,1.2,2.6,2.6ZM3003.5,312.5l.8,3.2h-45.4l.8-3.2c.3-1.2,1.3-2,2.5-2h38.8c1.2,0,2.2.8,2.5,2ZM2984.2,305.3h-5.2v-10.4h5.2v10.4Z"/>
      <path class="cls-19" d="M5120.3,1550.8v6.7c5,0,8.8.7,11.4,1.5-6.2,7.1-13.1,16.5-16.1,33.7-5.5,1.4-10.3,3.3-14,5.9-4.4,3-7.5,7.2-7.5,12.1s1.5,6.3,3.7,8.7c2.3,2.5,5.3,4.5,8.9,6.1,7.2,3.3,16.7,5.2,27.2,5.2s20-1.9,27.2-5.2c3.6-1.7,6.7-3.7,8.9-6.1,2.3-2.5,3.7-5.4,3.7-8.7,0-5.5-4-10-9.4-13.2-4.5-2.6-10.3-4.6-16.7-5.7.7-12.1,2.9-22.7,8.4-31.7,4.7-1.9,7.4-2.5,14.3-2.5v-6.7c-7.8,0-12.1.7-18.1,3.3l-.9.4-.5.8c-9,14-10.4,30.4-10.4,49.1v2.9l2.9.4s3.1.4,6.1,1.2c1.5.4,2.8,1.1,3.6,1.6-.7.5-2.1,1-3.8,1.6-3.8,1.1-9.3,1.9-15.5,1.9v6.7c6.7,0,12.7-.7,17.4-2.1,2.3-.7,4.4-1.5,6-2.6,1.7-1.1,3.2-2.9,3.2-5.4s-1.9-4.7-3.6-5.7-3.6-1.7-5.4-2.2c-2.1-.6-2.7-.7-4.1-.9,0-1.1,0-2.2.1-3.3,5.5,1.1,10.1,2.7,13.5,4.7,4.3,2.5,6.1,5.3,6.1,7.5s-.5,2.7-2,4.3c-1.4,1.6-3.7,3.2-6.8,4.6-6,2.8-14.8,4.6-24.5,4.6s-18.5-1.8-24.5-4.6c-3-1.4-5.3-3-6.8-4.6-1.4-1.6-2-2.9-2-4.3,0-2,1.3-4.3,4.6-6.6,2.3-1.6,5.5-3.1,9.4-4.3,0,.7-.2,1.4-.2,2.1-.8.4-1.1.4-2.2,1.1-2.1,1.4-4.9,3.7-4.9,7.6s2.3,4.9,4.5,6.1c2.2,1.2,5,2.1,8.2,2.7l1.2-6.6c-2.8-.6-5-1.4-6.2-2.1-.5-.3-.7-.4-.8-.5.2-.4.6-1,1.7-1.7,1.3-.9,2.7-1.5,2.7-1.5l2.1-.7v-2.2c1.7-26.8,11-35.6,19.1-44.6l2.9-3.1-3.8-2s-7.3-3.7-18.6-3.7ZM5134.5,1572.6c-5.8,10.9-7.1,23.4-7.1,38.2h6.7c0-14.4,1.2-25.6,6.2-35l-5.8-3.1Z"/>
      <circle class="cls-15" cx="5134" cy="1590.8" r="61.1"/>
      <text class="cls-6" transform="translate(2141.2 590.7)"><tspan x="0" y="0">Faletti’s Grand</tspan><tspan x="120.1" y="80">Ayubia</tspan></text>
    </g>
    <g id="Layer_4" class="cls-20">
      <g>
        <polygon class="cls-21" points="1767.1 2159.9 1770.4 2163.3 1774 2159.7 1774 2167.1 1778.8 2167.1 1778.8 2159.7 1782.4 2163.3 1785.8 2159.9 1782.2 2156.4 1789.6 2156.4 1789.6 2151.6 1782.2 2151.6 1785.8 2148 1782.4 2144.6 1778.8 2148.2 1778.8 2140.8 1774 2140.8 1774 2148.2 1770.4 2144.6 1767.1 2148 1770.7 2151.6 1763.3 2151.6 1763.3 2156.4 1770.7 2156.4 1767.1 2159.9"/>
        <path class="cls-21" d="M1817.1,2188.7c.2,0,.4.2.8.6.8.7,2.1,1.8,4.3,1.8s3.5-1.1,4.4-1.8c.6-.5.7-.6,1.2-.6,1.3,0,2.4-1.1,2.4-2.4,0-5.1-1.4-10.2-4-14.6l-2-3.4c.2-.1.3-.3.5-.4.5-.4.5-.5.8-.5,1.3,0,2.4-1.1,2.4-2.4,0-4.5-1.2-8.8-3.5-12.7l-8.1-13.5c-1.1-1.8-3.1-2.9-5.2-2.9s-4.1,1.1-5.2,2.9l-8.1,13.5c-2.3,3.8-3.5,8.2-3.5,12.7s1.1,2.4,2.4,2.4.3,0,.8.4c.1.1.3.2.5.4l-2,3.4c-2.6,4.4-4,9.4-4,14.6s1.1,2.4,2.4,2.4.6,0,1.2.6c.8.7,2.1,1.8,4.3,1.8s3.5-1.1,4.3-1.8c.4-.4.6-.5.8-.6v14.3h-8.4v-2.4c0-3.8-2.9-6.9-6.6-7.2-1.5-4.2-5.5-7.2-10.1-7.2s-8.6,3-10.1,7.2c-3.7.3-6.6,3.4-6.6,7.2v2.4h-4.8v4.8h71.7v-4.8h-13.2v-14.3ZM1802,2154.9l8.1-13.5c.4-.7,1.7-.7,2.1,0l8.1,13.5c1.5,2.6,2.5,5.4,2.7,8.4-.6.3-1.1.7-1.5,1-.5.4-.5.5-.8.5s-.3,0-.8-.5c-.7-.6-1.9-1.6-4-1.6s-3.2,1-3.9,1.6c-.5.4-.5.4-.8.4s-.3,0-.8-.4c-.7-.6-1.9-1.6-3.9-1.6s-3.2,1-3.9,1.6c-.5.4-.5.4-.8.4s-.3,0-.8-.4c-.4-.3-.8-.7-1.5-1,.3-3,1.2-5.8,2.7-8.4ZM1801.2,2185.6c-.6.5-.7.6-1.2.6s-.6,0-1.2-.6c-.5-.4-1-.9-1.9-1.3.3-3.6,1.4-7.1,3.3-10.2l2.9-4.8c1.2-.3,2-1,2.5-1.4.5-.4.5-.4.8-.4s.3,0,.8.4c.7.6,1.9,1.6,3.9,1.6s3.2-1,3.9-1.6c.5-.4.5-.4.8-.4s.3,0,.8.5c.5.4,1.3,1.1,2.5,1.4l2.9,4.8c1.9,3.1,3,6.6,3.3,10.2-.8.4-1.4.9-1.9,1.3-.6.5-.7.6-1.2.6s-.6,0-1.2-.6c-.8-.7-2.1-1.8-4.4-1.8s-3.5,1.1-4.3,1.8c-.6.5-.7.6-1.2.6s-.6,0-1.2-.6c-.8-.7-2.1-1.8-4.3-1.8s-3.5,1.1-4.3,1.8ZM1809.9,2190.9c.4,0,.7.1,1.2.1s.8,0,1.2-.1v12.1h-2.4v-12.1ZM1768.1,2200.6c0-1.3,1.1-2.4,2.4-2.4h1.3c1.2,0,2.2-.9,2.4-2,.4-2.9,3-5.1,5.9-5.1s5.5,2.2,5.9,5.1c.2,1.2,1.2,2,2.4,2h1.3c1.3,0,2.4,1.1,2.4,2.4v2.4h-23.9v-2.4Z"/>
      </g>
      <circle class="cls-18" cx="1792.7" cy="2170.1" r="61"/>
    </g>
    <g id="Layer_5" class="cls-20">
      <path class="cls-21" d="M637.5,688.3l-2.4,4.3c-5.6,10.3-11.3,20.5-16.9,30.7l-5-5-1.7,2.8c-5.1,8.4-10.1,16.9-15.2,25.3l-2.4,3.9h81.1l-1.5-3.6c-2.6-6.1-5.2-12.1-7.8-18.2l-1.5-3.5-5.4,5.4c-6.4-12.6-12.8-25.3-19.2-37.9l-2.2-4.4ZM637.3,699.4c2.6,5.2,5.3,10.4,7.9,15.6l-2,1.7-5.9-5.1-5.9,5.1-2.4-2.1c2.8-5.1,5.6-10.1,8.4-15.2ZM637.3,718.4l5.9,5.1,4.4-3.8c2.8,5.5,5.5,10.9,8.3,16.4l1.6,3.2,5-5c1.6,3.7,3.1,7.3,4.7,11h-64.1c3.7-6.2,7.4-12.4,11.1-18.6l5.2,5.2,1.7-3c1.8-3.2,3.5-6.4,5.3-9.6l5,4.3,5.9-5.1Z"/>
      <circle class="cls-18" cx="634.6" cy="719.4" r="61"/>
    </g>
    <g id="Layer_6" class="cls-20">
      <path class="cls-21" d="M2675.5,1756.8l-3-15.2c-.8-4.2-4.5-7.2-8.7-7.2h-41.3c-4.2,0-7.9,3-8.7,7.2l-3,15.2c-.7,3.7.2,7.4,2.6,10.3,2.4,2.9,5.9,4.6,9.6,4.6s7.8-2,10.1-5.2c.3.4.6.8.9,1.2,2.3,2.5,5.7,3.9,9.3,3.9s6.8-1.4,9.1-3.9c.4-.4.6-.8.9-1.2,2.3,3.1,6,5.2,10.1,5.2s7.3-1.7,9.6-4.6c2.4-2.9,3.3-6.7,2.6-10.3ZM2630.7,1756.9v1.4c0,0,0,0,0,0v1.3c-.4,4-3.7,7.1-7.7,7.1s-4.4-1-5.9-2.8c-1.4-1.8-2-4.1-1.6-6.3l3-15.2c.4-1.9,2-3.3,4-3.3h9.4l-1.2,17.7h0ZM2648.7,1764.4c-1.5,1.6-3.4,2.4-5.7,2.4s-4.1-.9-5.5-2.4c-1.4-1.6-2.2-3.6-2-5.7v-1.6c.1,0,1.3-17.8,1.3-17.8h12.7l1.2,17.8v1.6c.2,2.1-.5,4.1-1.9,5.7ZM2669.2,1764c-1.5,1.8-3.6,2.8-5.9,2.8-4,0-7.3-3.1-7.6-7.1v-1.3c0,0,0,0,0,0v-1.4c0,0-1.3-17.7-1.3-17.7h9.4c1.9,0,3.6,1.4,4,3.3l3,15.2c.4,2.2-.1,4.5-1.6,6.3h0ZM2666.6,1795.2c0,2.2-1.8,4.1-4.1,4.1h-10.5v-10.5c0-4.9-4-8.9-8.9-8.9s-8.9,4-8.9,8.9v10.5h-10.5c-2.2,0-4.1-1.8-4.1-4.1v-19.8c-1.7-.4-3.4-1-4.9-1.8v21.6c0,4.9,4,8.9,8.9,8.9h38.9c4.9,0,8.9-4,8.9-8.9v-21.6c-1.5.9-3.1,1.5-4.9,1.8v19.8ZM2647.1,1799.2h-8.1v-10.5c0-2.2,1.8-4.1,4.1-4.1s4.1,1.8,4.1,4.1v10.5Z"/>
      <circle class="cls-18" cx="2643.4" cy="1769.2" r="61"/>
    </g>
    <g id="Layer_7" class="cls-20">
      <path class="cls-21" d="M4348.2,621.8c-7.3-6.8-16.9-10.2-26.9-9.6-18.8,1.2-33.5,17.4-33.5,36.9v31.9c0,5.6,4.5,10.1,10.1,10.1h51.5c5.6,0,10.1-4.5,10.1-10.1v-33.1c0-9.9-4.1-19.4-11.3-26.2ZM4335.9,620.2c3.1,1.4,6,3.2,8.5,5.6.7.7,1.4,1.4,2,2.1l-7.7,5.2c-.3-.3-.5-.6-.8-.8-1.8-1.7-3.9-3-6.1-3.9,0,0,4.1-8.2,4.1-8.2ZM4321.6,617.7c3.1-.2,6.1,0,9,.7l-4.3,8.6c-1.5-.2-3.1-.2-4.7,0-.2,0-.4,0-.6.1l-4.3-8.6c1.6-.4,3.2-.7,4.9-.8ZM4311.5,620.3l4.1,8.3c-2.6,1.1-4.8,2.7-6.8,4.7l-7.7-5.2c2.9-3.3,6.4-6,10.4-7.8h0ZM4302.5,685.7h-4.6c-2.5,0-4.6-2.1-4.6-4.6v-4.6h9.2v9.2ZM4302.5,670.9h-9.2v-9.2h9.2v9.2ZM4302.5,648.8v7.5h-9.2v-7.1c0-.7,0-1.4,0-2.1h9.3c0,.6-.2,1.1-.2,1.7ZM4303.8,641.5h-9.5c.8-3.2,2-6.2,3.6-9l7.6,5.1c-.7,1.2-1.3,2.5-1.7,3.9ZM4339.3,685.7h-31.2v-9.2h31.2v9.2ZM4339.3,670.9h-31.2v-22.2c0-8.4,6.2-15.6,14.1-16.3,4.5-.4,8.8,1,12.1,4,3.2,3,5.1,7.2,5.1,11.6v23ZM4342,637.5l7.6-5.1c1.7,2.8,2.9,5.9,3.6,9.1h-9.5c-.4-1.4-1-2.7-1.8-4ZM4354,681.1c0,2.5-2.1,4.6-4.6,4.6h-4.6v-9.2h9.2v4.6ZM4354,670.9h-9.2v-9.2h9.2v9.2ZM4354,656.2h-9.2v-8.3c0-.3,0-.6,0-.9h9.2c0,.3,0,.6,0,.9,0,0,0,8.3,0,8.3ZM4333.8,659c0,1.5-1.2,2.8-2.8,2.8h-14.7c-1.5,0-2.8-1.2-2.8-2.8s1.2-2.8,2.8-2.8h14.7c1.5,0,2.8,1.2,2.8,2.8ZM4317.2,644.3c0-1.5,1.2-2.8,2.8-2.8h7.4c1.5,0,2.8,1.2,2.8,2.8s-1.2,2.8-2.8,2.8h-7.4c-1.5,0-2.8-1.2-2.8-2.8Z"/>
      <circle class="cls-18" cx="4323.6" cy="651.7" r="61"/>
    </g>
    <g id="Layer_9" class="cls-20">
      <image width="2471" height="2015" transform="translate(2361.6 1173.4) scale(.2)" xlink:href="../../Harsukh/map/Layer 1.png"/>
      <text class="cls-14" transform="translate(5889.1 924.7)"><tspan x="0" y="0">Lorem ipsum</tspan></text>
    </g>
    <g id="Layer_12" class="cls-20">
      <path class="cls-4" d="M2574.8,1073c0,0,0,.2,0,.2,4.6,21.4,21.8,37.5,48.2,36.9-14.9,0-26.9-12.1-26.9-26.9s12.1-26.9,26.9-26.9,28.3,12,27,27.5c-.2,1.8-.1,3.6-.6,5.4-10.3,37.1-27,72.2-33.5,91.4l7.1,11.4c18.2-25.6,49.3-78,49.3-108.8s-22.1-49.3-49.3-49.3-43.6,16.8-48.3,39.2h0Z"/>
      <path class="cls-4" d="M2615.8,1180.6c7.6-15,31.7-75.6,33.5-91.4-.2.7-4.6,20.6-26.4,21-22,.3-42.5-15.2-48.2-36.9,0,0,0-.2,0-.2-5.7,27.2,22.8,77.7,41.1,107.5h0Z"/>
    </g>
    <g id="Layer_11" class="cls-20">
      <path class="cls-23" d="M2377.5,2841.9c.1-.3.1-.7,0-1.1-4.2-8.3-8.1-16.9-12.4-25.2-4.2-8.1-9.3-15.7-14.5-23.3-3.7-5.3-8.1-11.7-14.5-13.7-6.3-2-12,4.2-15.6,9-13-16.8-26.1-33.5-39.7-49.8-9.6-11.5-23.5-27.4-40.4-24.2-18.8,3.5-29.6,20.7-37.6,36.4-4.7,9.2-8.4,19-13,28.2-.9,1.8-1.8,3.5-2.7,5.3-.2.2-.3.5-.4.7-3.2,6.5-6.4,13.1-8.5,20-3-4.5-6.2-9.3-10.7-12.1-5.6-3.4-11.1.8-15,4.7-11.5,11.6-14.5,29.1-19.5,43.9,0,.1,0,.2,0,.3-.2.6,0,1.4.7,1.6,4.4,1.2,8.8,1.1,13.3,1.2,5.1,0,10.3.3,15.4.3,10.8,0,21.5-.4,32.3,0,22.7.9,45.4.6,68.1.4,22.6-.2,45.3-.4,67.8.7,10,.5,19.9.8,29.8,1.2,5.5.2,13,1.2,17.5-2.6.8-.7.4-1.7-.3-2.1Z"/>
      <g>
        <path class="cls-23" d="M3487.5,324.2c.1-10,0-20-1.3-30.1-2-14-6.8-27.6-14.9-39.2-1.1-1.6-2.3-3.1-3.6-4.6-2.5-3.7-5.6-7.1-9.9-8.4-5.3-1.7-10.7,2-14.6,5.1-5.1,4.1-8.8,10.1-12.4,15.5-3.3,4.9-6.9,9.6-9.4,14.9-.3.5-.5.9-.8,1.4-.6-2.3-1.3-4.6-2-6.9-3.2-11.5-6.7-22.9-10-34.4-4.4-15-10.6-33.9-27.4-38.7-11.5-3.3-19.9,3.9-26.1,12.8-.8,1-1.4,2-2,3.1-2.1,3.4-3.9,6.9-5.5,10-4.3,8.6-8.3,17.2-12,26-6.3-6.8-10.7-15.1-16.6-22.2-4-4.9-10-9.4-16.7-8.1-15.6,3.1-25.3,20.9-31.5,33.9-8.5,17.9-14.3,36.8-20.8,55.6-2.4,6.9-5,13.6-7.6,20.3-.7,1.8-3.6,7.5-1.9,9.6,0,.4.4.8.9.8,12.6.9,25.4.5,38,.5,4.2,0,8.5,0,12.7,0,6.3.4,12.7.7,19,.8,7.3,0,14.6-.3,21.9-.7,16.6,0,33.2,0,49.8,0,1.6.1,3.3.3,4.9.3.7,0,1.2,0,1.7-.3.7,0,1.5,0,2.2,0,1.7,0,2-2.1,1-3-4.3-12.8-8.2-25.3-10.5-38.7-.4-2.2-.9-4.7-1.4-7.3,0,0,0,0,0,0,0-3.4-.5-6.8-.6-10.2,0-2.3-.4-6,.9-8.5,2.3,0,8.5,9.1,9.2,10,3.8,5.6,7,11.6,10.3,17.5,7.4,12.9,14.9,25.3,20.2,39.3,0,.2.1.3.2.4.4.5,1,.6,1.5.4,9.8,1.5,20.3.6,30.1.8,10.6.2,21.2.5,31.8,1.5.5,0,.8,0,1.1-.3.7,0,1.4-.4,1.5-1.3.5-5.9.6-12,.4-18.1Z"/>
        <path d="M3257.6,295.6c1.9-5.6,3.8-11.1,5.9-16.6,0,0,0,0,0,0-2,5.5-3.9,11-5.9,16.5Z"/>
        <path class="cls-22" d="M3320.2,289.4c-.3-.2-.5-.5-.8-.7-1.1-1.1-2-2.4-2.9-3.7-.8-1.2-1.5-2.3-2.3-3.3-1.8-3.2-3.5-6.5-5.1-9.8-4.3-8.8-8.8-18.7-9.9-28.6-.3-2.3-.3-6.7,3.1-6.1,4.2.7,7.9,5,10.7,7.9,5.9,5.9,10.7,13.2,16.9,18.8,0,0,.1,0,.2.1-3.4,8.4-6.6,16.9-9.9,25.4Z"/>
        <path d="M3420.6,333.4c-.3-.7-.6-1.5-1-2.2.4.7.7,1.3,1,2,0,0,0,.2,0,.2Z"/>
      </g>
    </g>
    <g id="Layer_13" class="cls-24">
      <path class="cls-16" d="M2599,1374.2c53.6,29.1,98.5,64.2,131.8,103.5,41.8,49.4,65.5,105.6,65.5,165.2s-20.3,107.5-56.6,154.2-88.5,87.8-152.3,120.6c-42.7,22-90.6,40.2-142.4,54-70.6,18.7-148.4,29.1-230.1,29.1s-155.7-9.9-224.9-27.8c-86.8-22.4-162.9-57.4-222.2-101.3-50.5-37.4-88.9-81.1-111.5-129.1-14.9-31.7-22.9-65.2-22.9-99.8s4.1-48.9,11.8-72.2c7.8-23.3,19.2-45.8,33.9-67.3,22.8-33.2,53.6-63.8,90.7-91,56.2-41.1,127.1-74.3,207.8-96.5"/>
      <path class="cls-16" d="M3959.1,1643c0,169.5-63.8,329.9-177.4,472.4-132.7,166.6-333.5,308.9-580,413.2-280.7,118.8-620.6,188.3-986.9,188.3s-413.3-23.1-600.6-65.3c-312.1-70.5-582.3-194.2-781.7-353.4"/>
      <path class="cls-16" d="M762.7,1047.8c154.3-142.4,362.4-260.8,606.4-344.3,112.4-38.4,232.5-69.5,358.4-92,154.6-27.6,318.1-42.5,487.2-42.5,282.9,0,550,41.5,786.3,115"/>
      <text>
        <textPath startOffset="12.5%" xlink:href="#path"><tspan class="cls-3"><tspan x="0" y="0">900 m</tspan></tspan>
        </textPath></text>
      <text>
        <textPath startOffset="12.5%" xlink:href="#path-2"><tspan class="cls-1"><tspan x="0" y="0">600 m</tspan></tspan>
        </textPath></text>
      <text>
        <textPath startOffset="12.5%" xlink:href="#path-3"><tspan class="cls-11"><tspan x="0" y="0">300 m</tspan></tspan>
        </textPath></text>
      <path class="cls-16" d="M1587.1,1040.2c181.1-71.6,396.5-113.2,627.7-113.2s222.4,9.9,325.8,28.5c246.3,44.2,458.9,137.2,608.1,260.8,143.8,119.2,228.9,266.8,228.9,426.6s-157,411.7-405,543c-203.5,107.8-468.4,172.9-757.9,172.9"/>
      <path class="cls-16" d="M1136.1,1910.8c-54.3-82.7-84.1-173.2-84.1-267.9"/>
      <path class="cls-16" d="M2684.2,1854.2"/>
    </g>
  </g>
</svg>